{
.formatVersion = 3;
classes = (
{
code = "zero.dnom one.dnom two.dnom three.dnom four.dnom five.dnom six.dnom seven.dnom eight.dnom nine.dnom equal.dnom hyphen.dnom minus.dnom parenleft.dnom parenright.dnom plus.dnom";
name = dnom_frac;
},
{
code = "zero one two three four five six seven eight nine";
name = dnom_frac_numr_ordn_sinf_subs_sups;
},
{
code = "slash zero one two three four five six seven eight nine";
name = frac;
},
{
code = "A O a o zero.numr one.numr two.numr three.numr four.numr five.numr six.numr seven.numr eight.numr nine.numr equal.numr hyphen.numr minus.numr parenleft.numr parenright.numr plus.numr";
name = frac_ordn;
},
{
code = "ordfeminine ordmasculine ordfeminine ordmasculine zero.dnom one.dnom two.dnom three.dnom four.dnom five.dnom six.dnom seven.dnom eight.dnom nine.dnom equal.dnom hyphen.dnom minus.dnom parenleft.dnom parenright.dnom plus.dnom";
name = frac_ordn2;
},
{
code = "zero.numr one.numr two.numr three.numr four.numr five.numr six.numr seven.numr eight.numr nine.numr equal.numr hyphen.numr minus.numr parenleft.numr parenright.numr plus.numr";
name = frac_numr;
},
{
code = "zero.inferior one.inferior two.inferior three.inferior four.inferior five.inferior six.inferior seven.inferior eight.inferior nine.inferior plus.inferior minus.inferior equal.inferior parenleft.inferior parenright.inferior hyphen.inferior";
name = sinf_subs;
},
{
code = "zero.superior onesuperior twosuperior threesuperior four.superior five.superior six.superior seven.superior eight.superior nine.superior plus.superior minus.superior equal.superior parenleft.superior parenright.superior hyphen.superior";
name = sups;
},
{

glyphs = (
{
glyphname = .notdef;
layers = (
{
layerId = "147DC1DB-E812-4101-979E-17422C2E6004";
shapes = (
{
closed = 1;
nodes = (
(435,379,l),
(432,379,l),
(423,368,o),
(382,355,o),
(351,358,c),
(344,328,l),
(349,379,o),
(301,392,o),
(257,376,cs),
(216,361,o),
(185,323,o),
(173,264,cs),
(155,174,o),
(207,157,o),
(241,157,cs),
(283,157,o),
(301,184,o),
(316,212,c),
(313,195,o),
(312,166,o),
(337,161,c),
(402,161,l),
(402,162,o),
(402,162,o),
(402,162,c),
(388,172,o),
(387,179,o),
(394,208,cs)
);
},
{
closed = 1;
nodes = (
(326,256,ls),
(317,219,o),
(288,168,o),
(266,168,cs),
(249,168,o),
(242,199,o),
(260,274,cs),
(276,337,o),
(294,367,o),
(316,367,cs),
(343,367,o),
(341,319,o),
(334,288,cs)
);
},
{
closed = 1;
nodes = (
(472,380,o),
(434,380,o),
(434,380,c),
(429,375,l),
(476,375,l),
(443,209,ls),
(437,180,o),
(433,173,o),
(415,163,c),
(531,162,l),
(522,168,o),
(518,174,o),
(518,184,cs),
(518,191,o),
(520,198,o),
(522,209,cs),
(556,373,l),
(556,373,o),
(537,380,o),
(527,396,cs),
(505,432,o),
(556,471,o),
(602,480,cs),
(641,487,o),
(703,477,o),
(693,438,c),
(693,438,o),
(696,438,o),
(697,438,c),
(707,482,o),
(648,493,o),
(600,485,cs),
(540,475,o),
(488,433,o),
(478,380,c)
);
},
{
closed = 1;
nodes = (
(686,384,l),
(697,438,l),
(693,438,l),
(684,410,o),
(625,378,o),
(585,377,c),
(584,374,l),
(605,374,l),
(572,219,ls),
(566,191,o),
(566,157,o),
(622,157,cs),
(667,157,o),
(690,179,o),
(706,219,c),
(706,219,o),
(704,226,o),
(704,231,c),
(700,220,o),
(681,177,o),
(655,177,cs),
(644,177,o),
(644,185,o),
(649,209,cs),
(683,374,l),
(731,374,l),
(733,384,l)
);
},
{
closed = 1;
nodes = (
(152,384,l),
(163,438,l),
(159,438,l),
(150,410,o),
(91,378,o),
(51,377,c),
(50,374,l),
(71,374,l),
(38,219,ls),
(32,191,o),
(32,157,o),
(88,157,cs),
(133,157,o),
(156,179,o),
(172,219,c),
(172,219,o),
(171,228,o),
(171,233,c),
(167,222,o),
(147,177,o),
(121,177,cs),
(110,177,o),
(110,185,o),
(115,209,cs),
(149,374,l),
(197,374,l),
(199,384,l)
);
},
{
closed = 1;
nodes = (
(316,23,o),
(310,20,o),
(310,11,cs),
(310,2,o),
(316,-2,o),
(322,-2,cs),
(328,-2,o),
(334,2,o),
(334,11,cs),
(334,20,o),
(328,23,o),
(322,23,cs)
);
},
{
closed = 1;
nodes = (
(335,92,l),
(362,0,l),
(383,0,l),
(401,70,l),
(420,0,l),
(440,0,l),
(468,92,l),
(450,92,l),
(433,25,l),
(432,23,o),
(432,21,o),
(432,20,c),
(429,20,l),
(429,21,o),
(428,23,o),
(428,25,c),
(413,92,l),
(390,92,l),
(375,25,l),
(375,23,o),
(374,21,o),
(374,20,c),
(371,20,l),
(371,21,o),
(370,23,o),
(370,25,c),
(353,92,l)
);
},
{
closed = 1;
nodes = (
(490,93,o),
(474,82,o),
(474,46,cs),
(474,10,o),
(490,-1,o),
(517,-1,cs),
(544,-1,o),
(562,10,o),
(562,46,cs),
(562,82,o),
(544,93,o),
(517,93,cs)
);
},
{
closed = 1;
nodes = (
(500,13,o),
(491,23,o),
(491,47,cs),
(491,71,o),
(500,79,o),
(516,79,cs),
(534,79,o),
(544,70,o),
(544,46,cs),
(544,22,o),
(534,13,o),
(517,13,cs)
);
},
{
closed = 1;
nodes = (
(633,92,l),
(631,93,o),
(629,93,o),
(629,93,cs),
(606,93,o),
(595,80,o),
(595,69,c),
(591,92,l),
(577,90,l),
(577,0,l),
(595,0,l),
(595,50,ls),
(595,68,o),
(606,78,o),
(622,78,cs),
(627,78,o),
(632,77,o),
(633,76,c)
);
},
{
closed = 1;
nodes = (
(662,0,l),
(662,34,l),
(674,46,l),
(707,0,l),
(728,0,l),
(687,58,l),
(724,92,l),
(699,92,l),
(662,53,l),
(662,128,l),
(645,126,l),
(645,0,l)
);
}
);
width = 755;
}
);
},
{
glyphname = m;
layers = (
{
anchors = (
{
name = top;
position = "{472, 520}";
},
{
name = bottom;
position = "{472, -20}";
}
);
layerId = "147DC1DB-E812-4101-979E-17422C2E6004";
shapes = (
{
closed = 1;
nodes = (
(74,0,l,{name = ab01;}),
(219,0,l,{name = sh01;}),
(219,500,l,{name = av01;}),
(74,500,l)
);
},
{
closed = 1;
nodes = (
(212,282,l),
(219,217,l,{name = iv01;}),
(219,333.604,o),
(258,410,o),
(330,410,cs,{name = sv01;}),
(372,410,o),
(399,383.936,o),
(399,278.68,cs),
(399,0,l,{name = ab01;}),
(544,0,l),
(544,314,ls),
(544,462,o),
(478,520,o),
(389,520,cs,{name = at01;}),
(296,520,o),
(228,456,o),
(211,361,c)
);
},
{
closed = 1;
nodes = (
(537,282,l),
(544,217,l,{name = iv01;}),
(544,333.604,o),
(583,410,o),
(655,410,cs,{name = sv01;}),
(697,410,o),
(724,383.936,o),
(724,278.68,cs),
(724,0,l,{name = ab01;}),
(869,0,l),
(869,314,ls),
(869,462,o),
(803,520,o),
(714,520,cs,{name = at01;}),
(621,520,o),
(553,456,o),
(536,361,c)
);
}
);
width = 943;
}
);
leftKerningGroup = i;
rightKerningGroup = h;
unicode = 109;
},
{
glyphname = u;
layers = (
{
anchors = (
{
name = top;
position = "{300, 520}";
},
{
name = bottom;
position = "{300, -20}";
},
{
name = ogonek;
position = "{406, -2}";
}
);
layerId = "147DC1DB-E812-4101-979E-17422C2E6004";
shapes = (
{
closed = 1;
nodes = (
(66,500,l,{name = av01;}),
(66,185,ls),
(66,62,o),
(153,-20,o),
(300,-20,cs,{name = dv01;}),
(448,-20,o),
(533,65,o),
(533,185,cs),
(533,500,l,{name = av02;}),
(388,500,l),
(388,209.291,ls),
(388,124.083,o),
(357,90,o),
(300,90,cs,{name = dv02;}),
(246,90,o),
(211,121.076,o),
(211,209.291,cs),
(211,500,l)
);
}
);
width = 600;
}
);
leftKerningGroup = u;
unicode = 117;
},
{
glyphname = h;
layers = (
{
anchors = (
{
name = bottom;
position = "{318, -20}";
},
{
name = top;
position = "{146, 750}";
}
);
layerId = "147DC1DB-E812-4101-979E-17422C2E6004";
shapes = (
{
closed = 1;
nodes = (
(74,0,l,{name = ab03;}),
(219,0,l),
(219,750,l,{name = ab01;}),
(74,750,l)
);
},
{
closed = 1;
nodes = (
(212,282,l),
(219,217,l,{name = iv01;}),
(219,333.604,o),
(261,410,o),
(336,410,cs,{name = sv01;}),
(386,410,o),
(416,383.936,o),
(416,278.68,cs),
(416,0,l,{name = ab01;}),
(561,0,l),
(561,314,ls),
(561,462,o),
(492,520,o),
(389,520,cs,{name = at01;}),
(301,520,o),
(230,456,o),
(211,361,c)
);
}
);
width = 635;
}
);
leftKerningGroup = b;
rightKerningGroup = h;
unicode = 104;
},
{
glyphname = l;
layers = (
{
anchors = (
{
name = top;
position = "{148, 750}";
},
{
name = bottom;
position = "{200, -20}";
},
{
name = topright;
position = "{260, 750}";
}
);
layerId = "147DC1DB-E812-4101-979E-17422C2E6004";
shapes = (
{
closed = 1;
nodes = (
(317,104,l),
(292,94.308,o),
(273,90,o),
(258,90,cs,{name = dv02;}),
(225,90,o),
(219,110.03,o),
(219,175.129,cs),
(219,750,l,{name = ab01;}),
(74,750,l),
(74,132,ls),
(74,30,o),
(119,-20,o),
(230,-20,cs,{name = dv01;}),
(272,-20,o),
(295,-13,o),
(340,2,c)
);
}
);
width = 350;
}
);
leftKerningGroup = b;
rightKerningGroup = l;
unicode = 108;
},
{
glyphname = p;
layers = (
{
anchors = (
{
name = bottom;
position = "{381, -20}";
},
{
name = top;
position = "{372, 520}";
}
);
layerId = "147DC1DB-E812-4101-979E-17422C2E6004";
shapes = (
{
closed = 1;
nodes = (
(218,500,l,{name = av02;}),
(73,500,l),
(73,-200,l,{name = av01;}),
(218,-200,l)
);
},
{
closed = 1;
nodes = (
(186,98,o),
(256,-20,o),
(366,-20,cs,{name = dv01;}),
(502,-20,o),
(585,99,o),
(585,255,cs),
(585,411,o),
(511,520,o),
(372,520,cs,{name = at01;}),
(261,520,o),
(186,413,o),
(186,255,cs)
);
},
{
closed = 1;
nodes = (
(440,158.213,o),
(393.792,90,o),
(329.502,90,cs,{name = dv02;}),
(260.19,90,o),
(218,153.197,o),
(218,256.52,cs),
(218,348.809,o),
(261.195,410,o),
(328.498,410,cs,{name = sv01;}),
(395.801,410,o),
(440,348.809,o),
(440,255.517,cs)
);
}
);
width = 635;
}
);
leftKerningGroup = i;
rightKerningGroup = b1;
unicode = 112;
},
{
glyphname = d;
layers = (
{
anchors = (
{
name = bottom;
position = "{295, -20}";
},
{
name = top;
position = "{290, 750}";
},
{
name = topright;
position = "{600, 750}";
}
);
layerId = "147DC1DB-E812-4101-979E-17422C2E6004";
shapes = (
{
closed = 1;
nodes = (
(417,0,l,{name = ab02;}),
(562,0,l),
(562,750,l,{name = ab01;}),
(417,750,l)
);
},
{
closed = 1;
nodes = (
(449,423,o),
(381,520,o),
(263,520,cs,{name = at01;}),
(124,520,o),
(50,411,o),
(50,255,cs),
(50,99,o),
(133,-20,o),
(269,-20,cs,{name = dv01;}),
(386,-20,o),
(449,89,o),
(449,255,cs)
);
},
{
closed = 1;
nodes = (
(195,352.821,o),
(236.186,410,o),
(306.502,410,cs,{name = sv01;}),
(373.805,410,o),
(417,348.809,o),
(417,256.52,cs),
(417,153.197,o),
(374.81,90,o),
(305.498,90,cs,{name = dv02;}),
(238.195,90,o),
(195,154.201,o),
(195,255.517,cs)
);
}
);
width = 635;
}
);
leftKerningGroup = a;
unicode = 100;
},
{
glyphname = o;
layers = (
{
anchors = (
{
name = ogonek;
position = "{417, -3}";
},
{
name = top;
position = "{308, 520}";
},
{
name = bottom;
position = "{308, -20}";
},
{
name = topgr;
position = "{308, 520}";
}
);
layerId = "147DC1DB-E812-4101-979E-17422C2E6004";
shapes = (
{
closed = 1;
nodes = (
(49,84,o),
(147,-20,o),
(308,-20,cs,{name = dv01;}),
(482,-20,o),
(567,84,o),
(567,255,cs),
(567,416,o),
(481,520,o),
(308,520,cs,{name = at01;}),
(146,520,o),
(49,416,o),
(49,255,cs)
);
},
{
closed = 1;
nodes = (
(419,145.346,o),
(387,90,o),
(308,90,cs,{name = dv02;}),
(236,90,o),
(197,146.352,o),
(197,255.031,cs),
(197,359.686,o),
(233,410,o),
(308,410,cs,{name = sv01;}),
(384,410,o),
(419,357.673,o),
(419,253.019,cs)
);
}
);
width = 616;
}
);
leftKerningGroup = a;
rightKerningGroup = b1;
unicode = 111;
},
{
glyphname = q;
layers = (
{
anchors = (
{
name = bottom;
position = "{290, -20}";
},
{
name = top;
position = "{291, 520}";
}
);
layerId = "147DC1DB-E812-4101-979E-17422C2E6004";
shapes = (
{
closed = 1;
nodes = (
(417,-200,l),
(562,-200,l),
(562,500,l),
(417,500,l)
);
},
{
closed = 1;
nodes = (
(449,423,o),
(381.085,520,o),
(263.233,520,cs,{name = at01;}),
(124.407,520,o),
(50.5,411,o),
(50.5,255,cs),
(50.5,99,o),
(133.396,-20,o),
(269.226,-20,cs,{name = dv01;}),
(386.079,-20,o),
(449,89,o),
(449,255,cs)
);
},
{
closed = 1;
nodes = (
(195.5,350.815,o),
(237.595,410,o),
(306.751,410,cs,{name = sv01;}),
(373.903,410,o),
(417,348.809,o),
(417,256.52,cs),
(417,153.197,o),
(374.905,90,o),
(305.749,90,cs,{name = dv02;}),
(239.6,90,o),
(195.5,155.204,o),
(195.5,255.517,cs)
);
}
);
width = 635;
}
);
leftKerningGroup = a;
unicode = 113;
},
{
glyphname = b;
layers = (
{
anchors = (
{
name = bottom;
position = "{345, -20}";
},
{
name = top;
position = "{353, 750}";
}
);
layerId = "147DC1DB-E812-4101-979E-17422C2E6004";
shapes = (
{
closed = 1;
nodes = (
(218,0,l,{name = ab02;}),
(218,750,l,{name = ab01;}),
(73,750,l,{name = sh01;}),
(73,0,l)
);
},
{
closed = 1;
nodes = (
(186,89,o),
(248.921,-20,o),
(372.491,-20,cs,{name = dv01;}),
(501.604,-20,o),
(584.5,99,o),
(584.5,255,cs),
(584.5,411,o),
(510.593,520,o),
(371.767,520,cs,{name = at01;}),
(253.915,520,o),
(186,423,o),
(186,255,cs)
);
},
{
closed = 1;
nodes = (
(439.5,154.201,o),
(396.403,90,o),
(329.251,90,cs,{name = dv02;}),
(260.095,90,o),
(218,153.197,o),
(218,256.52,cs),
(218,348.809,o),
(261.097,410,o),
(328.249,410,cs,{name = sv01;}),
(398.407,410,o),
(439.5,351.818,o),
(439.5,255.517,cs)
);
}
);
width = 635;
}
);
leftKerningGroup = b;
rightKerningGroup = b1;
unicode = 98;
},
{
glyphname = c;
layers = (
{
anchors = (
{
name = top;
position = "{303, 520}";
},
{
name = bottom;
position = "{303, -20}";
}
);
layerId = "147DC1DB-E812-4101-979E-17422C2E6004";
shapes = (
{
closed = 1;
nodes = (
(209,90,o),
(184,163.459,o),
(184,255.031,cs),
(184,359.686,o),
(222,410,o),
(297,410,cs,{name = sv01;}),
(352,410,o),
(404,390.648,o),
(435,355,c),
(513,433,l),
(463,490,o),
(386,520,o),
(293,520,cs,{name = at01;}),
(131,520,o),
(39,416,o),
(39,255,cs),
(39,84,o),
(131,-20,o),
(292,-20,cs,{name = dv01;}),
(395,-20,o),
(471,10,o),
(521,67,c),
(443,145,l),
(414,111.389,o),
(370,90,o),
(314,90,cs,{name = dv02;})
);
}
);
width = 563;
}
);
leftKerningGroup = a;
rightKerningGroup = b1;
unicode = 99;
},
{
glyphname = e;
layers = (
{
anchors = (
{
name = top;
position = "{299, 520}";
},
{
name = bottom;
position = "{299, -20}";
},
{
name = ogonek;
position = "{417, -3}";
}
);
layerId = "147DC1DB-E812-4101-979E-17422C2E6004";
shapes = (
{
closed = 1;
nodes = (
(186,322,l,{name = sv02;}),
(195,376.621,o),
(240.582,410,o),
(303.009,410,cs,{name = sv01;}),
(364.445,410,o),
(404.082,376.621,o),
(413,322,c,{name = dv04;})
);
},
{
closed = 1;
nodes = (
(229.676,90,o),
(186,134.336,o),
(186,222,c,{name = sv04;}),
(561,222,l,{name = dv03;}),
(561,419,o),
(468,520,o),
(305,520,cs,{name = at01;}),
(145,520,o),
(38,422,o),
(38,251,cs,{name = sv03;}),
(38,85,o),
(138,-20,o),
(312,-20,cs,{name = at01;}),
(405,-20,o),
(484,10,o),
(534,67,c),
(456,145,l),
(425.228,109.352,o),
(376.588,90,o),
(318.022,90,cs,{name = sv01;})
);
}
);
width = 598;
}
);
leftKerningGroup = a;
rightKerningGroup = b1;
unicode = 101;
},
{
glyphname = f;
layers = (
{
anchors = (
{
name = top;
position = "{244, 750}";
},
{
name = bottom;
position = "{183, -20}";
}
);
layerId = "147DC1DB-E812-4101-979E-17422C2E6004";
shapes = (
{
closed = 1;
nodes = (
(109,390,l,{name = dv03;}),
(109,0,l,{name = ab01;}),
(254,0,l),
(254,390,l,{name = sv01;}),
(390,390,l),
(390,500,l,{name = sv02;}),
(254,500,l),
(254,569,ls),
(254,620,o),
(273,637,o),
(310,637,cs,{name = dv01;}),
(326,637,o),
(357,634,o),
(375,627,c),
(396,728,l),
(337,746,o),
(307,751,o),
(276,751,cs,{name = dv02;}),
(164,751,o),
(109,684,o),
(109,588,cs),
(109,500,l,{name = dv04;}),
(22,500,l),
(22,390,l)
);
}
);
width = 423;
}
);
leftKerningGroup = f;
rightKerningGroup = f1;
unicode = 102;
},
{
glyphname = r;
layers = (
{
anchors = (
{
name = top;
position = "{235, 520}";
},
{
name = bottom;
position = "{132, -20}";
}
);
layerId = "147DC1DB-E812-4101-979E-17422C2E6004";
shapes = (
{
closed = 1;
nodes = (
(74,500,l,{name = av01;}),
(74,0,l,{name = ab01;}),
(219,0,l),
(219,215,ls),
(219,342,o),
(258,410,o),
(395,410,c,{name = sv01;}),
(395,520,l,{name = at01;}),
(307,519,o),
(249,469,o),
(219,395,c,{name = iv01;}),
(219,500,l)
);
}
);
width = 422;
}
);
leftKerningGroup = i;
rightKerningGroup = r;
unicode = 114;
},
{
glyphname = t;
layers = (
{
anchors = (
{
name = top;
position = "{175, 630}";
},
{
name = bottom;
position = "{220, -20}";
},
{
name = topright;
position = "{272, 700}";
}
);
layerId = "147DC1DB-E812-4101-979E-17422C2E6004";
shapes = (
{
closed = 1;
nodes = (
(16,500,l,{name = dv04;}),
(16,390,l,{name = dv03;}),
(338,390,l),
(338,500,l)
);
},
{
closed = 1;
nodes = (
(243,620,l,{name = av01;}),
(98,620,l),
(98,132,ls),
(98,26,o),
(145,-21,o),
(241,-21,cs,{name = dv01;}),
(280,-21,o),
(311,-13,o),
(355,7,c),
(330,109,l),
(306,98,o),
(292,93,o),
(277,93,cs,{name = dv02;}),
(254,93,o),
(243,105,o),
(243,169,cs)
);
}
);
width = 365;
}
);
leftKerningGroup = f;
rightKerningGroup = l;
unicode = 116;
},
{
glyphname = k;
layers = (
{
anchors = (
{
name = bottom;
position = "{297, -20}";
},
{
name = top;
position = "{142, 750}";
}
);
layerId = "147DC1DB-E812-4101-979E-17422C2E6004";
shapes = (
{
closed = 1;
nodes = (
(214,0,l,{name = ab02;}),
(214,750,l,{name = ab01;}),
(69,750,l),
(69,0,l,{name = sv03;})
);
},
{
closed = 1;
nodes = (
(326,317,l,{name = iv02;}),
(109,317,l),
(110,207,l),
(317,207,l,{name = iv01;}),
(409,0,l,{name = ab02;}),
(574,0,l),
(433,265,l),
(558,500,l,{name = av02;}),
(408,500,l)
);
}
);
width = 594;
}
);
leftKerningGroup = b;
rightKerningGroup = k;
unicode = 107;
},
{
glyphname = a;
layers = (
{
anchors = (
{
name = top;
position = "{322, 520}";
},
{
name = bottom;
position = "{322, -20}";
},
{
name = ogonek;
position = "{567, -1}";
}
);
layerId = "147DC1DB-E812-4101-979E-17422C2E6004";
shapes = (
{
closed = 1;
nodes = (
(427,0,l,{name = ab01;}),
(572,0,l),
(572,500,l,{name = av01;}),
(427,500,l)
);
},
{
closed = 1;
nodes = (
(459,423,o),
(389,520,o),
(261,520,cs,{name = at01;}),
(126,520,o),
(50,411,o),
(50,259,cs),
(50,99,o),
(135,-20,o),
(270,-20,cs,{name = dv01;}),
(394,-20,o),
(459,79,o),
(459,248,cs)
);
},
{
closed = 1;
nodes = (
(195,353.824,o),
(238,410,o),
(308,410,cs,{name = sv01;}),
(382,410,o),
(427,348.809,o),
(427,250.502,cs),
(427,153.197,o),
(383,90,o),
(311,90,cs,{name = dv02;}),
(240,90,o),
(195,152.194,o),
(195,254.514,cs)
);
}
);
width = 645;
}
);
leftKerningGroup = a;
rightKerningGroup = a1;
unicode = 97;
},
{
glyphname = v;
layers = (
{
anchors = (
{
name = top;
position = "{275, 520}";
},
{
name = bottom;
position = "{275, -20}";
}
);
layerId = "147DC1DB-E812-4101-979E-17422C2E6004";
shapes = (
{
closed = 1;
nodes = (
(275,179,l),
(169,500,l),
(15,500,l),
(207,0,l),
(343,0,l),
(535,500,l),
(381,500,l)
);
}
);
width = 550;
}
);
leftKerningGroup = v;
rightKerningGroup = v1;
unicode = 118;
},
{
glyphname = w;
layers = (
{
anchors = (
{
name = top;
position = "{427, 520}";
},
{
name = bottom;
position = "{427, -20}";
}
);
layerId = "147DC1DB-E812-4101-979E-17422C2E6004";
shapes = (
{
closed = 1;
nodes = (
(648,0,l),
(830,500,l),
(676,500,l),
(580,179,l),
(487,500,l),
(367,500,l),
(274,179,l),
(178,500,l),
(24,500,l),
(206,0,l),
(332,0,l),
(427,341,l),
(522,0,l)
);
}
);
width = 854;
}
);
leftKerningGroup = v;
rightKerningGroup = v1;
unicode = 119;
},
{
glyphname = x;
layers = (
{
anchors = (
{
name = top;
position = "{287, 520}";
},
{
name = bottom;
position = "{287, -20}";
}
);
layerId = "147DC1DB-E812-4101-979E-17422C2E6004";
shapes = (
{
closed = 1;
nodes = (
(41,500,l,{name = av01;}),
(193.503,236.012,l),
(183.509,261.985,l),
(32,0,l,{name = ab01;}),
(189,0,l),
(287,184,l,{name = iv01;}),
(385,0,l,{name = ab02;}),
(544,0,l),
(392.491,261.985,l),
(382.497,236.012,l),
(535,500,l,{name = av02;}),
(376,500,l),
(270.949,302.761,l,{name = iv02;}),
(305.051,302.761,l),
(200,500,l)
);
}
);
width = 574;
}
);
leftKerningGroup = x;
rightKerningGroup = k;
unicode = 120;
},
{
glyphname = y;
layers = (
{
anchors = (
{
name = top;
position = "{313, 520}";
},
{
name = bottom;
position = "{553, -63}";
}
);
layerId = "147DC1DB-E812-4101-979E-17422C2E6004";
shapes = (
{
closed = 1;
nodes = (
(409,263,l,{name = iv01;}),
(409,162.342,o),
(370,110,o),
(300,110,cs,{name = sv01;}),
(234,110,o),
(209,155.116,o),
(209,270.411,cs),
(209,500,l,{name = av01;}),
(64,500,l),
(64,216,ls),
(64,83,o),
(132,0,o),
(256,0,cs,{name = ab01;}),
(352,0,o),
(400,50,o),
(421,131,c)
);
},
{
closed = 1;
nodes = (
(219,-110,o),
(169,-90.648,o),
(138,-55,c),
(60,-133,l),
(110,-190,o),
(189,-220,o),
(283,-220,cs,{name = at01;}),
(451,-220,o),
(553,-124,o),
(553,52,cs),
(553,500,l,{name = av01;}),
(409,500,l),
(409,64.286,ls),
(409,-59.918,o),
(357,-110,o),
(272,-110,cs,{name = sv01;})
);
}
);
width = 626;
}
);
leftKerningGroup = u;
rightKerningGroup = y;
unicode = 121;
},
{
glyphname = z;
layers = (
{
anchors = (
{
name = top;
position = "{241, 520}";
},
{
name = bottom;
position = "{241, -20}";
}
);
layerId = "147DC1DB-E812-4101-979E-17422C2E6004";
shapes = (
{
closed = 1;
nodes = (
(28,0,l,{name = ab01;}),
(455,0,l),
(455,110,l,{name = sv01;}),
(226,110,l),
(455,414,l),
(455,500,l),
(48,500,l,{name = dv02;}),
(48,390,l,{name = dv01;}),
(257,390,l),
(28,86,l)
);
}
);
width = 483;
}
);
leftKerningGroup = z1;
rightKerningGroup = z;
unicode = 122;
},
{
glyphname = E;
layers = (
{
anchors = (
{
name = top;
position = "{275, 719}";
},
{
name = bottom;
position = "{286, -20}";
},
{
name = ogonek;
position = "{500, -2}";
},
{
name = topgr;
position = "{-40, 500}";
}
);
layerId = "147DC1DB-E812-4101-979E-17422C2E6004";
shapes = (
{
closed = 1;
nodes = (
(505,0,l,{name = ab01;}),
(505,120,l,{name = sv01;}),
(214,120,l),
(214,305,l,{name = dv01;}),
(465,305,l),
(465,425,l),
(214,425,l,{name = dv02;}),
(214,580,l,{name = sv02;}),
(490,580,l),
(490,700,l,{name = at01;}),
(68,700,l),
(68,0,l)
);
}
);
width = 550;
}
);
leftKerningGroup = B;
rightKerningGroup = E;
unicode = 69;
},
{
glyphname = g;
layers = (
{
anchors = (
{
name = bottom;
position = "{298, -220}";
},
{
name = top;
position = "{317, 520}";
}
);
layerId = "147DC1DB-E812-4101-979E-17422C2E6004";
shapes = (
{
closed = 1;
nodes = (
(448,423,o),
(381,520,o),
(256,520,cs,{name = at01;}),
(124,520,o),
(50,411,o),
(50,259,cs),
(50,99,o),
(133,-20,o),
(262,-20,cs,{name = dv01;}),
(386,-20,o),
(448,89,o),
(448,253,cs)
);
},
{
closed = 1;
nodes = (
(195,355.831,o),
(234.176,410,o),
(301.48,410,cs,{name = sv01;}),
(373.805,410,o),
(416,348.809,o),
(416,250.502,cs),
(416,153.197,o),
(374.81,90,o),
(304.493,90,cs,{name = dv02;}),
(235.181,90,o),
(195,151.191,o),
(195,254.514,cs)
);
},
{
closed = 1;
nodes = (
(227,-110,o),
(177,-90.648,o),
(146,-55,c),
(68,-133,l),
(118.101,-190,o),
(197.262,-220,o),
(291.452,-220,cs,{name = at01;}),
(459.793,-220,o),
(561,-124,o),
(561,52,cs),
(561,500,l,{name = av01;}),
(416,500,l),
(416,64.286,ls),
(416,-59.918,o),
(365,-110,o),
(280,-110,cs,{name = sv01;})
);
}
);
width = 634;
}
);
leftKerningGroup = a;
unicode = 103;
},
{
glyphname = D;
layers = (
{
anchors = (
{
name = top;
position = "{328, 719}";
},
{
name = bottom;
position = "{328, -20}";
}
);
layerId = "147DC1DB-E812-4101-979E-17422C2E6004";
shapes = (
{
closed = 1;
nodes = (
(213,120,l,{name = sv01;}),
(213,580,l,{name = sv02;}),
(327.661,580,ls),
(464.257,580,o),
(551,484,o),
(551,349,cs),
(551,209,o),
(458.274,120,o),
(327.661,120,cs)
);
},
{
closed = 1;
nodes = (
(68,0,l,{name = ab01;}),
(342,0,ls),
(555,0,o),
(699,141,o),
(699,350,cs),
(699,558,o),
(554,700,o),
(342,700,cs,{name = at01;}),
(68,700,l)
);
}
);
width = 742;
}
);
leftKerningGroup = B;
rightKerningGroup = C;
unicode = 68;
},
{
glyphname = F;
layers = (
{
anchors = (
{
name = top;
position = "{270, 719}";
},
{
name = bottom;
position = "{281, -20}";
}
);
layerId = "147DC1DB-E812-4101-979E-17422C2E6004";
shapes = (
{
closed = 1;
nodes = (
(214,0,l,{name = ab01;}),
(214,290,l,{name = dv01;}),
(454,290,l),
(454,410,l),
(214,410,l,{name = dv02;}),
(214,580,l,{name = sv01;}),
(494,580,l),
(494,700,l,{name = at01;}),
(68,700,l,{name = dh01;}),
(68,0,l)
);
}
);
width = 540;
}
);
leftKerningGroup = B;
rightKerningGroup = F;
unicode = 70;
},
{
glyphname = A;
layers = (
{
anchors = (
{
name = top;
position = "{328, 719}";
},
{
name = bottom;
position = "{328, -20}";
},
{
name = ogonek;
position = "{632, -1}";
},
{
name = topgr;
position = "{86, 500}";
}
);
layerId = "147DC1DB-E812-4101-979E-17422C2E6004";
shapes = (
{
closed = 1;
nodes = (
(183,119,l,{name = dv01;}),
(469,119,l),
(435,234,l,{name = dv03;}),
(217,234,l,{name = dv02;})
);
},
{
closed = 1;
nodes = (
(244,700,l),
(17,0,l),
(170,0,l),
(368,700,l)
);
},
{
closed = 1;
nodes = (
(287,700,l),
(485,0,l),
(638,0,l),
(411,700,l)
);
}
);
width = 655;
}
);
leftKerningGroup = A1;
rightKerningGroup = A;
unicode = 65;
},
{
glyphname = B;
layers = (
{
anchors = (
{
name = top;
position = "{308, 719}";
},
{
name = bottom;
position = "{328, -20}";
}
);
layerId = "147DC1DB-E812-4101-979E-17422C2E6004";
shapes = (
{
closed = 1;
nodes = (
(68,0,l,{name = ab01;}),
(356,0,ls),
(518,0,o),
(604,98,o),
(604,206,cs),
(604,329,o),
(494,372,o),
(365,372,c,{name = dv02;}),
(493,372,o),
(558,426,o),
(558,518,cs),
(558,614,o),
(487,700,o),
(316,700,cs,{name = at01;}),
(68,700,l)
);
},
{
closed = 1;
nodes = (
(310,310,ls,{name = dv01;}),
(421,310,o),
(458,287,o),
(458,217,cs),
(458,148,o),
(422,120,o),
(325,120,cs,{name = sv01;}),
(214,120,l),
(214,580,l,{name = sv02;}),
(288,580,ls),
(375,580,o),
(412,564,o),
(412,507,cs,{name = sv04;}),
(412,449,o),
(373,426,o),
(306,426,cs,{name = sv03;}),
(100,426,l),
(100,310,l)
);
}
);
width = 634;
}
);
leftKerningGroup = B;
rightKerningGroup = B1;
unicode = 66;
},
{
glyphname = H;
layers = (
{
anchors = (
{
name = bottom;
position = "{368, -20}";
},
{
name = top;
position = "{368, 719}";
},
{
name = topgr;
position = "{-40, 500}";
}
);
layerId = "147DC1DB-E812-4101-979E-17422C2E6004";
shapes = (
{
closed = 1;
nodes = (
(77,0,l,{name = ab01;}),
(222,0,l),
(222,310,l,{name = dv01;}),
(514,310,l),
(514,0,l,{name = ab02;}),
(659,0,l),
(659,700,l,{name = at01;}),
(514,700,l),
(514,430,l),
(222,430,l,{name = dv02;}),
(222,700,l,{name = at02;}),
(77,700,l)
);
}
);
width = 736;
}
);
leftKerningGroup = B;
rightKerningGroup = H;
unicode = 72;
},
{
glyphname = C;
layers = (
{
anchors = (
{
name = bottom;
position = "{406, -19}";
},
{
name = top;
position = "{386, 719}";
}
);
layerId = "147DC1DB-E812-4101-979E-17422C2E6004";
shapes = (
{
closed = 1;
nodes = (
(502,-20,o),
(583,22,o),
(658,106,c),
(573,191,l),
(525.244,135.549,o),
(468.533,104,o),
(389.934,104,cs,{name = dv02;}),
(255.619,104,o),
(181,199.639,o),
(181,355.423,cs),
(181,508.249,o),
(253.629,596,o),
(384.957,596,cs,{name = dv03;}),
(465.545,596,o),
(524.244,564.112,o),
(572,510,c),
(657,595,l),
(593,674,o),
(504,720,o),
(380,720,cs,{name = dv04;}),
(163,720,o),
(33,580,o),
(33,360,cs),
(33,130,o),
(175,-20,o),
(389,-20,cs,{name = dv01;})
);
}
);
width = 694;
}
);
leftKerningGroup = C1;
rightKerningGroup = C;
unicode = 67;
},
{
glyphname = G;
layers = (
{
anchors = (
{
name = top;
position = "{393, 719}";
},
{
name = bottom;
position = "{393, -20}";
}
);
layerId = "147DC1DB-E812-4101-979E-17422C2E6004";
shapes = (
{
closed = 1;
nodes = (
(607,261,l,{name = dv05;}),
(607,0,l),
(730,0,l),
(730,381,l,{name = dv06;}),
(351,381,l,{name = av02;}),
(351,261,l,{name = av03;})
);
},
{
closed = 1;
nodes = (
(176,720,o),
(43,597,o),
(43,344,cs),
(43,105,o),
(170,-20,o),
(366,-20,cs,{name = dv01;}),
(549,-20,o),
(641,90,o),
(641,221,c),
(612,316,l,{name = dv07;}),
(612,179.926,o),
(515.459,104,o),
(394.035,104,cs,{name = dv02;}),
(262.66,104,o),
(191,193.904,o),
(191,350.988,cs),
(191,508.072,o),
(262.639,596,o),
(397.957,596,cs,{name = dv03;}),
(480.541,596,o),
(540.241,564.112,o),
(588,510,c),
(673,595,l),
(609,674,o),
(510,720,o),
(383,720,cs,{name = dv04;})
);
}
);
width = 786;
}
);
leftKerningGroup = C1;
rightKerningGroup = G;
unicode = 71;
},
{
glyphname = L;
layers = (
{
anchors = (
{
name = top;
position = "{140, 719}";
},
{
name = bottom;
position = "{277, -20}";
}
);
layerId = "147DC1DB-E812-4101-979E-17422C2E6004";
shapes = (
{
closed = 1;
nodes = (
(68,0,l,{name = ab01;}),
(514,0,l),
(514,120,l,{name = sv01;}),
(214,120,l),
(214,700,l,{name = at01;}),
(68,700,l)
);
}
);
width = 554;
}
);
leftKerningGroup = B;
rightKerningGroup = L;
unicode = 76;
},
{
glyphname = I;
layers = (
{
anchors = (
{
name = top;
position = "{163, 719}";
},
{
name = bottom;
position = "{163, -20}";
},
{
name = ogonek;
position = "{231, -2}";
},
{
name = topgr;
position = "{-23, 500}";
}
);
layerId = "147DC1DB-E812-4101-979E-17422C2E6004";
shapes = (
{
closed = 1;
nodes = (
(90,0,l,{name = ab01;}),
(236,0,l),
(236,700,l,{name = at01;}),
(90,700,l)
);
}
);
width = 326;
}
);
leftKerningGroup = B;
rightKerningGroup = H;
unicode = 73;
},
{
glyphname = O;
layers = (
{
anchors = (
{
name = top;
position = "{398, 719}";
},
{
name = bottom;
position = "{398, -20}";
},
{
name = ogonek;
position = "{528, -1}";
},
{
name = topgr;
position = "{6, 500}";
}
);
layerId = "147DC1DB-E812-4101-979E-17422C2E6004";
shapes = (
{
closed = 1;
nodes = (
(278.156,104,o),
(191,189.952,o),
(191,352.964,cs),
(191,510.048,o),
(272.213,596,o),
(395.024,596,cs,{name = dv03;}),
(518.825,596,o),
(604,504.12,o),
(604,346.048,cs,{name = dv05;}),
(604,183.036,o),
(520.806,104,o),
(398.986,104,cs,{name = dv02;})
);
},
{
closed = 1;
nodes = (
(43,122,o),
(178,-20,o),
(397,-20,cs,{name = dv01;}),
(621,-20,o),
(752,124,o),
(752,350,cs,{name = dv06;}),
(752,567,o),
(616,720,o),
(398,720,cs,{name = dv04;}),
(180,720,o),
(43,570,o),
(43,350,cs)
);
}
);
width = 795;
}
);
leftKerningGroup = C1;
rightKerningGroup = C;
unicode = 79;
},
{
glyphname = N;
layers = (
{
anchors = (
{
name = top;
position = "{376, 719}";
},
{
name = bottom;
position = "{376, -20}";
}
);
layerId = "147DC1DB-E812-4101-979E-17422C2E6004";
shapes = (
{
closed = 1;
nodes = (
(223,0,l,{name = ab01;}),
(223,468,l,{name = iv01;}),
(539,0,l,{name = ab02;}),
(675,0,l),
(675,700,l,{name = at01;}),
(529,700,l),
(529,232,l,{name = iv02;}),
(213,700,l,{name = at02;}),
(77,700,l),
(77,0,l)
);
}
);
width = 752;
}
);
leftKerningGroup = B;
rightKerningGroup = H;
unicode = 78;
},
{
glyphname = Q;
layers = (
{
anchors = (
{
name = top;
position = "{398, 719}";
},
{
name = bottom;
position = "{398, -20}";
},
{
name = ogonek;
position = "{528, -1}";
}
);
layerId = "147DC1DB-E812-4101-979E-17422C2E6004";
shapes = (
{
closed = 1;
nodes = (
(278.156,104,o),
(191,189.952,o),
(191,352.964,cs),
(191,510.048,o),
(272.213,596,o),
(395.024,596,cs,{name = dv03;}),
(518.825,596,o),
(604,504.12,o),
(604,346.048,cs,{name = dv05;}),
(604,183.036,o),
(520.806,104,o),
(398.986,104,cs,{name = dv02;})
);
},
{
closed = 1;
nodes = (
(43,122,o),
(178,-20,o),
(397,-20,cs,{name = dv01;}),
(621,-20,o),
(752,124,o),
(752,350,cs,{name = dv06;}),
(752,567,o),
(616,720,o),
(398,720,cs,{name = dv04;}),
(180,720,o),
(43,570,o),
(43,350,cs)
);
},
{
closed = 1;
nodes = (
(350,-3,l,{name = ab02;}),
(350,-182,o),
(402,-222,o),
(644,-222,c),
(644,-102,l),
(502,-102,o),
(473,-90.81,o),
(473,-3,c,{name = ab01;})
);
}
);
width = 795;
}
);
leftKerningGroup = C1;
rightKerningGroup = C;
unicode = 81;
},
{
glyphname = J;
layers = (
{
anchors = (
{
name = bottom;
position = "{278, -20}";
},
{
name = top;
position = "{443, 719}";
}
);
layerId = "147DC1DB-E812-4101-979E-17422C2E6004";
shapes = (
{
closed = 1;
nodes = (
(26,122,l),
(93,25,o),
(171,-20,o),
(280,-20,cs,{name = dv01;}),
(430,-20,o),
(516,64,o),
(516,222,cs),
(516,700,l,{name = at01;}),
(370,700,l),
(370,239,ls),
(370,151,o),
(342,100,o),
(272,100,cs,{name = dv02;}),
(216,100,o),
(164,132,o),
(111,207,c)
);
}
);
width = 580;
}
);
leftKerningGroup = J;
rightKerningGroup = J1;
unicode = 74;
},
{
glyphname = T;
layers = (
{
anchors = (
{
name = top;
position = "{324, 719}";
},
{
name = bottom;
position = "{324, -20}";
}
);
layerId = "147DC1DB-E812-4101-979E-17422C2E6004";
shapes = (
{
closed = 1;
nodes = (
(21,700,l,{name = at01;}),
(21,580,l,{name = sv01;}),
(251,580,l),
(251,0,l,{name = ab01;}),
(397,0,l),
(397,580,l,{name = sv02;}),
(627,580,l,{name = sv03;}),
(627,700,l)
);
}
);
width = 648;
}
);
leftKerningGroup = T;
rightKerningGroup = T1;
unicode = 84;
},
{
glyphname = U;
layers = (
{
anchors = (
{
name = top;
position = "{338, 719}";
},
{
name = bottom;
position = "{338, -20}";
},
{
name = ogonek;
position = "{450, -1}";
}
);
layerId = "147DC1DB-E812-4101-979E-17422C2E6004";
shapes = (
{
closed = 1;
nodes = (
(60,700,l,{name = at01;}),
(60,262,ls),
(60,88,o),
(165,-20,o),
(336,-20,cs,{name = dv01;}),
(507,-20,o),
(615,89,o),
(615,262,cs),
(615,700,l,{name = at02;}),
(469,700,l),
(469,292,ls),
(469,157,o),
(430,100,o),
(337,100,cs,{name = dv02;}),
(245,100,o),
(206,156,o),
(206,292,cs),
(206,700,l)
);
}
);
width = 675;
}
);
leftKerningGroup = U;
rightKerningGroup = J1;
unicode = 85;
},
{
glyphname = P;
layers = (
{
anchors = (
{
name = top;
position = "{322, 719}";
},
{
name = bottom;
position = "{322, -20}";
}
);
layerId = "147DC1DB-E812-4101-979E-17422C2E6004";
shapes = (
{
closed = 1;
nodes = (
(214,0,l,{name = ab01;}),
(214,216,l,{name = dv01;}),
(334,216,ls),
(499,216,o),
(605,311,o),
(605,459,cs),
(605,606,o),
(500,700,o),
(334,700,cs,{name = at01;}),
(68,700,l),
(68,0,l)
);
},
{
closed = 1;
nodes = (
(214,336,l,{name = dv02;}),
(214,580,l,{name = sv01;}),
(299,580,ls),
(410,580,o),
(459,543,o),
(459,457,cs),
(459,372,o),
(411,336,o),
(299,336,cs)
);
}
);
width = 644;
}
);
leftKerningGroup = B;
rightKerningGroup = P;
unicode = 80;
},
{
glyphname = R;
layers = (
{
anchors = (
{
name = top;
position = "{324, 719}";
},
{
name = bottom;
position = "{324, -20}";
}
);
layerId = "147DC1DB-E812-4101-979E-17422C2E6004";
shapes = (
{
closed = 1;
nodes = (
(214,0,l,{name = ab01;}),
(214,580,l,{name = sv01;}),
(298,580,ls),
(415,580,o),
(463,548,o),
(463,472,cs),
(463,396,o),
(415,364,o),
(298,364,cs),
(100,364,l,{name = dv02;}),
(100,244,l,{name = dv01;}),
(348,244,ls),
(507,244,o),
(609,334,o),
(609,476,cs),
(609,615,o),
(511,700,o),
(348,700,cs,{name = at01;}),
(68,700,l),
(68,0,l)
);
},
{
closed = 1;
nodes = (
(326,281,l),
(469,0,l,{name = ab02;}),
(627,0,l),
(457,333,l)
);
}
);
width = 648;
}
);
leftKerningGroup = B;
rightKerningGroup = R;
unicode = 82;
},
{
glyphname = K;
layers = (
{
anchors = (
{
name = top;
position = "{335, 719}";
},
{
name = bottom;
position = "{335, -20}";
}
);
layerId = "147DC1DB-E812-4101-979E-17422C2E6004";
shapes = (
{
closed = 1;
nodes = (
(68,700,l),
(68,0,l),
(213,0,l),
(213,700,l)
);
},
{
closed = 1;
nodes = (
(337,421,l),
(111,421,l),
(100,299,l),
(325,299,l),
(484,0,l),
(653,0,l),
(441,367,l),
(649,700,l),
(498,700,l)
);
}
);
width = 670;
}
);
leftKerningGroup = B;
rightKerningGroup = K;
unicode = 75;
},
{
glyphname = V;
layers = (
{
anchors = (
{
name = top;
position = "{328, 719}";
},
{
name = bottom;
position = "{328, -20}";
}
);
layerId = "147DC1DB-E812-4101-979E-17422C2E6004";
shapes = (
{
closed = 1;
nodes = (
(411,0,l),
(638,700,l),
(485,700,l),
(287,0,l)
);
},
{
closed = 1;
nodes = (
(368,0,l),
(170,700,l),
(17,700,l),
(244,0,l)
);
}
);
width = 655;
}
);
leftKerningGroup = V1;
rightKerningGroup = V;
unicode = 86;
},
{
glyphname = W;
layers = (
{
anchors = (
{
name = top;
position = "{480, 719}";
},
{
name = bottom;
position = "{480, -20}";
}
);
layerId = "147DC1DB-E812-4101-979E-17422C2E6004";
shapes = (
{
closed = 1;
nodes = (
(213,0,l),
(329,0,l),
(164,700,l),
(12,700,l)
);
},
{
closed = 1;
nodes = (
(247,0,l),
(361,0,l),
(530,700,l),
(412,700,l)
);
},
{
closed = 1;
nodes = (
(600,0,l),
(714,0,l),
(549,700,l),
(429,700,l)
);
},
{
closed = 1;
nodes = (
(632,0,l),
(748,0,l),
(949,700,l),
(797,700,l)
);
}
);
width = 960;
}
);
leftKerningGroup = V1;
rightKerningGroup = V;
unicode = 87;
},
{
glyphname = Y;
layers = (
{
anchors = (
{
name = top;
position = "{331, 719}";
},
{
name = bottom;
position = "{331, -20}";
},
{
name = topgr;
position = "{-85, 500}";
}
);
layerId = "147DC1DB-E812-4101-979E-17422C2E6004";
shapes = (
{
closed = 1;
nodes = (
(258,0,l,{name = ab01;}),
(404,0,l),
(404,285,l,{name = iv04;}),
(644,700,l,{name = at01;}),
(476,700,l),
(331,427,l,{name = iv05;}),
(186,700,l,{name = at02;}),
(18,700,l),
(258,285,l,{name = iv01;})
);
}
);
width = 662;
}
);
leftKerningGroup = Y1;
rightKerningGroup = Y;
unicode = 89;
},
{
glyphname = Z;
layers = (
{
anchors = (
{
name = top;
position = "{307, 719}";
},
{
name = bottom;
position = "{297, -20}";
}
);
layerId = "147DC1DB-E812-4101-979E-17422C2E6004";
shapes = (
{
closed = 1;
nodes = (
(27,110,l),
(27,0,l,{name = ab01;}),
(567,0,l),
(567,120,l,{name = sv01;}),
(211,120,l),
(565,590,l),
(565,700,l,{name = at01;}),
(55,700,l),
(55,580,l,{name = sv02;}),
(381,580,l)
);
}
);
width = 594;
}
);
leftKerningGroup = Z1;
rightKerningGroup = Z;
unicode = 90;
},
{
glyphname = M;
layers = (
{
anchors = (
{
name = top;
position = "{454, 719}";
},
{
name = bottom;
position = "{454, -20}";
}
);
layerId = "147DC1DB-E812-4101-979E-17422C2E6004";
shapes = (
{
closed = 1;
nodes = (
(223,414,l,{name = iv01;}),
(416,0,l,{name = ab01;}),
(492,0,l),
(685,414,l,{name = iv02;}),
(685,0,l,{name = ab02;}),
(831,0,l),
(831,700,l,{name = at01;}),
(685,700,l),
(454,204,l,{name = iv03;}),
(223,700,l,{name = at02;}),
(77,700,l),
(77,0,l,{name = ab03;}),
(223,0,l)
);
}
);
width = 908;
}
);
leftKerningGroup = B;
rightKerningGroup = H;
unicode = 77;
},
{
glyphname = X;
layers = (
{
anchors = (
{
name = top;
position = "{324, 719}";
},
{
name = bottom;
position = "{324, -20}";
}
);
layerId = "147DC1DB-E812-4101-979E-17422C2E6004";
shapes = (
{
closed = 1;
nodes = (
(19,0,l),
(191,0,l),
(325,242,l),
(459,0,l),
(630,0,l),
(417,354,l),
(625,700,l),
(455,700,l),
(324,464,l),
(193,700,l),
(24,700,l),
(232,354,l)
);
}
);
width = 648;
}
);
leftKerningGroup = X;
rightKerningGroup = K;
unicode = 88;
},
{
glyphname = s;
layers = (
{
anchors = (
{
name = top;
position = "{253, 520}";
},
{
name = bottom;
position = "{253, -20}";
}
);
layerId = "147DC1DB-E812-4101-979E-17422C2E6004";
shapes = (
{
closed = 1;
nodes = (
(190,90,o),
(145,110.37,o),
(115,145,c),
(37,67,l),
(84,13,o),
(157,-20,o),
(247,-20,cs),
(370,-20,o),
(459,42.145,o),
(459,148.392,cs),
(459,222.564,o),
(413.033,261.775,o),
(280,298.741,cs),
(211.033,317.905,o),
(191,330.816,o),
(191,359.883,cs),
(191,388.951,o),
(211,410,o),
(251,410,cs),
(290,410,o),
(335,389.63,o),
(365,355,c),
(443,433,l),
(396,487,o),
(323,520,o),
(239,520,cs),
(120,520,o),
(46,453.846,o),
(46,363.636,cs),
(46,288.462,o),
(97.067,235.601,o),
(236,200.256,cs),
(294.067,185.484,o),
(314,173.193,o),
(314,144.126,cs),
(314,109.044,o),
(283,90,o),
(237,90,cs)
);
}
);
width = 507;
}
);
leftKerningGroup = s1;
rightKerningGroup = s;
unicode = 115;
},
{
glyphname = S;
layers = (
{
anchors = (
{
name = bottom;
position = "{310, -20}";
},
{
name = top;
position = "{286, 719}";
}
);
layerId = "147DC1DB-E812-4101-979E-17422C2E6004";
shapes = (
{
closed = 1;
nodes = (
(368,100,o),
(416,136.058,o),
(416,194.152,cs),
(416,243.231,o),
(381.104,261.752,o),
(297,279.289,cs),
(112.102,317.843,o),
(38,384.459,o),
(38,501.648,cs),
(38,634.863,o),
(134,720,o),
(289,720,cs),
(406,720,o),
(492,672,o),
(555,595,c),
(470,510,l),
(424.843,563.596,o),
(369.65,600,o),
(302.416,600,cs),
(225.147,600,o),
(183,557.932,o),
(183,500.84,cs),
(183,443.748,o),
(224.123,418.775,o),
(315.35,399.677,cs),
(496.844,361.683,o),
(561,303.522,o),
(561,195.347,cs),
(561,63.134,o),
(465,-20,o),
(303,-20,cs),
(180,-20,o),
(95,28,o),
(33,105,c),
(118,190,l),
(163,136.404,o),
(218,100,o),
(293,100,cs)
);
}
);
width = 600;
}
);
leftKerningGroup = S1;
rightKerningGroup = S;
unicode = 83;
},
{
glyphname = period;
layers = (
{
layerId = "147DC1DB-E812-4101-979E-17422C2E6004";
shapes = (
{
closed = 1;
nodes = (
(52,16,o),
(85,-20,o),
(131,-20,cs),
(176,-20,o),
(210,16,o),
(210,60,cs),
(210,104,o),
(176,138,o),
(131,138,cs),
(85,138,o),
(52,104,o),
(52,60,cs)
);
}
);
width = 262;
}
);
unicode = 46;
},
{
glyphname = comma;
layers = (
{
layerId = "147DC1DB-E812-4101-979E-17422C2E6004";
shapes = (
{
closed = 1;
nodes = (
(52,14,o),
(86,-20,o),
(130,-20,cs),
(145,-20,o),
(130,-20,o),
(145,-20,c),
(136,-62,o),
(104,-104,o),
(52,-139,c),
(61,-168,l),
(154,-115,o),
(210,-34,o),
(210,48,cs),
(210,106,o),
(176,138,o),
(131,138,cs),
(85,138,o),
(52,104,o),
(52,59,cs)
);
}
);
width = 262;
}
);
unicode = 44;
},
{
glyphname = parenleft;
layers = (
{
layerId = "147DC1DB-E812-4101-979E-17422C2E6004";
shapes = (
{
closed = 1;
nodes = (
(365,-152,l),
(264,-122,o),
(194,60,o),
(194,292,cs),
(194,516,o),
(262,683,o),
(365,714,c),
(365,777,l),
(170,741,o),
(50,564,o),
(50,310,cs),
(50,26,o),
(182,-194,o),
(365,-215,c)
);
}
);
width = 391;
}
);
unicode = 40;
},
{
glyphname = parenright;
layers = (
{
layerId = "147DC1DB-E812-4101-979E-17422C2E6004";
shapes = (
{
closed = 1;
nodes = (
(25,734,l),
(114,700,o),
(196,517,o),
(196,289,cs),
(196,60,o),
(113,-137,o),
(25,-172,c),
(25,-215,l),
(220,-177,o),
(341,17,o),
(341,291,cs),
(341,560,o),
(224,740,o),
(25,777,c)
);
}
);
width = 384;
}
);
unicode = 41;
},
{
glyphname = exclam;
layers = (
{
layerId = "147DC1DB-E812-4101-979E-17422C2E6004";
shapes = (
{
closed = 1;
nodes = (
(68,249,l),
(187,249,l),
(203,750,l),
(52,750,l)
);
},
{
alignment = -1;
pos = (9.391,-2.044);
ref = period;
scale = (0.898,0.898);
}
);
width = 255;
}
);
unicode = 33;
},
{
glyphname = bar;
layers = (
{
layerId = "147DC1DB-E812-4101-979E-17422C2E6004";
shapes = (
{
closed = 1;
nodes = (
(40,-131,l),
(78,-131,l),
(78,750,l),
(40,750,l)
);
}
);
width = 118;
}
);
unicode = 124;
},
{
glyphname = braceright;
layers = (
{
layerId = "147DC1DB-E812-4101-979E-17422C2E6004";
shapes = (
{
closed = 1;
nodes = (
(344,299,l),
(272.327,310,o),
(234.5,372,o),
(234.5,422,cs),
(234.5,604.027,ls),
(234.5,700.154,o),
(188.374,803.439,o),
(52,874,c),
(39,841,l),
(100.608,809.229,o),
(117.5,732.363,o),
(117.5,609.378,cs),
(117.5,429,ls),
(117.5,365,o),
(129.557,315,o),
(224,289,c),
(126.542,261,o),
(117.5,203,o),
(117.5,139,cs),
(117.5,-82.978,ls),
(117.5,-202.279,o),
(100.608,-272.686,o),
(39,-303,c),
(52,-336,l),
(188.374,-268.35,o),
(234.5,-174.229,o),
(234.5,-75.205,cs),
(234.5,165,ls),
(234.5,236,o),
(292.236,272,o),
(344,282,c)
);
}
);
width = 366;
}
);
unicode = 125;
},
{
glyphname = hyphen;
layers = (
{
layerId = "147DC1DB-E812-4101-979E-17422C2E6004";
shapes = (
{
closed = 1;
nodes = (
(50,256,l),
(339.923,256,l),
(339.923,302,l),
(50,302,l)
);
}
);
width = 390;
}
);
unicode = 45;
},
{
glyphname = endash;
layers = (
{
layerId = "147DC1DB-E812-4101-979E-17422C2E6004";
shapes = (
{
closed = 1;
nodes = (
(50,262,l),
(505,262,l),
(505,296,l),
(50,296,l)
);
}
);
width = 555;
}
);
unicode = 8211;
},
{
glyphname = emdash;
layers = (
{
layerId = "147DC1DB-E812-4101-979E-17422C2E6004";
shapes = (
{
closed = 1;
nodes = (
(50,262,l),
(864,262,l),
(864,296,l),
(50,296,l)
);
}
);
width = 914;
}
);
unicode = 8212;
},
{
glyphname = slash;
layers = (
{
layerId = "147DC1DB-E812-4101-979E-17422C2E6004";
shapes = (
{
closed = 1;
nodes = (
(-40,0,l),
(-10,0,l),
(362,700,l),
(332,700,l)
);
}
);
width = 315;
}
);
unicode = 47;
},
{
glyphname = greater;
layers = (
{
layerId = "147DC1DB-E812-4101-979E-17422C2E6004";
shapes = (
{
closed = 1;
nodes = (
(50,6,l),
(509,239,l),
(509,287,l),
(50,510,l),
(50,490,l),
(461,263,l),
(50,26,l)
);
}
);
width = 573;
}
);
unicode = 62;
},
{
glyphname = less;
layers = (
{
layerId = "147DC1DB-E812-4101-979E-17422C2E6004";
shapes = (
{
closed = 1;
nodes = (
(509,6,l),
(509,26,l),
(98,263,l),
(509,490,l),
(509,510,l),
(50,287,l),
(50,239,l)
);
}
);
width = 544;
}
);
unicode = 60;
},
{
glyphname = cent;
layers = (
{
layerId = "147DC1DB-E812-4101-979E-17422C2E6004";
shapes = (
{
closed = 1;
nodes = (
(337,610,l),
(337,730,l),
(287,730,l),
(287,610,l)
);
},
{
closed = 1;
nodes = (
(288,89,l),
(288,-31,l),
(336,-31,l),
(336,90,l)
);
},
{
alignment = -1;
pos = (0,100);
ref = c;
}
);
width = 563;
}
);
unicode = 162;
},
{
glyphname = Euro;
layers = (
{
layerId = "147DC1DB-E812-4101-979E-17422C2E6004";
shapes = (
{
closed = 1;
nodes = (
(249,720,o),
(116,606,o),
(90,424,c),
(25,424,l),
(18,374,l),
(515,374,l),
(522,424,l),
(239,424,l),
(242,532,o),
(324,599,o),
(428,599,cs),
(505,599,o),
(577,565,o),
(616,514,c),
(701,599,l),
(633,683,o),
(548,720,o),
(425,720,cs)
);
},
{
closed = 1;
nodes = (
(331,100,o),
(242,173,o),
(238,280,c),
(498,280,l),
(505,330,l),
(22,330,l),
(15,280,l),
(89,280,l),
(114,97,o),
(252,-20,o),
(431,-20,cs),
(568,-20,o),
(635,23,o),
(706,102,c),
(621,187,l),
(576,129,o),
(501,100,o),
(436,100,cs)
);
}
);
width = 730;
}
);
unicode = 8364;
},
{
glyphname = infinity;
layers = (
{
layerId = "147DC1DB-E812-4101-979E-17422C2E6004";
shapes = (
{
closed = 1;
nodes = (
(78,473,o),
(27,402,o),
(27,330,cs),
(27,241,o),
(92,214,o),
(153,214,cs),
(238,214,o),
(301,266,o),
(328,297,c),
(264,259,o),
(213,234,o),
(153,234,cs),
(96,234,o),
(47,266,o),
(47,326,cs),
(47,389,o),
(86,425,o),
(157,425,cs),
(197,425,o),
(256,384,o),
(316,339,cs),
(443,245,o),
(501,213,o),
(559,213,cs),
(643,213,o),
(694,284,o),
(694,356,cs),
(694,446,o),
(629,473,o),
(568,473,cs),
(483,473,o),
(420,421,o),
(393,390,c),
(457,428,o),
(508,453,o),
(568,453,cs),
(625,453,o),
(674,421,o),
(674,360,cs),
(674,297,o),
(635,261,o),
(564,261,cs),
(503,261,o),
(431,311,o),
(361,365,cs),
(290,420,o),
(220,473,o),
(154,473,cs)
);
}
);
width = 719;
}
);
unicode = 8734;
},
{
glyphname = Delta;
layers = (
{
layerId = "147DC1DB-E812-4101-979E-17422C2E6004";
shapes = (
{
closed = 1;
nodes = (
(153,0,l,{name = dv01;}),
(539.893,0,l),
(505.893,120,l,{name = dv03;}),
(187,120,l,{name = dv02;})
);
},
{
closed = 1;
nodes = (
(244,700,l),
(17,0,l),
(170,0,l),
(371,700,l)
);
},
{
closed = 1;
nodes = (
(284,700,l),
(485,0,l),
(638,0,l),
(411,700,l)
);
}
);
width = 655;
}
);
leftKerningGroup = A1;
rightKerningGroup = A;
unicode = 916;
},
{
glyphname = Ohm;
layers = (
{
anchors = (
{
name = topgr;
position = "{-10, 500}";
}
);
layerId = "147DC1DB-E812-4101-979E-17422C2E6004";
shapes = (
{
closed = 1;
nodes = (
(61,0,l),
(360,0,l),
(360,120,l),
(249,170.098,o),
(188,260.949,o),
(188,378.025,cs),
(188,509.149,o),
(266,600,o),
(395,600,cs),
(527,600,o),
(612,505.446,o),
(612,378.126,cs),
(612,265.785,o),
(553,173.104,o),
(439,120,c),
(439,0,l),
(738,0,l),
(738,120,l),
(590,120,l),
(692,161.068,o),
(757,272.254,o),
(757,397.462,cs),
(757,586.778,o),
(609,720,o),
(400,720,cs),
(189,720,o),
(43,584.775,o),
(43,393.456,cs),
(43,267.245,o),
(106,161.068,o),
(209,120,c),
(61,120,l)
);
}
);
width = 800;
}
);
leftKerningGroup = C1;
rightKerningGroup = C;
unicode = 8486;
},
{
glyphname = product;
layers = (
{
layerId = "147DC1DB-E812-4101-979E-17422C2E6004";
shapes = (
{
closed = 1;
nodes = (
(222.5,-125.366,l),
(222.5,580,l),
(544,580,l),
(544,-125.366,l),
(689,-125.366,l),
(689,700,l),
(77.5,700,l),
(77.5,-125.366,l)
);
}
);
width = 766;
}
);
unicode = 8719;
},
{
glyphname = guilsinglleft;
layers = (
{
layerId = "147DC1DB-E812-4101-979E-17422C2E6004";
shapes = (
{
closed = 1;
nodes = (
(275,20,l),
(97,254,l),
(97,266,l),
(275,500,l),
(265,518,l),
(50,284,l),
(50,236,l),
(265,2,l)
);
}
);
width = 305;
}
);
unicode = 8249;
},
{
glyphname = guilsinglright;
layers = (
{
layerId = "147DC1DB-E812-4101-979E-17422C2E6004";
shapes = (
{
closed = 1;
nodes = (
(30,20,l),
(40,2,l),
(255,236,l),
(255,284,l),
(40,518,l),
(30,500,l),
(208,266,l),
(208,254,l)
);
}
);
width = 305;
}
);
unicode = 8250;
},
{
glyphname = estimated;
layers = (
{
layerId = "147DC1DB-E812-4101-979E-17422C2E6004";
shapes = (
{
closed = 1;
nodes = (
(174,363,l),
(794,363,l),
(794,585,o),
(643,732,o),
(425,732,cs),
(207,732,o),
(57,585,o),
(57,363,cs),
(57,141,o),
(205,-6,o),
(425,-6,cs),
(512,-6,o),
(588,17,o),
(648,59,c),
(636,125,l),
(580,87,o),
(505,64,o),
(422,64,cs),
(303,64,o),
(235,111,o),
(174,193,c)
);
},
{
closed = 1;
nodes = (
(681,433,l),
(175,433,l),
(175,540,l),
(237,618,o),
(308,662,o),
(424,662,cs),
(545,662,o),
(620,614,o),
(681,532,c)
);
}
);
width = 850;
}
);
unicode = 8494;
},
{
glyphname = underscore;
layers = (
{
layerId = "147DC1DB-E812-4101-979E-17422C2E6004";
shapes = (
{
closed = 1;
nodes = (
(0,-63,l),
(500,-63,l),
(500,-27,l),
(0,-27,l)
);
}
);
width = 500;
}
);
unicode = 95;
},
{
glyphname = guillemotleft;
layers = (
{
layerId = "147DC1DB-E812-4101-979E-17422C2E6004";
shapes = (
{
closed = 1;
nodes = (
(267,27,l),
(79,255,l),
(268,496,l),
(254,510,l),
(32,280,l),
(32,232,l),
(253,13,l)
);
},
{
closed = 1;
nodes = (
(470,27,l),
(282,255,l),
(471,496,l),
(457,510,l),
(235,280,l),
(235,232,l),
(456,13,l)
);
}
);
width = 489;
}
);
unicode = 171;
},
{
glyphname = guillemotright;
layers = (
{
layerId = "147DC1DB-E812-4101-979E-17422C2E6004";
shapes = (
{
closed = 1;
nodes = (
(230,27,l),
(244,13,l),
(465,232,l),
(465,280,l),
(243,510,l),
(229,496,l),
(418,255,l)
);
},
{
closed = 1;
nodes = (
(27,27,l),
(41,13,l),
(262,232,l),
(262,280,l),
(40,510,l),
(26,496,l),
(215,255,l)
);
}
);
width = 494;
}
);
unicode = 187;
},
{
glyphname = commaaccentcomb;
layers = (
{
anchors = (
{
name = bottom;
position = "{123, -248}";
},
{
name = _bottom;
position = "{123, 0}";
}
);
layerId = "147DC1DB-E812-4101-979E-17422C2E6004";
shapes = (
{
closed = 1;
nodes = (
(63,-151,o),
(88,-173,o),
(119,-173,cs),
(135,-173,o),
(148,-167,o),
(151,-163,c),
(148,-198,o),
(116,-234,o),
(71,-255,c),
(84,-277,l),
(141,-260,o),
(183,-204,o),
(183,-141,cs),
(183,-95,o),
(161,-67,o),
(121,-67,cs),
(86,-67,o),
(63,-88,o),
(63,-119,cs)
);
}
);
width = 246;
}
);
unicode = 806;
},
{
glyphname = quotesinglbase;
layers = (
{
layerId = "147DC1DB-E812-4101-979E-17422C2E6004";
shapes = (
{
closed = 1;
nodes = (
(76,18,o),
(109,-20,o),
(154,-20,cs),
(164,-20,o),
(174,-18,o),
(187,-13,c),
(180,-58,o),
(138,-113,o),
(92,-141,c),
(101,-153,l),
(183,-114,o),
(234,-33,o),
(234,42,cs),
(234,104,o),
(200,138,o),
(155,138,cs),
(109,138,o),
(76,104,o),
(76,61,cs)
);
}
);
width = 308;
}
);
unicode = 8218;
},
{
glyphname = equal;
layers = (
{
layerId = "147DC1DB-E812-4101-979E-17422C2E6004";
shapes = (
{
closed = 1;
nodes = (
(50,137,l),
(464,137,l),
(464,173,l),
(50,173,l)
);
},
{
closed = 1;
nodes = (
(50,393,l),
(50,357,l),
(464,357,l),
(464,393,l)
);
}
);
width = 514;
}
);
unicode = 61;
},
{
glyphname = notequal;
layers = (
{
layerId = "147DC1DB-E812-4101-979E-17422C2E6004";
shapes = (
{
closed = 1;
nodes = (
(135,44,l),
(183,44,l),
(230,140,l),
(469,140,l),
(469,160,l),
(239,160,l),
(341,370,l),
(469,370,l),
(469,390,l),
(351,390,l),
(388,466,l),
(340,466,l),
(303,390,l),
(55,390,l),
(55,370,l),
(293,370,l),
(191,160,l),
(55,160,l),
(55,140,l),
(182,140,l)
);
}
);
width = 523;
}
);
unicode = 8800;
},
{
glyphname = brokenbar;
layers = (
{
layerId = "147DC1DB-E812-4101-979E-17422C2E6004";
shapes = (
{
closed = 1;
nodes = (
(51,341,l),
(89,341,l),
(89,751,l),
(51,751,l)
);
},
{
closed = 1;
nodes = (
(51,155,l),
(51,-254,l),
(89,-254,l),
(89,155,l)
);
}
);
width = 140;
}
);
unicode = 166;
},
{
glyphname = micro;
layers = (
{
anchors = (
{
name = topgr;
position = "{300, 520}";
}
);
layerId = "147DC1DB-E812-4101-979E-17422C2E6004";
shapes = (
{
closed = 1;
nodes = (
(66,-200,l),
(211,-200,l),
(211,500,l),
(66,500,l)
);
},
{
closed = 1;
nodes = (
(398,213,l),
(382,283,l),
(382,159.359,o),
(346,90,o),
(281,90,cs),
(233,90,o),
(211,128.093,o),
(211,212.298,cs),
(211,500,l),
(66,500,l),
(66,196,ls),
(66,51,o),
(124,-20,o),
(232,-20,cs),
(322,-20,o),
(373,30,o),
(400,130,c)
);
},
{
closed = 1;
nodes = (
(527,500,l),
(382,500,l),
(382,0,l),
(527,0,l)
);
}
);
width = 600;
}
);
leftKerningGroup = i;
rightKerningGroup = a1;
},
{
glyphname = bracketleft;
layers = (
{
layerId = "147DC1DB-E812-4101-979E-17422C2E6004";
shapes = (
{
closed = 1;
nodes = (
(377,778,l),
(77,778,l),
(77,-217,l),
(377,-217,l),
(377,-127,l),
(212,-127,l),
(212,688,l),
(377,688,l)
);
}
);
width = 420;
}
);
unicode = 91;
},
{
glyphname = bracketright;
layers = (
{
layerId = "147DC1DB-E812-4101-979E-17422C2E6004";
shapes = (
{
closed = 1;
nodes = (
(45,778,l),
(45,688,l),
(209,688,l),
(209,-127,l),
(45,-127,l),
(45,-217,l),
(346,-217,l),
(346,778,l)
);
}
);
width = 418;
}
);
unicode = 93;
},
{
glyphname = minus;
layers = (
{
layerId = "147DC1DB-E812-4101-979E-17422C2E6004";
shapes = (
{
closed = 1;
nodes = (
(50,323,l),
(516,323,l),
(516,357,l),
(50,357,l)
);
}
);
width = 566;
}
);
unicode = 8722;
},
{
glyphname = daggerdbl;
layers = (
{
layerId = "147DC1DB-E812-4101-979E-17422C2E6004";
shapes = (
{
closed = 1;
nodes = (
(284,-222,l),
(420,-222,l),
(412,5,l),
(650,-9,l),
(650,86,l),
(410,72,l),
(385,237,l),
(410,402,l),
(650,388,l),
(650,483,l),
(412,469,l),
(420,696,l),
(284,696,l),
(293,469,l),
(50,483,l),
(50,388,l),
(295,402,l),
(320,237,l),
(295,72,l),
(50,86,l),
(50,-9,l),
(293,5,l)
);
}
);
width = 722;
}
);
unicode = 8225;
},
{
glyphname = multiply;
layers = (
{
layerId = "147DC1DB-E812-4101-979E-17422C2E6004";
shapes = (
{
closed = 1;
nodes = (
(386,110,l),
(411,135,l),
(65,482,l),
(40,457,l)
);
},
{
closed = 1;
nodes = (
(65,110,l),
(411,457,l),
(386,482,l),
(40,135,l)
);
}
);
width = 452;
}
);
unicode = 215;
},
{
glyphname = dagger;
layers = (
{
layerId = "147DC1DB-E812-4101-979E-17422C2E6004";
shapes = (
{
closed = 1;
nodes = (
(379,-104,l),
(408,391,l),
(650,378,l),
(650,493,l),
(410,480,l),
(415,696,l),
(290,696,l),
(294,479,l),
(50,493,l),
(50,378,l),
(296,391,l),
(325,-104,l)
);
}
);
width = 701;
}
);
unicode = 8224;
},
{
glyphname = plus;
layers = (
{
layerId = "147DC1DB-E812-4101-979E-17422C2E6004";
shapes = (
{
closed = 1;
nodes = (
(260,262,l),
(260,55,l),
(296,55,l),
(296,262,l),
(516,262,l),
(516,298,l),
(296,298,l),
(296,505,l),
(260,505,l),
(260,298,l),
(50,298,l),
(50,262,l)
);
}
);
width = 566;
}
);
unicode = 43;
},
{
glyphname = florin;
layers = (
{
layerId = "147DC1DB-E812-4101-979E-17422C2E6004";
shapes = (
{
closed = 1;
nodes = (
(217,719,o),
(144,629,o),
(144,365,cs),
(144,172,o),
(105,94,o),
(40,94,cs),
(21,94,o),
(-14,101,o),
(-71,120,c),
(-90,6,l),
(-28,-11,o),
(8,-17,o),
(51,-17,cs),
(221,-17,o),
(289,79,o),
(289,378,cs),
(289,563,o),
(319,608,o),
(393,608,cs),
(430,608,o),
(469,597,o),
(513,579,c),
(534,696,l),
(472,713,o),
(436,719,o),
(391,719,cs)
);
},
{
closed = 1;
nodes = (
(19,490,l),
(19,380,l),
(485,380,l),
(485,490,l)
);
}
);
width = 533;
}
);
unicode = 402;
},
{
glyphname = integral;
layers = (
{
layerId = "147DC1DB-E812-4101-979E-17422C2E6004";
shapes = (
{
closed = 1;
nodes = (
(149,91,ls),
(147.167,15.996,o),
(122,-43,o),
(61,-43,cs),
(38,-43,o),
(-15,-35,o),
(-68,2,c),
(-105,-112,l),
(-56,-143,o),
(9,-163,o),
(86,-163,cs),
(228,-163,o),
(280.798,-95.972,o),
(285,56,cs),
(297,490,ls),
(299.378,575.99,o),
(322,640,o),
(398,640,cs),
(414,640,o),
(471,637,o),
(524,594,c),
(557,709,l),
(516,742,o),
(442,760,o),
(370,760,cs),
(232,760,o),
(163.764,694.983,o),
(160,541,cs)
);
}
);
width = 452;
}
);
unicode = 8747;
},
{
glyphname = one;
layers = (
{
layerId = "147DC1DB-E812-4101-979E-17422C2E6004";
shapes = (
{
closed = 1;
nodes = (
(19,392,l),
(147,423,o),
(181,453,o),
(233,507,c),
(233,0,l),
(379,0,l),
(379,700,l),
(256,700,l),
(199,608,o),
(125,535,o),
(19,515,c)
);
}
);
width = 456;
}
);
unicode = 49;
},
{
glyphname = two;
layers = (
{
layerId = "147DC1DB-E812-4101-979E-17422C2E6004";
shapes = (
{
closed = 1;
nodes = (
(379,600,o),
(417,557,o),
(417,484,cs),
(417,370,o),
(325,277,o),
(67,221,c),
(67,101,l),
(445,191,o),
(562,304,o),
(562,473,cs),
(562,631,o),
(460,720,o),
(312,720,cs),
(219,720,o),
(131,685,o),
(83,637,c),
(171,549,l),
(208,581,o),
(252,600,o),
(303,600,cs)
);
},
{
closed = 1;
nodes = (
(67,120,l),
(67,0,l),
(567,0,l),
(567,120,l)
);
}
);
width = 632;
}
);
unicode = 50;
},
{
glyphname = quotesingle;
layers = (
{
layerId = "147DC1DB-E812-4101-979E-17422C2E6004";
shapes = (
{
closed = 1;
nodes = (
(53,556,l),
(151,556,l),
(166,803,l),
(38,803,l)
);
}
);
width = 204;
}
);
unicode = 39;
},
{
glyphname = quotedbl;
layers = (
{
layerId = "147DC1DB-E812-4101-979E-17422C2E6004";
shapes = (
{
closed = 1;
nodes = (
(51,556,l),
(149,556,l),
(164,803,l),
(36,803,l)
);
},
{
closed = 1;
nodes = (
(260,556,l),
(358,556,l),
(373,803,l),
(245,803,l)
);
}
);
width = 409;
}
);
unicode = 34;
},
{
glyphname = logicalnot;
layers = (
{
layerId = "147DC1DB-E812-4101-979E-17422C2E6004";
shapes = (
{
closed = 1;
nodes = (
(50,292,l),
(435,292,l),
(435,93,l),
(483,93,l),
(483,322,l),
(50,322,l)
);
}
);
width = 553;
}
);
unicode = 172;
},
{
glyphname = pi;
layers = (
{
anchors = (
{
name = topgr;
position = "{322, 520}";
}
);
layerId = "147DC1DB-E812-4101-979E-17422C2E6004";
shapes = (
{
closed = 1;
nodes = (
(393,165.073,ls),
(393,34.181,o),
(436.898,0,o),
(605,0,c),
(605,110,l),
(555,110,o),
(538,124.933,o),
(538,169.733,cs),
(538,390,l),
(606,390,l),
(606,500,l),
(29,500,l),
(29,390,l),
(95,390,l),
(95,0,l),
(240,0,l),
(240,390,l),
(393,390,l)
);
}
);
width = 645;
}
);
leftKerningGroup = i;
unicode = 960;
},
{
glyphname = three;
layers = (
{
layerId = "147DC1DB-E812-4101-979E-17422C2E6004";
shapes = (
{
closed = 1;
nodes = (
(24,84,l),
(87,17,o),
(173,-19,o),
(289,-19,cs),
(447,-19,o),
(543,48,o),
(543,180,cs),
(543,312,o),
(448,382,o),
(192,362,c),
(192,292,l),
(329,292,o),
(398,258,o),
(398,190,cs),
(398,131,o),
(347,101,o),
(271,101,cs),
(205,101,o),
(158,123,o),
(112,172,c)
);
},
{
closed = 1;
nodes = (
(520,644,o),
(424,720,o),
(283,720,cs),
(188,720,o),
(96,685,o),
(48,637,c),
(136,549,l),
(173,581,o),
(224,600,o),
(273,600,cs),
(332,600,o),
(375,573,o),
(375,521,cs),
(375,465,o),
(324,426,o),
(192,426,c),
(192,356,l),
(414,336,o),
(520,414,o),
(520,533,cs)
);
}
);
width = 578;
}
);
unicode = 51;
},
{
glyphname = zero;
layers = (
{
layerId = "147DC1DB-E812-4101-979E-17422C2E6004";
shapes = (
{
closed = 1;
nodes = (
(39.5,115,o),
(137.321,-19,o),
(315.995,-19,cs),
(492.673,-19,o),
(587.5,107,o),
(587.5,350,cs),
(587.5,592,o),
(493.671,720,o),
(319.988,720,cs),
(140.316,720,o),
(39.5,588,o),
(39.5,350,cs)
);
},
{
closed = 1;
nodes = (
(184.5,520,o),
(234.695,600,o),
(317.014,600,cs),
(396.321,600,o),
(442.5,522,o),
(442.5,351,cs),
(442.5,179,o),
(395.317,101,o),
(314.002,101,cs),
(232.687,101,o),
(184.5,184,o),
(184.5,350,cs)
);
}
);
width = 627;
}
);
unicode = 48;
},
{
glyphname = four;
layers = (
{
layerId = "147DC1DB-E812-4101-979E-17422C2E6004";
shapes = (
{
closed = 1;
nodes = (
(26,151,l),
(376,151,l),
(376,0,l),
(522,0,l),
(522,151,l),
(654,151,l),
(654,272,l),
(522,272,l),
(522,700,l),
(352,700,l),
(26,217,l)
);
},
{
closed = 1;
nodes = (
(209,272,l),
(376,520,l),
(376,272,l)
);
}
);
width = 685;
}
);
unicode = 52;
},
{
glyphname = five;
layers = (
{
layerId = "147DC1DB-E812-4101-979E-17422C2E6004";
shapes = (
{
closed = 1;
nodes = (
(227,580,l),
(538,580,l),
(538,700,l),
(118,700,l),
(51.409,265.892,l),
(136.521,320.892,o),
(221.231,345,o),
(303.34,345,cs),
(379.44,345,o),
(424.5,305,o),
(424.5,232,cs),
(424.5,151,o),
(368.41,100,o),
(280.269,100,cs),
(213.162,100,o),
(156.071,130,o),
(112,187,c),
(27,102,l),
(105.927,14,o),
(186.853,-20,o),
(287.76,-20,cs),
(457.603,-20,o),
(569.5,75.402,o),
(569.5,232.061,cs),
(569.5,370.645,o),
(482.618,455,o),
(341.81,455,cs),
(281.891,455,o),
(237.951,439.118,o),
(202,419,c)
);
}
);
width = 615;
}
);
unicode = 53;
},
{
glyphname = six;
layers = (
{
layerId = "147DC1DB-E812-4101-979E-17422C2E6004";
shapes = (
{
closed = 1;
nodes = (
(397.855,600,o),
(448.855,581,o),
(485.855,549,c),
(573.855,637,l),
(525.855,685,o),
(435,720,o),
(340,720,cs),
(144,720,o),
(28,581,o),
(28,330,cs),
(28,100,o),
(130,-20,o),
(316,-20,cs),
(490,-20,o),
(599,85.778,o),
(599,235.464,cs),
(599,373.176,o),
(502,457,o),
(357,457,cs),
(265.956,457,o),
(180.54,414.853,o),
(150.195,354.956,c),
(161.505,340.913,l),
(153.562,509.06,o),
(235.404,600,o),
(339.785,600,cs)
);
},
{
closed = 1;
nodes = (
(186,299,o),
(238,347,o),
(325,347,cs),
(406,347,o),
(454,305,o),
(454,227,cs),
(454,149,o),
(405,100,o),
(316,100,cs),
(235,100,o),
(186,140,o),
(186,218,cs)
);
}
);
width = 631;
}
);
unicode = 54;
},
{
glyphname = seven;
layers = (
{
layerId = "147DC1DB-E812-4101-979E-17422C2E6004";
shapes = (
{
closed = 1;
nodes = (
(120,0,l),
(277,0,l),
(540,620,l),
(540,700,l),
(34,700,l),
(34,580,l),
(366,580,l)
);
}
);
width = 565;
}
);
unicode = 55;
},
{
glyphname = eight;
layers = (
{
layerId = "147DC1DB-E812-4101-979E-17422C2E6004";
shapes = (
{
closed = 1;
nodes = (
(469.697,-20,o),
(578.5,53,o),
(578.5,183,cs),
(578.5,285,o),
(512.681,351,o),
(397,370,c),
(491.69,390,o),
(549.5,453,o),
(549.5,534,cs),
(549.5,647,o),
(442.5,720,o),
(301.5,720,cs),
(162.5,720,o),
(53.5,650,o),
(53.5,539,cs),
(53.5,453,o),
(114.692,391,o),
(213,370,c),
(96.313,351,o),
(26.5,282,o),
(26.5,182,cs),
(26.5,54,o),
(140.294,-20,o),
(305.994,-20,cs)
);
},
{
closed = 1;
nodes = (
(168.5,269.797,o),
(220.695,313,o),
(303.002,313,cs),
(383.301,313,o),
(436.5,272.811,o),
(436.5,204.491,cs),
(436.5,135.165,o),
(380.29,100,o),
(303.002,100,cs),
(225.713,100,o),
(168.5,135.165,o),
(168.5,204.491,cs)
);
},
{
closed = 1;
nodes = (
(365.5,600,o),
(407.5,567.807,o),
(407.5,518.512,cs),
(407.5,469.217,o),
(364.5,433,o),
(301.5,433,cs),
(240.5,433,o),
(198.5,466.199,o),
(198.5,514.488,cs),
(198.5,564.789,o),
(242.5,600,o),
(305.5,600,cs)
);
}
);
width = 605;
}
);
unicode = 56;
},
{
glyphname = question;
layers = (
{
layerId = "147DC1DB-E812-4101-979E-17422C2E6004";
shapes = (
{
closed = 1;
nodes = (
(100,561,l),
(151,621,o),
(200,647,o),
(262,647,cs),
(335,647,o),
(375,610,o),
(375,540,cs),
(375,458,o),
(319,405,o),
(168,345,c),
(168,250,l),
(314.49,250,l),
(314,332,l),
(418,364,o),
(521,452,o),
(521,573,cs),
(521,690,o),
(425,767,o),
(280,767,cs),
(171,767,o),
(78,724,o),
(15,646,c)
);
},
{
closed = 1;
nodes = (
(169.99,12.815,o),
(200.07,-20,o),
(242,-20,cs),
(283.018,-20,o),
(314.01,12.815,o),
(314.5,52.922,cs),
(314.01,93.028,o),
(283.018,124.02,o),
(242,124.02,cs),
(200.07,124.02,o),
(169.99,93.028,o),
(169.5,52.922,cs)
);
}
);
width = 551;
}
);
unicode = 63;
},
{
glyphname = section;
layers = (
{
layerId = "147DC1DB-E812-4101-979E-17422C2E6004";
shapes = (
{
closed = 1;
nodes = (
(370,153,l),
(405.778,169,o),
(426,194,o),
(426,224,cs),
(426,274,o),
(391.013,292.058,o),
(305,309,cs),
(127.013,344.058,o),
(53,406,o),
(53,515,cs),
(53,640,o),
(145.265,720,o),
(291.35,720,cs),
(404.759,720,o),
(486.451,672,o),
(547,595,c),
(462,510,l),
(420.18,563,o),
(369.996,599,o),
(304.943,599,cs),
(238.032,599,o),
(199,561,o),
(199,510,cs),
(199,459,o),
(240.098,436.464,o),
(342,417,cs),
(507.1,385.464,o),
(571,333,o),
(571,225,cs),
(571,138,o),
(521.821,72,o),
(434,37,c)
);
},
{
closed = 1;
nodes = (
(216,347,l),
(192,331,o),
(178,306,o),
(178,275,cs),
(178,226,o),
(211.675,207.942,o),
(294.458,191,cs),
(465.766,155.942,o),
(537,94,o),
(537,-15,cs),
(537,-140,o),
(443.61,-220,o),
(294.769,-220,cs),
(179.977,-220,o),
(97.287,-172,o),
(36,-95,c),
(121,-10,l),
(163.782,-63,o),
(215.12,-99,o),
(282.62,-99,cs),
(351.07,-99,o),
(391,-61,o),
(391,-10,cs),
(391,41,o),
(351.454,63.535,o),
(253.382,83,cs),
(94.5,114.535,o),
(33,167,o),
(33,275,cs),
(33,362,o),
(75,428,o),
(150,463,c)
);
}
);
width = 590;
}
);
unicode = 167;
},
{
glyphname = numbersign;
layers = (
{
layerId = "147DC1DB-E812-4101-979E-17422C2E6004";
shapes = (
{
closed = 1;
nodes = (
(755,205,l),
(755,265,l),
(616,265,l),
(651,435,l),
(802,435,l),
(802,495,l),
(663,495,l),
(705,700,l),
(557,700,l),
(515,495,l),
(361,495,l),
(403,700,l),
(255,700,l),
(214,495,l),
(74,495,l),
(74,435,l),
(201,435,l),
(166,265,l),
(28,265,l),
(28,205,l),
(154,205,l),
(112,0,l),
(260,0,l),
(302,205,l),
(456,205,l),
(414,0,l),
(562,0,l),
(604,205,l)
);
},
{
closed = 1;
nodes = (
(314,265,l),
(349,435,l),
(503,435,l),
(468,265,l)
);
}
);
width = 830;
}
);
unicode = 35;
},
{
glyphname = asterisk;
layers = (
{
layerId = "147DC1DB-E812-4101-979E-17422C2E6004";
shapes = (
{
closed = 1;
nodes = (
(253,700,l),
(266,505,l),
(101,621,l),
(78,580,l),
(259,486,l),
(78,393,l),
(101,351,l),
(266,468,l),
(253,272,l),
(300,272,l),
(286,468,l),
(450,353,l),
(472,394,l),
(293,486,l),
(472,579,l),
(449,620,l),
(286,505,l),
(300,700,l)
);
}
);
width = 553;
}
);
unicode = 42;
},
{
glyphname = copyright;
layers = (
{
layerId = "147DC1DB-E812-4101-979E-17422C2E6004";
shapes = (
{
closed = 1;
nodes = (
(589,12,o),
(773,138,o),
(773,357,cs),
(773,572,o),
(596,688,o),
(411,688,cs),
(227,688,o),
(44,573,o),
(44,357,cs),
(44,137,o),
(233,12,o),
(411,12,cs)
);
},
{
closed = 1;
nodes = (
(585,628,o),
(713,514,o),
(713,354,cs),
(713,186,o),
(573,72,o),
(411,72,cs),
(243,72,o),
(104,195,o),
(104,358,cs),
(104,513,o),
(231,628,o),
(408,628,cs)
);
},
{
closed = 1;
nodes = (
(332.195,234.081,o),
(317.028,287.566,o),
(317.028,354.238,cs),
(317.028,430.436,o),
(351.209,467.069,o),
(408.803,467.069,cs,{name = sv01;}),
(451.04,467.069,o),
(487.839,452.979,o),
(509.778,427.024,c),
(566.569,483.815,l),
(531.008,525.316,o),
(476.245,547.159,o),
(410.102,547.159,cs,{name = at01;}),
(294.886,547.159,o),
(229.455,471.438,o),
(229.455,354.215,cs),
(229.455,229.712,o),
(294.912,153.991,o),
(409.462,153.991,cs,{name = dv01;}),
(482.745,153.991,o),
(536.819,175.834,o),
(572.393,217.335,c),
(515.602,274.126,l),
(491.779,249.654,o),
(455.633,234.081,o),
(412.698,234.081,cs,{name = dv02;})
);
}
);
width = 817;
}
);
unicode = 169;
},
{
glyphname = registered;
layers = (
{
layerId = "147DC1DB-E812-4101-979E-17422C2E6004";
shapes = (
{
closed = 1;
nodes = (
(589,12,o),
(773,138,o),
(773,355,cs),
(773,572,o),
(596,688,o),
(411,688,cs),
(227,688,o),
(44,573,o),
(44,355,cs),
(44,137,o),
(233,12,o),
(411,12,cs)
);
},
{
closed = 1;
nodes = (
(585,628,o),
(713,514,o),
(713,350,cs),
(713,186,o),
(573,72,o),
(409,72,cs),
(243,72,o),
(104,195,o),
(104,354,cs),
(104,513,o),
(231,628,o),
(409,628,cs)
);
},
{
closed = 1;
nodes = (
(346.4,150,l,{name = ab01;}),
(346.4,471.8,l,{name = sv01;}),
(396.8,471.8,ls),
(467,471.8,o),
(495.8,454.917,o),
(495.8,414.82,cs),
(495.8,374.723,o),
(467,357.84,o),
(396.8,357.84,cs),
(278,357.84,l,{name = dv02;}),
(278,286.64,l,{name = dv01;}),
(426.8,286.64,ls),
(522.2,286.64,o),
(583.4,337.04,o),
(583.4,416.56,cs),
(583.4,494.4,o),
(524.6,542,o),
(426.8,542,cs,{name = at01;}),
(258.8,542,l),
(258.8,150,l)
);
},
{
closed = 1;
nodes = (
(413.6,307.36,l),
(499.4,150,l,{name = ab02;}),
(594.2,150,l),
(492.2,336.48,l)
);
}
);
width = 817;
}
);
unicode = 174;
},
{
glyphname = ordfeminine;
layers = (
{
layerId = "147DC1DB-E812-4101-979E-17422C2E6004";
shapes = (
{
closed = 1;
nodes = (
(384,335,l),
(489,335,l),
(489,702,l),
(384,702,l)
);
},
{
closed = 1;
nodes = (
(411,644,o),
(354,720,o),
(249,720,cs),
(142,720,o),
(63,642,o),
(63,522,cs),
(63,401,o),
(142,320,o),
(250,320,cs),
(354,320,o),
(411,396,o),
(411,520,cs)
);
},
{
closed = 1;
nodes = (
(168,593.22,o),
(210,640,o),
(277,640,cs),
(344,640,o),
(384,594.237,o),
(384,518.983,cs),
(384,443.729,o),
(344,400,o),
(278,400,cs),
(209,400,o),
(168,446.78,o),
(168,520,cs)
);
}
);
width = 549;
}
);
unicode = 170;
},
{
glyphname = ordmasculine;
layers = (
{
layerId = "147DC1DB-E812-4101-979E-17422C2E6004";
shapes = (
{
closed = 1;
nodes = (
(64,393,o),
(138,317,o),
(258,317,cs),
(380,317,o),
(453,393,o),
(453,523,cs),
(453,631,o),
(379,720,o),
(258,720,cs),
(137,720,o),
(64,631,o),
(64,523,cs)
);
},
{
closed = 1;
nodes = (
(356,436,o),
(313,396,o),
(257,396,cs),
(202,396,o),
(161,434,o),
(161,525,cs),
(161,604,o),
(201,641,o),
(256,641,cs),
(312,641,o),
(356,610,o),
(356,522,cs)
);
}
);
width = 516;
}
);
unicode = 186;
},
{
glyphname = paragraph;
layers = (
{
layerId = "147DC1DB-E812-4101-979E-17422C2E6004";
shapes = (
{
closed = 1;
nodes = (
(50,383,o),
(108,282,o),
(308,282,cs),
(338,282,l),
(338,-132,l),
(386,-132,l),
(386,731,l),
(476,731,l),
(476,-132,l),
(524,-132,l),
(524,751,l),
(308,751,ls),
(129,751,o),
(50,663,o),
(50,523,cs)
);
}
);
width = 590;
}
);
unicode = 182;
},
{
glyphname = partialdiff;
layers = (
{
layerId = "147DC1DB-E812-4101-979E-17422C2E6004";
shapes = (
{
closed = 1;
nodes = (
(220,553,l),
(262,588,o),
(323,609,o),
(378,609,cs),
(468,609,o),
(558,553,o),
(558,452,cs),
(558,400,o),
(534,324,o),
(518,293,c),
(516,255,l),
(532,256,l),
(542,278,l),
(567,346,o),
(479,467,o),
(317,467,cs),
(165,467,o),
(28,360,o),
(28,206,cs),
(28,73,o),
(131,-20,o),
(278,-20,cs),
(497,-20,o),
(675,188,o),
(675,425,cs),
(675,613,o),
(563,720,o),
(385,720,cs),
(306,720,o),
(201,699,o),
(132,641,c)
);
},
{
closed = 1;
nodes = (
(421,367,o),
(480,319,o),
(480,242,cs),
(480,146,o),
(388,93,o),
(302,93,cs),
(219,93,o),
(158,142,o),
(158,221,cs),
(158,303,o),
(224,367,o),
(330,367,cs)
);
}
);
width = 730;
}
);
unicode = 8706;
},
{
glyphname = sterling;
layers = (
{
layerId = "147DC1DB-E812-4101-979E-17422C2E6004";
shapes = (
{
closed = 1;
nodes = (
(21,364,l),
(21,294,l),
(485,294,l),
(485,364,l)
);
},
{
closed = 1;
nodes = (
(390,599,o),
(448,572,o),
(498,514,c),
(583,599,l),
(507,687,o),
(418,720,o),
(318,720,cs),
(159,720,o),
(57,637,o),
(57,519,cs),
(57,462,o),
(81,407,o),
(114,347,cs),
(137,305,o),
(162,265,o),
(162,210,cs),
(162,130,o),
(110,86,o),
(50,46,c),
(50,-44,l),
(109,32,o),
(144,50,o),
(182,50,cs),
(261,50,o),
(283,-26,o),
(404,-26,cs),
(504,-26,o),
(585,26,o),
(614,110,c),
(594,152,l),
(574,105,o),
(522,70,o),
(452,70,cs),
(364,70,o),
(374,125,o),
(265,125,c),
(280,147,o),
(298,176,o),
(298,225,cs),
(298,337,o),
(204,399,o),
(204,494,cs),
(204,569,o),
(264,599,o),
(329,599,cs)
);
}
);
width = 634;
}
);
unicode = 163;
},
{
glyphname = asciitilde;
layers = (
{
layerId = "147DC1DB-E812-4101-979E-17422C2E6004";
shapes = (
{
closed = 1;
nodes = (
(36,243,l),
(54,286,o),
(104,307,o),
(149,307,cs),
(179,307,o),
(199.968,296.958,o),
(240,266,cs),
(274.968,238.958,o),
(298,226,o),
(340,226,cs),
(395,226,o),
(441,248,o),
(465,329,c),
(455,329,l),
(438,289,o),
(404,277,o),
(365,277,cs),
(329,277,o),
(304.965,286.956,o),
(268,316,cs),
(234.965,341.956,o),
(208,356,o),
(171,356,cs),
(113,356,o),
(52,321,o),
(26,243,c)
);
}
);
width = 496;
}
);
unicode = 126;
},
{
glyphname = approxequal;
layers = (
{
layerId = "147DC1DB-E812-4101-979E-17422C2E6004";
shapes = (
{
closed = 1;
nodes = (
(42,166,l),
(60,209,o),
(110,230,o),
(155,230,cs),
(185,230,o),
(205.968,219.958,o),
(246,189,cs),
(280.968,161.958,o),
(304,149,o),
(346,149,cs),
(401,149,o),
(447,171,o),
(471,252,c),
(461,252,l),
(444,212,o),
(410,200,o),
(371,200,cs),
(335,200,o),
(310.965,209.956,o),
(274,239,cs),
(240.965,264.956,o),
(214,279,o),
(177,279,cs),
(119,279,o),
(58,244,o),
(32,166,c)
);
},
{
closed = 1;
nodes = (
(40,323,l),
(58,366,o),
(108,387,o),
(153,387,cs),
(183,387,o),
(203.968,376.958,o),
(244,346,cs),
(278.968,318.958,o),
(302,306,o),
(344,306,cs),
(399,306,o),
(445,328,o),
(469,409,c),
(459,409,l),
(442,369,o),
(408,357,o),
(369,357,cs),
(333,357,o),
(308.965,366.956,o),
(272,396,cs),
(238.965,421.956,o),
(212,436,o),
(175,436,cs),
(117,436,o),
(56,401,o),
(30,323,c)
);
}
);
width = 542;
}
);
unicode = 8776;
},
{
glyphname = at;
layers = (
{
layerId = "147DC1DB-E812-4101-979E-17422C2E6004";
shapes = (
{
closed = 1;
nodes = (
(44,-6,o),
(199,-159,o),
(423,-159,cs),
(463,-159,o),
(499,-154,o),
(534,-147,c),
(534,-97,l),
(502,-103,o),
(463,-109,o),
(424,-109,cs),
(245,-109,o),
(104,17,o),
(104,247,cs),
(104,491,o),
(264,611,o),
(447,611,cs),
(631,611,o),
(781,490,o),
(781,279,cs),
(781,145,o),
(727.63,83,o),
(669.812,83,cs),
(631.564,83,o),
(620,111,o),
(620,151,cs),
(620,164,l),
(639,422,l),
(593,447,o),
(545,460,o),
(486,460,cs),
(315,460,o),
(234,349,o),
(234,220,cs),
(234,90,o),
(319.306,21,o),
(421.056,21,cs),
(502.25,21,o),
(530,65,o),
(551,128,c),
(548,59,o),
(598,23,o),
(668,23,cs),
(793,23,o),
(841,136,o),
(841,282,cs),
(841,507,o),
(680,661,o),
(448,661,cs),
(216,661,o),
(44,507,o),
(44,244,cs)
);
},
{
closed = 1;
nodes = (
(334,316,o),
(389,388,o),
(466,388,cs),
(493,388,o),
(523,379,o),
(544,362,c),
(541,332,o),
(534.948,290.006,o),
(532,262,cs),
(518.948,138.005,o),
(484,91,o),
(420,91,cs),
(357,91,o),
(334,137,o),
(334,207,cs)
);
}
);
width = 885;
}
);
unicode = 64;
},
{
glyphname = ampersand;
layers = (
{
layerId = "147DC1DB-E812-4101-979E-17422C2E6004";
shapes = (
{
closed = 1;
nodes = (
(290,421,l),
(249,457,o),
(223,497,o),
(223,535,cs),
(223,572,o),
(249,600,o),
(291,600,cs),
(332,600,o),
(354,573,o),
(354,537,cs),
(354,475,o),
(282,447,o),
(226,415,c)
);
},
{
closed = 1;
nodes = (
(341,364,l),
(452,415,o),
(490,477,o),
(490,550,cs),
(490,652,o),
(417,720,o),
(291,720,cs),
(171,720,o),
(87,659,o),
(87,563,cs),
(87,503,o),
(119,435,o),
(175,387,c),
(83,353,o),
(27,282,o),
(27,187,cs),
(27,61,o),
(126,-20,o),
(276,-20,cs),
(468,-20,o),
(579,114,o),
(642,206,c),
(557,291,l),
(477,168,o),
(379,100,o),
(290,100,cs),
(221,100,o),
(172,140,o),
(172,213,cs),
(172,259,o),
(192,299,o),
(228,321,c),
(493,0,l),
(646,0,l)
);
}
);
width = 664;
}
);
unicode = 38;
},
{
glyphname = degree;
layers = (
{
layerId = "147DC1DB-E812-4101-979E-17422C2E6004";
shapes = (
{
closed = 1;
nodes = (
(67,460,o),
(144,390,o),
(247,390,cs),
(349,390,o),
(418,458,o),
(418,556,cs),
(418,654,o),
(350,719,o),
(248,719,cs),
(143,719,o),
(67,651,o),
(67,556,cs)
);
},
{
closed = 1;
nodes = (
(154,622,o),
(187,658,o),
(244,658,cs),
(302,658,o),
(332,621,o),
(332,554,cs),
(332,480,o),
(295,451,o),
(243,451,cs),
(186,451,o),
(154,487,o),
(154,554,cs)
);
}
);
width = 483;
}
);
unicode = 176;
},
{
glyphname = asciicircum;
layers = (
{
layerId = "147DC1DB-E812-4101-979E-17422C2E6004";
shapes = (
{
closed = 1;
nodes = (
(50,520,l),
(98,520,l),
(257,739,l),
(417,519,l),
(465,519,l),
(303,779,l),
(211,779,l)
);
}
);
width = 515;
}
);
unicode = 94;
},
{
glyphname = bullet;
layers = (
{
layerId = "147DC1DB-E812-4101-979E-17422C2E6004";
shapes = (
{
closed = 1;
nodes = (
(299,202,o),
(351,253,o),
(351,318,cs),
(351,383,o),
(299,435,o),
(234,435,cs),
(170,435,o),
(118,383,o),
(118,318,cs),
(118,253,o),
(170,202,o),
(234,202,cs)
);
}
);
width = 471;
}
);
unicode = 8226;
},
{
glyphname = summation;
layers = (
{
layerId = "147DC1DB-E812-4101-979E-17422C2E6004";
shapes = (
{
closed = 1;
nodes = (
(621,-124,l),
(621,-4,l),
(250,-4,l),
(544,286,l),
(250,580,l),
(621,580,l),
(621,700,l),
(30,700,l),
(30,610,l),
(352,286,l),
(30,-34,l),
(30,-124,l)
);
}
);
width = 662;
}
);
unicode = 8721;
},
{
glyphname = radical;
layers = (
{
layerId = "147DC1DB-E812-4101-979E-17422C2E6004";
shapes = (
{
closed = 1;
nodes = (
(401,-126.199,l),
(706.802,814,l),
(553.802,814,l),
(313,-8.199,l),
(225,285.801,l),
(1,285.801,l),
(1,175.801,l),
(110,175.801,l),
(232,-126.199,l)
);
}
);
width = 660;
}
);
unicode = 8730;
},
{
glyphname = fraction;
layers = (
{
layerId = "147DC1DB-E812-4101-979E-17422C2E6004";
shapes = (
{
closed = 1;
nodes = (
(-90,0,l),
(-50,0,l),
(306,700,l),
(266,700,l)
);
}
);
width = 216;
}
);
unicode = 8260;
},
{
glyphname = ampersand.ss09;
layers = (
{
layerId = "147DC1DB-E812-4101-979E-17422C2E6004";
shapes = (
{
closed = 1;
nodes = (
(468,580,l),
(468,700,l),
(242,700,ls),
(109,700,o),
(63,632,o),
(63,559,cs),
(63,482,o),
(119,430,o),
(165,379,c),
(72,339,o),
(24,270,o),
(24,177,cs),
(24,53,o),
(119,-20,o),
(282,-20,cs),
(483,-20,o),
(597,122,o),
(597,310,c),
(454,310,l),
(454,178,o),
(382,101,o),
(271,101,cs),
(206,101,o),
(165,143,o),
(165,208,cs),
(165,294,o),
(215,341,o),
(331,378,c),
(223,500,ls),
(189,539,o),
(203,580,o),
(255,580,cs)
);
},
{
closed = 1;
nodes = (
(409,147,l),
(556,0,l),
(648,0,l),
(648,84,l),
(501,231,l)
);
}
);
width = 660;
}
);
},
{
glyphname = g.ss03;
layers = (
{
anchors = (
{
name = top;
position = "{295, 520}";
},
{
name = bottom;
position = "{295, -220}";
}
);
layerId = "147DC1DB-E812-4101-979E-17422C2E6004";
shapes = (
{
closed = 1;
nodes = (
(432,124,o),
(531,206,o),
(531,322,cs,{name = sv14;}),
(531,437,o),
(433,520,o),
(296,520,cs,{name = at01;}),
(157,520,o),
(59,435,o),
(59,318,cs),
(59,202,o),
(156,124,o),
(292,124,cs,{name = dv05;})
);
},
{
closed = 1;
nodes = (
(352,410,o),
(386,377,o),
(386,322,cs,{name = sv13;}),
(386,268,o),
(354,234,o),
(293,234,cs,{name = dv06;}),
(237,234,o),
(204,262,o),
(204,319,cs,{name = sv09;}),
(204,376,o),
(238,410,o),
(295,410,cs,{name = sv01;})
);
},
{
closed = 1;
nodes = (
(599,578,o),
(570,599,o),
(534,599,cs,{name = dv04;}),
(468,599,o),
(414,531,o),
(404,435,c,{name = sv02;}),
(431,432,l,{name = sv03;}),
(436,480,o),
(470,515,o),
(483,526,c,{name = at02;}),
(481,497,o),
(509,472,o),
(543,472,cs,{name = dv03;}),
(577,472,o),
(599,496,o),
(599,534,cs)
);
},
{
closed = 1;
nodes = (
(223,-110,o),
(193,-90,o),
(188,-33,c,{name = sv04;}),
(46,-33,l,{name = sv12;}),
(53,-166,o),
(150,-220,o),
(309,-220,cs,{name = dv01;}),
(468,-220,o),
(554,-166,o),
(554,-60,cs,{name = sv08;}),
(554,37,o),
(482,84,o),
(300,84,cs,{name = sv05;}),
(197,84,o),
(152,99,o),
(152,136,cs,{name = sv06;}),
(152,160,o),
(170,176,o),
(195,191,c,{name = sv10;}),
(194,247,l,{name = sv11;}),
(96,221,o),
(42,177,o),
(42,104,cs),
(42,30,o),
(96,-11,o),
(270,-11,cs,{name = ab01;}),
(376,-11,o),
(414,-26,o),
(414,-63,cs,{name = sv07;}),
(414,-97,o),
(381,-110,o),
(310,-110,cs,{name = dv02;})
);
}
);
width = 590;
}
);
leftKerningGroup = a;
},
{
glyphname = y.ss04;
layers = (
{
anchors = (
{
name = bottom;
position = "{448, 0}";
},
{
name = top;
position = "{283, 520}";
}
);
layerId = "147DC1DB-E812-4101-979E-17422C2E6004";
shapes = (
{
closed = 1;
nodes = (
(238,-35,ls),
(220.76,-91.239,o),
(190,-108,o),
(138,-108,cs,{name = dv02;}),
(123,-108,o),
(95,-105,o),
(76,-96,c),
(51,-198,l),
(98,-212,o),
(112,-221,o),
(180,-221,cs,{name = dv01;}),
(270,-221,o),
(320,-180,o),
(355,-78,cs),
(554,500,l,{name = av01;}),
(402,500,l)
);
},
{
closed = 1;
nodes = (
(316,0,l),
(164,500,l,{name = av02;}),
(12,500,l),
(184,0,l)
);
}
);
width = 565;
}
);
leftKerningGroup = v;
rightKerningGroup = v1;
},
{
glyphname = n;
layers = (
{
anchors = (
{
name = top;
position = "{318, 520}";
},
{
name = bottom;
position = "{318, -20}";
}
);
layerId = "147DC1DB-E812-4101-979E-17422C2E6004";
shapes = (
{
closed = 1;
nodes = (
(212,282,l),
(219,217,l,{name = iv01;}),
(219,333.604,o),
(261,410,o),
(336,410,cs,{name = sv01;}),
(386,410,o),
(416,383.936,o),
(416,278.68,cs),
(416,0,l,{name = ab01;}),
(561,0,l),
(561,314,ls),
(561,462,o),
(492,520,o),
(389,520,cs,{name = at01;}),
(301,520,o),
(230,456,o),
(211,361,c)
);
},
{
closed = 1;
nodes = (
(74,0,l,{name = ab02;}),
(219,0,l),
(219,500,l,{name = av01;}),
(74,500,l)
);
}
);
width = 635;
}
);
leftKerningGroup = i;
rightKerningGroup = h;
unicode = 110;
},
{
glyphname = Schwa;
layers = (
{
anchors = (
{
name = top;
position = "{390, 719}";
},
{
name = bottom;
position = "{390, -20}";
}
);
layerId = "147DC1DB-E812-4101-979E-17422C2E6004";
shapes = (
{
closed = 1;
nodes = (
(600,720,o),
(736,581,o),
(736,355,cs,{name = sh03;}),
(736,129,o),
(599,-20,o),
(390,-20,cs,{name = dv01;}),
(181,-20,o),
(43,130,o),
(43,345,cs,{name = sh01;}),
(43,371,o),
(45,394,o),
(47,409,c,{name = sh04;}),
(600,409,l,{name = dv06;}),
(599,294,l,{name = dv05;}),
(195,294,l,{name = sh02;}),
(204,175.389,o),
(280,100,o),
(392,100,cs,{name = dv02;}),
(517,100,o),
(587,194.378,o),
(587,356.024,cs),
(587,521.687,o),
(514,600,o),
(381,600,cs,{name = dv03;}),
(294,600,o),
(232,566.629,o),
(184,510,c),
(99,595,l),
(163,674,o),
(252,720,o),
(379,720,cs,{name = dv04;})
);
}
);
width = 779;
}
);
leftKerningGroup = C1;
rightKerningGroup = C;
unicode = 399;
},
{
glyphname = schwa;
layers = (
{
anchors = (
{
name = top;
position = "{306, 520}";
},
{
name = bottom;
position = "{306, -20}";
}
);
layerId = "147DC1DB-E812-4101-979E-17422C2E6004";
shapes = (
{
closed = 1;
nodes = (
(199,199,l,{name = dv03;}),
(207,129,o),
(246,90,o),
(307,90,cs,{name = dv02;}),
(372,90,o),
(411,133.398,o),
(418,199,c,{name = ah01;})
);
},
{
closed = 1;
nodes = (
(238,410,o),
(187,387.593,o),
(158,355,c),
(80,433,l),
(131,490,o),
(210,520,o),
(300,520,cs,{name = at01;}),
(463,520,o),
(564,421,o),
(564,254,cs,{name = sh02;}),
(564,89,o),
(466,-20,o),
(306,-20,cs,{name = dv01;}),
(149,-20,o),
(50,85,o),
(50,258,cs,{name = sh01;}),
(50,275,o),
(51,284,o),
(53,299,c,{name = dv04;}),
(420,299,l,{name = sh03;}),
(414,365.6,o),
(362,410,o),
(290,410,cs,{name = sv01;})
);
}
);
width = 613;
}
);
leftKerningGroup = a;
rightKerningGroup = b1;
unicode = 601;
},
{
glyphname = yen;
layers = (
{
layerId = "147DC1DB-E812-4101-979E-17422C2E6004";
shapes = (
{
closed = 1;
nodes = (
(130,162,l),
(130,107,l),
(533,107,l),
(533,162,l)
);
},
{
closed = 1;
nodes = (
(130,293,l),
(130,238,l),
(533,238,l),
(533,293,l)
);
},
{
alignment = -1;
ref = Y;
}
);
width = 662;
}
);
unicode = 165;
},
{
glyphname = G.ss03;
layers = (
{
anchors = (
{
name = bottom;
position = "{399, -19}";
},
{
name = top;
position = "{387, 719}";
}
);
layerId = "147DC1DB-E812-4101-979E-17422C2E6004";
shapes = (
{
closed = 1;
nodes = (
(495,600,o),
(564,563.766,o),
(644,445,c),
(683,583,l),
(614,672,o),
(517,720,o),
(396,720,cs),
(183,720,o),
(43,573,o),
(43,348,cs),
(43,132,o),
(189,-20,o),
(396,-20,cs),
(600,-20,o),
(730,120.351,o),
(730,324.862,cs),
(730,380,l),
(380,380,l),
(380,270,l),
(585,270,l),
(585,159.349,o),
(509,100,o),
(400,100,cs),
(267,100,o),
(190,200.402,o),
(190,351.004,cs),
(190,507.631,o),
(267,600,o),
(399,600,cs)
);
}
);
width = 773;
}
);
leftKerningGroup = C1;
rightKerningGroup = C;
},
{
glyphname = softhyphen;
layers = (
{
layerId = "147DC1DB-E812-4101-979E-17422C2E6004";
shapes = (
{
closed = 1;
nodes = (
(50,262,l),
(414,262,l),
(414,296,l),
(50,296,l)
);
}
);
width = 464;
}
);
unicode = 173;
},
{
glyphname = lira;
layers = (
{
layerId = "147DC1DB-E812-4101-979E-17422C2E6004";
shapes = (
{
closed = 1;
nodes = (
(42,414,l),
(42,344,l),
(500,344,l),
(500,414,l)
);
},
{
closed = 1;
nodes = (
(42,294,l),
(42,224,l),
(500,224,l),
(500,294,l)
);
},
{
closed = 1;
nodes = (
(227.406,720,o),
(130.5,633,o),
(130.5,490,cs),
(130.5,240,ls),
(130.5,174,o),
(94.304,108,o),
(38,80,c),
(38,0,l),
(643,0,l),
(643,120,l),
(178,120,l),
(259.582,141,o),
(275.5,196.12,o),
(275.5,253.245,cs),
(275.5,448.67,ls),
(275.5,511.808,o),
(289.525,600,o),
(390.702,600,cs,{name = dv03;}),
(448.805,600,o),
(516.924,570.659,o),
(560,514,c),
(645,600,l),
(585.058,678.347,o),
(494.147,720,o),
(385.252,720,cs,{name = dv04;})
);
}
);
width = 666;
}
);
unicode = 8356;
},
{
glyphname = austral;
layers = (
{
layerId = "147DC1DB-E812-4101-979E-17422C2E6004";
shapes = (
{
closed = 1;
nodes = (
(13,136,l),
(705,136,l),
(705,199,l),
(13,199,l)
);
},
{
closed = 1;
nodes = (
(13,275,l),
(705,275,l),
(705,338,l),
(13,338,l)
);
},
{
alignment = -1;
pos = (31.5,0);
ref = Elcyr.ss08;
}
);
width = 718;
}
);
unicode = 8371;
},
{
glyphname = hryvnia;
layers = (
{
layerId = "147DC1DB-E812-4101-979E-17422C2E6004";
shapes = (
{
closed = 1;
nodes = (
(21,272,l),
(122.794,272,l),
(112.592,249.648,o),
(108,224.287,o),
(108,195.347,cs),
(108,63.134,o),
(204,-20,o),
(366,-20,cs),
(489,-20,o),
(574,28,o),
(636,105,c),
(551,190,l),
(506,136.404,o),
(451,100,o),
(376,100,cs),
(301,100,o),
(253,136.058,o),
(253,194.152,cs),
(253,236.552,o),
(279.044,256.145,o),
(340.36,272,c),
(713,272,l),
(713,318,l),
(21,318,l)
);
},
{
closed = 1;
nodes = (
(21,384,l),
(713,384,l),
(713,430,l),
(619.339,430,l),
(627.252,451.495,o),
(631,475.293,o),
(631,501.648,cs),
(631,634.863,o),
(535,720,o),
(380,720,cs),
(263,720,o),
(177,672,o),
(114,595,c),
(199,510,l),
(244.157,563.596,o),
(299.35,600,o),
(366.584,600,cs),
(443.853,600,o),
(486,557.932,o),
(486,500.84,cs),
(486,468.521,o),
(472.822,446.495,o),
(444.837,430,c),
(21,430,l)
);
}
);
width = 734;
}
);
unicode = 8372;
},
{
glyphname = turkishlira;
layers = (
{
layerId = "147DC1DB-E812-4101-979E-17422C2E6004";
shapes = (
{
closed = 1;
nodes = (
(21,436,l),
(21,394,l),
(443,521,l),
(443,564,l)
);
},
{
closed = 1;
nodes = (
(21,319,l),
(21,277,l),
(443,404,l),
(443,447,l)
);
},
{
closed = 1;
nodes = (
(485,255,l),
(485,181,o),
(442,120,o),
(330,120,cs),
(270,120,l),
(270,700,l),
(124,700,l),
(124,0,l),
(303,0,ls),
(521,0,o),
(606,78,o),
(606,283,c)
);
}
);
width = 640;
}
);
unicode = 8378;
},
{
glyphname = manat;
layers = (
{
layerId = "147DC1DB-E812-4101-979E-17422C2E6004";
shapes = (
{
closed = 1;
nodes = (
(376,110,l),
(477,157,l),
(477,750,l),
(376,703,l)
);
},
{
closed = 1;
nodes = (
(198,602,o),
(43,444,o),
(43,214,cs),
(43,143,o),
(59,69,o),
(90,0,c),
(240,0,l),
(206,59,o),
(188,133,o),
(188,202,cs),
(188,370,o),
(282,482,o),
(423,482,cs),
(566,482,o),
(658,372,o),
(658,205,cs),
(658,135,o),
(640,60,o),
(605,0,c),
(751,0,l),
(785,75,o),
(803,154,o),
(803,230,cs),
(803,450,o),
(648,602,o),
(425,602,cs)
);
}
);
width = 846;
}
);
unicode = 8380;
},
{
glyphname = ruble;
layers = (
{
layerId = "147DC1DB-E812-4101-979E-17422C2E6004";
shapes = (
{
closed = 1;
nodes = (
(301,0,l),
(301,580,l),
(409,580,ls),
(494,580,o),
(535,535,o),
(535,464,cs),
(535,393,o),
(493,347,o),
(409,347,cs),
(45,347,l),
(45,226,l),
(410,226,ls),
(578,226,o),
(681,315,o),
(681,460,cs),
(681,606,o),
(576,700,o),
(411,700,cs),
(155,700,l),
(155,0,l)
);
},
{
closed = 1;
nodes = (
(45,152,l),
(45,92,l),
(620,92,l),
(620,152,l)
);
}
);
width = 720;
}
);
unicode = 8381;
},
{
glyphname = Gecyr;
layers = (
{
anchors = (
{
name = top;
position = "{272, 719}";
},
{
name = bottom;
position = "{283, -20}";
}
);
layerId = "147DC1DB-E812-4101-979E-17422C2E6004";
shapes = (
{
closed = 1;
nodes = (
(214,0,l),
(214,579,l),
(498,579,l),
(498,700,l),
(68,700,l),
(68,0,l)
);
}
);
width = 544;
}
);
leftKerningGroup = B;
rightKerningGroup = F;
unicode = 1043;
},
{
glyphname = Kacyr;
layers = (
{
anchors = (
{
name = top;
position = "{320, 719}";
},
{
name = bottom;
position = "{320, -20}";
}
);
layerId = "147DC1DB-E812-4101-979E-17422C2E6004";
shapes = (
{
closed = 1;
nodes = (
(68,700,l),
(68,0,l),
(213,0,l),
(213,700,l)
);
},
{
closed = 1;
nodes = (
(159,315,l),
(369,315,ls),
(463,315,o),
(538,351,o),
(555,467,c),
(580,700,l),
(434,700,l),
(420,554,l),
(411,465,o),
(390,435,o),
(335,435,cs),
(159,435,l)
);
},
{
closed = 1;
nodes = (
(349,329,l),
(469,0,l),
(623,0,l),
(494,355,l)
);
}
);
width = 640;
}
);
leftKerningGroup = B;
rightKerningGroup = K;
unicode = 1050;
},
{
glyphname = kacyr;
layers = (
{
anchors = (
{
name = top;
position = "{288, 520}";
},
{
name = bottom;
position = "{288, -20}";
}
);
layerId = "147DC1DB-E812-4101-979E-17422C2E6004";
shapes = (
{
closed = 1;
nodes = (
(69,500,l,{name = av01;}),
(69,0,l,{name = ab01;}),
(214,0,l),
(214,500,l)
);
},
{
closed = 1;
nodes = (
(202,211,l,{name = dv01;}),
(378,211,ls),
(458,211,o),
(502,248,o),
(513,332,c),
(530,500,l,{name = av02;}),
(396,500,l),
(386,400,l),
(380,350,o),
(366,321,o),
(310,321,cs),
(202,321,l,{name = dv02;})
);
},
{
closed = 1;
nodes = (
(316,235,l,{name = iv01;}),
(418,0,l,{name = ab02;}),
(568,0,l),
(460,247,l)
);
}
);
width = 588;
}
);
leftKerningGroup = i;
rightKerningGroup = k;
unicode = 1082;
},
{
glyphname = tshecyr;
layers = (
{
layerId = "147DC1DB-E812-4101-979E-17422C2E6004";
shapes = (
{
closed = 1;
nodes = (
(104,0,l,{name = ab03;}),
(249,0,l),
(249,750,l,{name = ab01;}),
(104,750,l)
);
},
{
closed = 1;
nodes = (
(242,262,l),
(249,197,l,{name = iv01;}),
(249,313,o),
(291,389,o),
(366,389,cs,{name = sv01;}),
(416,389,o),
(446,363,o),
(446,258,cs),
(446,0,l,{name = ab01;}),
(591,0,l),
(591,294,ls),
(591,442,o),
(522,500,o),
(419,500,cs,{name = at01;}),
(331,500,o),
(260,436,o),
(241,341,c)
);
},
{
closed = 1;
nodes = (
(16,590,l),
(405,590,l),
(405,626,l),
(16,626,l)
);
}
);
width = 665;
}
);
leftKerningGroup = f;
rightKerningGroup = h;
unicode = 1115;
},
{
glyphname = Pecyr;
layers = (
{
anchors = (
{
name = bottom;
position = "{350, -20}";
},
{
name = top;
position = "{350, 719}";
}
);
layerId = "147DC1DB-E812-4101-979E-17422C2E6004";
shapes = (
{
closed = 1;
nodes = (
(223,0,l),
(223,580,l),
(477,580,l),
(477,0,l),
(623,0,l),
(623,700,l),
(77,700,l),
(77,0,l)
);
}
);
width = 700;
}
);
leftKerningGroup = B;
rightKerningGroup = H;
unicode = 1055;
},
{
glyphname = djecyr;
layers = (
{
layerId = "147DC1DB-E812-4101-979E-17422C2E6004";
shapes = (
{
closed = 1;
nodes = (
(104,0,l,{name = ab03;}),
(249,0,l),
(249,750,l,{name = ab01;}),
(104,750,l)
);
},
{
closed = 1;
nodes = (
(242,262,l),
(249,197,l,{name = iv01;}),
(249,313,o),
(291,389,o),
(366,389,cs,{name = sv01;}),
(416,389,o),
(446,363,o),
(446,258,cs),
(446,0,l,{name = ab01;}),
(591,0,l),
(591,294,ls),
(591,442,o),
(522,500,o),
(419,500,cs,{name = at01;}),
(331,500,o),
(260,436,o),
(241,341,c)
);
},
{
closed = 1;
nodes = (
(16,590,l),
(415,590,l),
(415,626,l),
(16,626,l)
);
},
{
closed = 1;
nodes = (
(591,196,l),
(446,196,l,{name = av01;}),
(446,-22,ls),
(446,-87,o),
(438,-108,o),
(401,-108,cs,{name = dv02;}),
(386,-108,o),
(358,-105,o),
(339,-96,c),
(314,-198,l),
(361,-212,o),
(375,-221,o),
(443,-221,cs,{name = dv01;}),
(538,-221,o),
(591,-174,o),
(591,-68,cs)
);
}
);
width = 665;
}
);
leftKerningGroup = f;
rightKerningGroup = h;
unicode = 1106;
},
{
glyphname = Yucyr;
layers = (
{
anchors = (
{
name = top;
position = "{545, 719}";
}
);
layerId = "147DC1DB-E812-4101-979E-17422C2E6004";
shapes = (
{
closed = 1;
nodes = (
(208,311,l),
(358,311,l),
(358,431,l),
(208,431,l)
);
},
{
alignment = -1;
pos = (295,0);
ref = O;
},
{
alignment = -1;
pos = (-13,0);
ref = I;
}
);
width = 1090;
}
);
leftKerningGroup = B;
rightKerningGroup = C;
unicode = 1070;
},
{
glyphname = Hardcyr;
layers = (
{
layerId = "147DC1DB-E812-4101-979E-17422C2E6004";
shapes = (
{
closed = 1;
nodes = (
(21,700,l),
(21,579,l),
(194,579,l),
(227,693,l),
(227,700,l)
);
},
{
alignment = -1;
pos = (102,0);
ref = Softcyr;
}
);
width = 735;
}
);
rightKerningGroup = Ljecyr;
unicode = 1066;
},
{
glyphname = Shacyr;
layers = (
{
layerId = "147DC1DB-E812-4101-979E-17422C2E6004";
shapes = (
{
closed = 1;
nodes = (
(893,0,l),
(893,700,l),
(747,700,l),
(747,120,l),
(558,120,l),
(558,700,l),
(412,700,l),
(412,120,l),
(223,120,l),
(223,700,l),
(77,700,l),
(77,0,l)
);
}
);
width = 970;
}
);
leftKerningGroup = B;
rightKerningGroup = H;
unicode = 1064;
},
{
glyphname = Ereversedcyr;
layers = (
{
anchors = (
{
name = top;
position = "{330, 719}";
}
);
layerId = "147DC1DB-E812-4101-979E-17422C2E6004";
shapes = (
{
closed = 1;
nodes = (
(542,298,l),
(207,298,l),
(207,418,l),
(542,418,l)
);
},
{
closed = 1;
nodes = (
(189,-20,o),
(108,22,o),
(33,106,c),
(118,191,l),
(165.756,135.549,o),
(222.467,104,o),
(301.066,104,cs,{name = dv02;}),
(435.381,104,o),
(510,199.639,o),
(510,355.423,cs),
(510,508.249,o),
(437.371,596,o),
(306.043,596,cs,{name = dv03;}),
(225.455,596,o),
(166.756,564.112,o),
(119,510,c),
(34,595,l),
(98,674,o),
(187,720,o),
(311,720,cs,{name = dv04;}),
(528,720,o),
(658,580,o),
(658,360,cs),
(658,130,o),
(516,-20,o),
(302,-20,cs,{name = dv01;})
);
}
);
width = 694;
}
);
leftKerningGroup = C1;
rightKerningGroup = C;
unicode = 1069;
},
{
glyphname = Becyr;
layers = (
{
layerId = "147DC1DB-E812-4101-979E-17422C2E6004";
shapes = (
{
closed = 1;
nodes = (
(118,579,l),
(545,579,l),
(545,700,l),
(85,700,l),
(85,693,l)
);
},
{
alignment = -1;
ref = Softcyr;
}
);
width = 633;
}
);
leftKerningGroup = B;
unicode = 1041;
},
{
glyphname = gecyr;
layers = (
{
anchors = (
{
name = top;
position = "{241, 520}";
},
{
name = bottom;
position = "{241, -20}";
}
);
layerId = "147DC1DB-E812-4101-979E-17422C2E6004";
shapes = (
{
closed = 1;
nodes = (
(74,0,l),
(219,0,l),
(219,390,l),
(414,390,l),
(414,500,l),
(74,500,l)
);
}
);
width = 441;
}
);
leftKerningGroup = i;
rightKerningGroup = r;
unicode = 1075;
},
{
glyphname = encyr;
layers = (
{
anchors = (
{
name = bottom;
position = "{306, -20}";
},
{
name = top;
position = "{306, 520}";
}
);
layerId = "147DC1DB-E812-4101-979E-17422C2E6004";
shapes = (
{
closed = 1;
nodes = (
(215,0,l),
(215,215,l),
(398,215,l),
(398,0,l),
(543,0,l),
(543,500,l),
(398,500,l),
(398,325,l),
(215,325,l),
(215,500,l),
(70,500,l),
(70,0,l)
);
}
);
width = 613;
}
);
leftKerningGroup = i;
rightKerningGroup = a1;
unicode = 1085;
},
{
glyphname = pecyr;
layers = (
{
anchors = (
{
name = bottom;
position = "{309, -20}";
},
{
name = top;
position = "{309, 520}";
}
);
layerId = "147DC1DB-E812-4101-979E-17422C2E6004";
shapes = (
{
closed = 1;
nodes = (
(215,0,l),
(215,390,l),
(403,390,l),
(403,0,l),
(548,0,l),
(548,500,l),
(70,500,l),
(70,0,l)
);
}
);
width = 618;
}
);
leftKerningGroup = i;
rightKerningGroup = a1;
unicode = 1087;
},
{
glyphname = icyr;
layers = (
{
anchors = (
{
name = top;
position = "{315, 520}";
},
{
name = bottom;
position = "{315, -20}";
}
);
layerId = "147DC1DB-E812-4101-979E-17422C2E6004";
shapes = (
{
closed = 1;
nodes = (
(70,500,l),
(70,0,l),
(200,0,l),
(414,284,l),
(414,0,l),
(559,0,l),
(559,500,l),
(429,500,l),
(215,216,l),
(215,500,l)
);
}
);
width = 629;
}
);
leftKerningGroup = i;
rightKerningGroup = a1;
unicode = 1080;
},
{
glyphname = Njecyr;
layers = (
{
layerId = "147DC1DB-E812-4101-979E-17422C2E6004";
shapes = (
{
closed = 1;
nodes = (
(78,0,l,{name = ab01;}),
(224,0,l),
(224,290,l,{name = dv01;}),
(482,290,l),
(482,0,l,{name = ab02;}),
(628,0,l),
(628,700,l,{name = at01;}),
(482,700,l),
(482,410,l),
(224,410,l,{name = dv02;}),
(224,700,l,{name = at02;}),
(78,700,l)
);
},
{
closed = 1;
nodes = (
(505,0,l),
(702,0,ls),
(890,0,o),
(951,84,o),
(951,204,cs),
(951,323,o),
(890,410,o),
(702,410,cs),
(525,410,l),
(540,290,l),
(663,290,ls),
(779,290,o),
(806,267,o),
(806,207,cs),
(806,142,o),
(775,120,o),
(655,120,cs),
(617,120,l),
(504,3,l)
);
}
);
width = 990;
}
);
leftKerningGroup = B;
rightKerningGroup = Ljecyr;
unicode = 1034;
},
{
glyphname = yucyr;
layers = (
{
anchors = (
{
name = bottom;
position = "{438, -20}";
},
{
name = top;
position = "{438, 520}";
}
);
layerId = "147DC1DB-E812-4101-979E-17422C2E6004";
shapes = (
{
closed = 1;
nodes = (
(182,200,l),
(358,200,l),
(358,310,l),
(182,310,l)
);
},
{
closed = 1;
nodes = (
(305,84,o),
(403,-20,o),
(564,-20,cs,{name = dv01;}),
(738,-20,o),
(823,84,o),
(823,255,cs),
(823,416,o),
(737,520,o),
(564,520,cs,{name = at01;}),
(402,520,o),
(305,416,o),
(305,255,cs)
);
},
{
closed = 1;
nodes = (
(675,145.346,o),
(643,90,o),
(564,90,cs,{name = dv02;}),
(492,90,o),
(453,146.352,o),
(453,255.031,cs),
(453,359.686,o),
(489,410,o),
(564,410,cs,{name = sv01;}),
(640,410,o),
(675,357.673,o),
(675,253.019,cs)
);
},
{
closed = 1;
nodes = (
(215,0,l),
(215,500,l),
(70,500,l),
(70,0,l)
);
}
);
width = 877;
}
);
leftKerningGroup = i;
rightKerningGroup = b1;
unicode = 1102;
},
{
glyphname = tecyr;
layers = (
{
anchors = (
{
name = bottom;
position = "{262, -20}";
},
{
name = top;
position = "{263, 520}";
}
);
layerId = "147DC1DB-E812-4101-979E-17422C2E6004";
shapes = (
{
closed = 1;
nodes = (
(27,500,l),
(27,390,l),
(190,390,l),
(190,0,l),
(335,0,l),
(335,390,l),
(498,390,l),
(498,500,l)
);
}
);
width = 525;
}
);
unicode = 1090;
},
{
glyphname = Checyr;
layers = (
{
anchors = (
{
name = top;
position = "{337, 719}";
}
);
layerId = "147DC1DB-E812-4101-979E-17422C2E6004";
shapes = (
{
closed = 1;
nodes = (
(451,0,l),
(597,0,l),
(597,700,l),
(451,700,l)
);
},
{
closed = 1;
nodes = (
(60,700,l),
(60,421,ls),
(60,275,o),
(139,200,o),
(267,200,cs),
(389,200,o),
(454,269,o),
(464,358,c),
(451,464,l),
(451,375,o),
(391,320,o),
(313,320,cs),
(242,320,o),
(206,365,o),
(206,464,cs),
(206,700,l)
);
}
);
width = 674;
}
);
rightKerningGroup = H;
unicode = 1063;
},
{
glyphname = checyr;
layers = (
{
anchors = (
{
name = bottom;
position = "{298, -20}";
},
{
name = top;
position = "{298, 520}";
}
);
layerId = "147DC1DB-E812-4101-979E-17422C2E6004";
shapes = (
{
closed = 1;
nodes = (
(380,0,l),
(525,0,l),
(525,500,l),
(380,500,l)
);
},
{
closed = 1;
nodes = (
(66,500,l),
(66,340,ls),
(66,203,o),
(155,144,o),
(241.61,144,cs),
(322,144,o),
(399,200,o),
(399,306,c),
(380,359,l),
(380,287.862,o),
(324,254,o),
(277,254,cs),
(233.413,254,o),
(211,279.184,o),
(211,339.828,cs),
(211,500,l)
);
}
);
width = 595;
}
);
rightKerningGroup = a1;
unicode = 1095;
},
{
glyphname = ereversedcyr;
layers = (
{
anchors = (
{
name = bottom;
position = "{301, -20}";
},
{
name = top;
position = "{281, 520}";
}
);
layerId = "147DC1DB-E812-4101-979E-17422C2E6004";
shapes = (
{
closed = 1;
nodes = (
(417,208,l),
(153,208,l),
(153,304,l),
(417,304,l)
);
},
{
closed = 1;
nodes = (
(351,90,o),
(376,163.459,o),
(376,255.031,cs),
(376,359.686,o),
(338,410,o),
(263,410,cs,{name = sv01;}),
(208,410,o),
(156,390.648,o),
(125,355,c),
(47,433,l),
(97,490,o),
(174,520,o),
(267,520,cs,{name = at01;}),
(429,520,o),
(521,416,o),
(521,255,cs),
(521,84,o),
(429,-20,o),
(268,-20,cs,{name = dv01;}),
(165,-20,o),
(89,10,o),
(39,67,c),
(117,145,l),
(146,111.389,o),
(190,90,o),
(246,90,cs,{name = dv02;})
);
}
);
width = 563;
}
);
leftKerningGroup = zecyr;
rightKerningGroup = b1;
unicode = 1101;
},
{
glyphname = shacyr;
layers = (
{
layerId = "147DC1DB-E812-4101-979E-17422C2E6004";
shapes = (
{
closed = 1;
nodes = (
(809,0,l),
(809,500,l),
(664,500,l),
(664,111,l),
(512,111,l),
(512,500,l),
(367,500,l),
(367,111,l),
(215,111,l),
(215,500,l),
(70,500,l),
(70,0,l)
);
}
);
width = 879;
}
);
leftKerningGroup = i;
rightKerningGroup = a1;
unicode = 1096;
},
{
glyphname = Shchacyr;
layers = (
{
layerId = "147DC1DB-E812-4101-979E-17422C2E6004";
shapes = (
{
closed = 1;
nodes = (
(77,0,l),
(77,700,l),
(223,700,l),
(223,120,l),
(413,120,l),
(413,700,l),
(559,700,l),
(559,120,l),
(749,120,l),
(749,700,l),
(895,700,l),
(895,120,l),
(995,120,o),
(1027,96,o),
(1027,-140,c),
(907,-140,l),
(907,-42,o),
(915,0,o),
(844,0,cs)
);
}
);
width = 1060;
}
);
leftKerningGroup = B;
unicode = 1065;
},
{
glyphname = Tsecyr;
layers = (
{
layerId = "147DC1DB-E812-4101-979E-17422C2E6004";
shapes = (
{
closed = 1;
nodes = (
(556,0,ls),
(627,0,o),
(619,-42,o),
(619,-140,c),
(739,-140,l),
(739,96,o),
(707,120,o),
(607,120,c),
(607,701,l),
(461,701,l),
(461,120,l),
(223,120,l),
(223,701,l),
(77,701,l),
(77,0,l)
);
}
);
width = 760;
}
);
leftKerningGroup = B;
unicode = 1062;
},
{
glyphname = shchacyr;
layers = (
{
layerId = "147DC1DB-E812-4101-979E-17422C2E6004";
shapes = (
{
closed = 1;
nodes = (
(771,0,ls),
(839,0,o),
(824,-102,o),
(824,-140,c),
(930,-140,l),
(930,69,o),
(909,109,o),
(809,109,c),
(809,500,l),
(664,500,l),
(664,110,l),
(512,110,l),
(512,500,l),
(367,500,l),
(367,110,l),
(215,110,l),
(215,500,l),
(70,500,l),
(70,0,l)
);
}
);
width = 954;
}
);
leftKerningGroup = i;
rightKerningGroup = l;
unicode = 1097;
},
{
glyphname = tsecyr;
layers = (
{
layerId = "147DC1DB-E812-4101-979E-17422C2E6004";
shapes = (
{
closed = 1;
nodes = (
(506,0,ls),
(573,0,o),
(559,-72,o),
(559,-140,c),
(665,-140,l),
(665,69,o),
(644,108,o),
(544,108,c),
(544,500,l),
(399,500,l),
(399,110,l),
(215,110,l),
(215,500,l),
(70,500,l),
(70,0,l)
);
}
);
width = 686;
}
);
leftKerningGroup = i;
rightKerningGroup = l;
unicode = 1094;
},
{
glyphname = Decyr;
layers = (
{
layerId = "147DC1DB-E812-4101-979E-17422C2E6004";
shapes = (
{
closed = 1;
nodes = (
(351,660,l),
(355,580,l),
(566,580,l),
(566,120,l),
(288,120,l),
(366,194,o),
(373,237,o),
(373,682,c)
);
},
{
closed = 1;
nodes = (
(59,121,o),
(20,101,o),
(20,-140,c),
(140,-140,l),
(140,-47,o),
(137,0,o),
(196,0,cs),
(661,0,ls),
(732,0,o),
(724,-42,o),
(724,-140,c),
(844,-140,l),
(844,101,o),
(812,119,o),
(712,119,c),
(712,700,l),
(227,700,l),
(227,671,ls),
(227,235,o),
(213,194,o),
(148,121,c)
);
}
);
width = 864;
}
);
unicode = 1044;
},
{
glyphname = Elcyr;
layers = (
{
layerId = "147DC1DB-E812-4101-979E-17422C2E6004";
shapes = (
{
closed = 1;
nodes = (
(297,-20,o),
(325,74,o),
(325,580,c),
(538,580,l),
(538,0,l),
(683,0,l),
(683,700,l),
(180,700,l),
(180,231,o),
(169,100,o),
(113,100,cs),
(97,100,o),
(81,111,o),
(55,130,c),
(29,9,l),
(70,-9,o),
(98,-20,o),
(149,-20,cs)
);
}
);
width = 760;
}
);
rightKerningGroup = H;
unicode = 1051;
},
{
glyphname = elcyr;
layers = (
{
layerId = "147DC1DB-E812-4101-979E-17422C2E6004";
shapes = (
{
closed = 1;
nodes = (
(108,89,o),
(117,184,o),
(117,500,c),
(527,500,l),
(527,0,l),
(382,0,l),
(382,390,l),
(262,390,l),
(262,83,o),
(215,-20,o),
(76,-20,cs),
(57,-20,o),
(37,-18,o),
(17,-14,c),
(40,94,l),
(49,90,o),
(56,89,o),
(61,89,cs)
);
}
);
width = 600;
}
);
rightKerningGroup = a1;
unicode = 1083;
},
{
glyphname = Efcyr;
layers = (
{
layerId = "147DC1DB-E812-4101-979E-17422C2E6004";
shapes = (
{
closed = 1;
nodes = (
(345,-20,l),
(491,-20,l),
(491,60,l),
(669,60,o),
(793,178,o),
(793,354,cs),
(793,528,o),
(671,642,o),
(491,642,c),
(491,722,l),
(345,722,l),
(345,642,l),
(165,642,o),
(43,528,o),
(43,354,cs),
(43,178,o),
(167,60,o),
(345,60,c)
);
},
{
closed = 1;
nodes = (
(491,522,l),
(598,522,o),
(647,468,o),
(647,353,cs),
(647,255,o),
(612,180,o),
(491,180,c)
);
},
{
closed = 1;
nodes = (
(345,180,l),
(241,180,o),
(189,239,o),
(189,355,cs),
(189,468,o),
(238,522,o),
(345,522,c)
);
}
);
width = 836;
}
);
leftKerningGroup = C1;
rightKerningGroup = C;
unicode = 1060;
},
{
glyphname = Zecyr;
layers = (
{
anchors = (
{
name = bottom;
position = "{294, -20}";
},
{
name = top;
position = "{294, 719}";
}
);
layerId = "147DC1DB-E812-4101-979E-17422C2E6004";
shapes = (
{
closed = 1;
nodes = (
(380,467.246,o),
(333,424,o),
(241,414,c),
(241,314,l),
(342.295,323,o),
(412.5,277,o),
(412.5,204,cs),
(412.5,143,o),
(364.422,100,o),
(284.292,100,cs),
(217.182,100,o),
(152.077,130,o),
(105,187,c),
(20,102,l),
(92.932,20,o),
(180.85,-20,o),
(286.752,-20,cs),
(444.605,-20,o),
(557.5,69,o),
(557.5,198,cs),
(557.5,294,o),
(495.661,355,o),
(366,371,c),
(483,399,o),
(525,451,o),
(525,532,cs),
(525,648,o),
(439,720,o),
(293,720,cs),
(180,720,o),
(83,677.355,o),
(20,600,c),
(105,514,l),
(152,568.635,o),
(218,600,o),
(282,600,cs),
(349,600,o),
(380,566.811,o),
(380,522.56,cs)
);
}
);
width = 588;
}
);
rightKerningGroup = B1;
unicode = 1047;
},
{
glyphname = Ljecyr;
layers = (
{
layerId = "147DC1DB-E812-4101-979E-17422C2E6004";
shapes = (
{
closed = 1;
nodes = (
(297,-20,o),
(326,74,o),
(326,580,c),
(507,580,l),
(507,0,l),
(653,0,l),
(653,700,l),
(180,700,l),
(180,231,o),
(169,102,o),
(113,102,cs),
(97,102,o),
(81,112,o),
(55,130,c),
(29,9,l),
(70,-9,o),
(98,-20,o),
(149,-20,cs)
);
},
{
closed = 1;
nodes = (
(559,0,l),
(726,0,ls),
(894,0,o),
(975,65,o),
(975,199,cs),
(975,337,o),
(889,410,o),
(726,410,cs),
(549,410,l),
(564,290,l),
(693,290,ls),
(792,290,o),
(830,266,o),
(830,203,cs),
(830,141,o),
(793,120,o),
(687,120,cs),
(621,120,l),
(558,4,l)
);
}
);
width = 1014;
}
);
rightKerningGroup = Ljecyr;
unicode = 1033;
},
{
glyphname = becyr;
layers = (
{
layerId = "147DC1DB-E812-4101-979E-17422C2E6004";
shapes = (
{
closed = 1;
nodes = (
(527,639,l),
(497.308,612,o),
(431.204,588.132,o),
(336.395,578,cs),
(187.919,562.132,o),
(141,515,o),
(141,343,c),
(173,425.394,o),
(252.6,479,o),
(357.135,479,cs),
(487.564,479,o),
(571,394.17,o),
(571,235.488,cs),
(571,70.818,o),
(480.933,-20,o),
(315.327,-20,cs),
(136.161,-20,o),
(49,86.699,o),
(49,333.003,cs),
(49,551.386,o),
(117.531,660.323,o),
(344.491,688,cs),
(388.882,693.413,o),
(472.923,707.644,o),
(527,749,c)
);
},
{
closed = 1;
nodes = (
(385.053,90,o),
(426,142,o),
(426,233,cs),
(426,322,o),
(386.914,369,o),
(312.465,369,cs),
(237.086,369,o),
(198,322,o),
(198,231,cs),
(198,142,o),
(235.224,90,o),
(310.604,90,cs)
);
}
);
width = 620;
}
);
leftKerningGroup = germandbls1;
rightKerningGroup = germandbls;
unicode = 1073;
},
{
glyphname = decyr;
layers = (
{
anchors = (
{
name = bottom;
position = "{409, -20}";
},
{
name = top;
position = "{410, 520}";
}
);
layerId = "147DC1DB-E812-4101-979E-17422C2E6004";
shapes = (
{
closed = 1;
nodes = (
(143,-140,l),
(144,-107,o),
(130,0,o),
(189,0,cs),
(586,0,ls),
(657,0,o),
(638,-102,o),
(638,-140,c),
(744,-140,l),
(744,69,o),
(723,109,o),
(623,109,c),
(623,500,l),
(207,500,l),
(207,334,ls),
(207,212,o),
(195,142,o),
(170,111,c),
(70,111,o),
(36,74,o),
(36,-140,c)
);
},
{
closed = 1;
nodes = (
(259,110,l),
(330,126,o),
(352,182,o),
(352,390,c),
(478,390,l),
(478,110,l)
);
}
);
width = 780;
}
);
rightKerningGroup = l;
unicode = 1076;
},
{
glyphname = Tshecyr;
layers = (
{
layerId = "147DC1DB-E812-4101-979E-17422C2E6004";
shapes = (
{
closed = 1;
nodes = (
(21,700,l),
(21,580,l),
(172,580,l),
(172,0,l),
(318,0,l),
(318,580,l),
(562,580,l),
(562,700,l)
);
},
{
closed = 1;
nodes = (
(678,0,l),
(678,257,ls),
(678,403,o),
(605,478,o),
(490,478,cs),
(380,478,o),
(315,409,o),
(305,320,c),
(318,214,l),
(318,303,o),
(378,358,o),
(448,358,cs),
(507,358,o),
(532,318,o),
(532,254,cs),
(532,0,l)
);
}
);
width = 752;
}
);
leftKerningGroup = T;
unicode = 1035;
},
{
glyphname = Djecyr;
layers = (
{
layerId = "147DC1DB-E812-4101-979E-17422C2E6004";
shapes = (
{
closed = 1;
nodes = (
(473,-21,o),
(460,-12,o),
(413,2,c),
(442,114,l),
(461,105,o),
(486,102,o),
(499,102,cs,{name = dv02;}),
(547,102,o),
(576,146,o),
(576,221,cs),
(576,307,o),
(536.921,356,o),
(470.787,356,cs),
(388.621,356,o),
(328.5,281,o),
(328.5,190,cs),
(328.5,0,l),
(183.5,0,l),
(183.5,580,l),
(21,580,l),
(21,700,l),
(564,700,l),
(564,580,l),
(328.5,580,l),
(328.5,352,l),
(364.546,424,o),
(426.625,466,o),
(513.736,466,cs),
(638.895,466,o),
(721,379,o),
(721,226,cs),
(721,78,o),
(644,-21,o),
(513,-21,cs,{name = dv01;})
);
}
);
width = 770;
}
);
leftKerningGroup = T;
unicode = 1026;
},
{
glyphname = zecyr;
layers = (
{
anchors = (
{
name = top;
position = "{250, 520}";
},
{
name = bottom;
position = "{270, -20}";
}
);
layerId = "147DC1DB-E812-4101-979E-17422C2E6004";
shapes = (
{
closed = 1;
nodes = (
(372,-20,o),
(465,46,o),
(465,149,cs),
(465,229.046,o),
(406.281,275,o),
(304,275,c),
(388.894,275,o),
(438,316.411,o),
(438,388,cs),
(438,473,o),
(366,520,o),
(246,520,cs,{name = at01;}),
(148,520,o),
(74,489,o),
(25,433,c),
(113,345,l),
(145,389.688,o),
(180,410,o),
(228,410,cs,{name = sv01;}),
(272,410,o),
(296,392.813,o),
(296,362.484,cs),
(296,329.121,o),
(268,318,o),
(179,314,c),
(179,219,l),
(285,227,o),
(322,211,o),
(322,164,cs),
(322,115.342,o),
(285,90,o),
(228,90,cs),
(178,90,o),
(147,109.25,o),
(104,167,c),
(17,80,l),
(73,12,o),
(143,-20,o),
(237,-20,cs)
);
}
);
width = 515;
}
);
leftKerningGroup = s1;
rightKerningGroup = s;
unicode = 1079;
},
{
glyphname = emcyr;
layers = (
{
layerId = "147DC1DB-E812-4101-979E-17422C2E6004";
shapes = (
{
closed = 1;
nodes = (
(215,0,l),
(215,253,l),
(309,90,l),
(380,90,l),
(474,253,l),
(474,0,l),
(619,0,l),
(619,500,l),
(488,500,l),
(344,251,l),
(200,500,l),
(70,500,l),
(70,0,l)
);
}
);
width = 689;
}
);
leftKerningGroup = i;
rightKerningGroup = a1;
unicode = 1084;
},
{
glyphname = softcyr;
layers = (
{
anchors = (
{
name = bottom;
position = "{268, -20}";
},
{
name = top;
position = "{268, 520}";
}
);
layerId = "147DC1DB-E812-4101-979E-17422C2E6004";
shapes = (
{
closed = 1;
nodes = (
(111,332,l),
(111,222,l),
(263,222,ls),
(317,222,o),
(341,201,o),
(341,167,cs),
(341,131,o),
(317,110,o),
(263,110,cs),
(215,110,l),
(215,500,l),
(70,500,l),
(70,0,l),
(293,0,ls),
(412,0,o),
(486,66,o),
(486,171,cs),
(486,272,o),
(413,332,o),
(292,332,cs)
);
}
);
width = 536;
}
);
leftKerningGroup = i;
rightKerningGroup = hardcyr;
unicode = 1100;
},
{
glyphname = hardcyr;
layers = (
{
layerId = "147DC1DB-E812-4101-979E-17422C2E6004";
shapes = (
{
closed = 1;
nodes = (
(21,500,l),
(21,390,l),
(179,390,l),
(212,496,l),
(212,500,l)
);
},
{
alignment = -1;
pos = (64,0);
ref = softcyr;
}
);
width = 600;
}
);
rightKerningGroup = hardcyr;
unicode = 1098;
},
{
glyphname = vecyr;
layers = (
{
anchors = (
{
name = top;
position = "{273, 520}";
},
{
name = bottom;
position = "{273, -20}";
}
);
layerId = "147DC1DB-E812-4101-979E-17422C2E6004";
shapes = (
{
closed = 1;
nodes = (
(70,0,l),
(296,0,ls),
(432,0,o),
(496,44,o),
(496,135,cs),
(496,216,o),
(446,261,o),
(343,265,c),
(431,283,o),
(464,314,o),
(464,383,cs),
(464,467,o),
(415,500,o),
(286,500,cs),
(70,500,l)
);
},
{
closed = 1;
nodes = (
(215,110,l),
(215,390,l),
(256,390,ls),
(307,390,o),
(328,376,o),
(328,347,cs),
(328,315,o),
(302,299,o),
(251,299,cs),
(92,299,l),
(92,207,l),
(270,207,ls),
(338,207,o),
(360,192,o),
(360,159,cs),
(360,129,o),
(341,110,o),
(276,110,cs)
);
}
);
width = 546;
}
);
leftKerningGroup = i;
unicode = 1074;
},
{
glyphname = yacyr;
layers = (
{
anchors = (
{
name = bottom;
position = "{300, -20}";
},
{
name = top;
position = "{300, 520}";
}
);
layerId = "147DC1DB-E812-4101-979E-17422C2E6004";
shapes = (
{
closed = 1;
nodes = (
(500,0,l),
(500,500,l),
(276.258,500,ls),
(137.418,500,o),
(66.5,444,o),
(66.5,346,cs),
(66.5,280,o),
(99.319,229,o),
(157,196,c),
(57,0,l),
(202,0,l),
(284,162,l),
(355,162,l),
(355,0,l)
);
},
{
closed = 1;
nodes = (
(355,272,l),
(306.832,272,ls),
(245.619,272,o),
(211.5,293,o),
(211.5,332,cs),
(211.5,370,o),
(245.619,390,o),
(306.832,390,cs),
(355,390,l)
);
}
);
width = 570;
}
);
rightKerningGroup = a1;
unicode = 1103;
},
{
glyphname = Geupcyr;
layers = (
{
layerId = "147DC1DB-E812-4101-979E-17422C2E6004";
shapes = (
{
closed = 1;
nodes = (
(77,700,l),
(77,0,l),
(223,0,l),
(223,580,l),
(333,580,ls),
(497,580,o),
(537,639,o),
(537,814,c),
(417,814,l),
(417,720,o),
(400,700,o),
(345,700,cs)
);
}
);
width = 557;
}
);
leftKerningGroup = B;
rightKerningGroup = F;
unicode = 1168;
},
{
glyphname = geupcyr;
layers = (
{
layerId = "147DC1DB-E812-4101-979E-17422C2E6004";
shapes = (
{
closed = 1;
nodes = (
(362,390,ls),
(462,390,o),
(483,429,o),
(483,638,c),
(373,638,l),
(373,601,o),
(385,500,o),
(331,500,cs),
(70,500,l),
(70,0,l),
(215,0,l),
(215,390,l)
);
}
);
width = 510;
}
);
leftKerningGroup = i;
rightKerningGroup = r;
unicode = 1169;
},
{
glyphname = Dzhecyr;
layers = (
{
layerId = "147DC1DB-E812-4101-979E-17422C2E6004";
shapes = (
{
closed = 1;
nodes = (
(285,0,l),
(297,-38,o),
(298,-119,o),
(287,-158,c),
(402,-158,l),
(415,-105,o),
(414,-52,o),
(398,0,c),
(606,0,l),
(606,700,l),
(460,700,l),
(460,121,l),
(223,121,l),
(223,700,l),
(77,700,l),
(77,0,l)
);
}
);
width = 683;
}
);
leftKerningGroup = B;
rightKerningGroup = H;
unicode = 1039;
},
{
glyphname = dzhecyr;
layers = (
{
layerId = "147DC1DB-E812-4101-979E-17422C2E6004";
shapes = (
{
closed = 1;
nodes = (
(251,0,l),
(266,-42,o),
(264,-97,o),
(255,-141,c),
(360,-141,l),
(376,-88,o),
(372,-52,o),
(354,0,c),
(535,0,l),
(535,500,l),
(390,500,l),
(390,110,l),
(215,110,l),
(215,500,l),
(70,500,l),
(70,0,l)
);
}
);
width = 605;
}
);
leftKerningGroup = i;
rightKerningGroup = a1;
unicode = 1119;
},
{
glyphname = tau;
layers = (
{
anchors = (
{
name = topgr;
position = "{210, 520}";
}
);
layerId = "147DC1DB-E812-4101-979E-17422C2E6004";
shapes = (
{
closed = 1;
nodes = (
(35,500,l),
(35,390,l),
(379,390,l),
(379,500,l)
);
},
{
alignment = -1;
pos = (72,0);
ref = iota;
}
);
width = 421;
}
);
rightKerningGroup = l;
unicode = 964;
},
{
glyphname = gamma;
layers = (
{
anchors = (
{
name = topgr;
position = "{272, 520}";
}
);
layerId = "147DC1DB-E812-4101-979E-17422C2E6004";
shapes = (
{
closed = 1;
nodes = (
(199,-200,l),
(344,-200,l),
(344,70,l),
(337,-16,l),
(528,500,l),
(372,500,l),
(267,165,l),
(276,165,l),
(171,500,l),
(15,500,l),
(206,-16,l),
(199,70,l)
);
}
);
width = 543;
}
);
leftKerningGroup = v;
rightKerningGroup = v1;
unicode = 947;
},
{
glyphname = Sigma;
layers = (
{
layerId = "147DC1DB-E812-4101-979E-17422C2E6004";
shapes = (
{
closed = 1;
nodes = (
(524,0,l),
(524,120,l),
(238,120,l),
(445,350,l),
(238,580,l),
(524,580,l),
(524,700,l),
(31,700,l),
(31,610,l),
(265,350,l),
(31,90,l),
(31,0,l)
);
}
);
width = 570;
}
);
unicode = 931;
},
{
glyphname = Xi;
layers = (
{
layerId = "147DC1DB-E812-4101-979E-17422C2E6004";
shapes = (
{
closed = 1;
nodes = (
(65,580,l),
(548,580,l),
(548,700,l),
(65,700,l)
);
},
{
closed = 1;
nodes = (
(65,120,l),
(65,0,l),
(548,0,l),
(548,120,l)
);
},
{
closed = 1;
nodes = (
(493,291,l),
(493,407,l),
(121,407,l),
(121,291,l)
);
}
);
width = 593;
}
);
rightKerningGroup = E;
unicode = 926;
},
{
glyphname = iota;
layers = (
{
anchors = (
{
name = topgr;
position = "{141, 520}";
}
);
layerId = "147DC1DB-E812-4101-979E-17422C2E6004";
shapes = (
{
closed = 1;
nodes = (
(66,500,l),
(211,500,l),
(211,187,ls),
(211,125,o),
(220,110,o),
(267,110,c),
(267,0,l),
(229,0,ls),
(110,0,o),
(66,47,o),
(66,153,cs)
);
}
);
width = 310;
}
);
leftKerningGroup = i;
rightKerningGroup = l;
unicode = 953;
},
{
glyphname = Psi;
layers = (
{
anchors = (
{
name = topgr;
position = "{442, 720}";
}
);
layerId = "147DC1DB-E812-4101-979E-17422C2E6004";
shapes = (
{
closed = 1;
nodes = (
(369,0,l),
(513,0,l),
(513,700,l),
(369,700,l)
);
},
{
closed = 1;
nodes = (
(60,701,l),
(60,432,ls),
(60,265,o),
(203,164,o),
(441,164,cs),
(680,164,o),
(823,265,o),
(823,432,cs),
(823,701,l),
(677,701,l),
(677,443,ls),
(677,335,o),
(603,284,o),
(444,284,cs),
(285,284,o),
(206,336,o),
(206,443,cs),
(206,701,l)
);
}
);
width = 883;
}
);
unicode = 936;
},
{
glyphname = ae.ss02;
layers = (
{
layerId = "147DC1DB-E812-4101-979E-17422C2E6004";
shapes = (
{
closed = 1;
nodes = (
(223.46,410,o),
(176.42,390.64,o),
(146.04,355,c),
(69.59,433,l),
(118.6,490,o),
(195.04,520,o),
(289.12,520,cs,{name = at01;}),
(364.85,520,o),
(418.04,500.34,o),
(452.05,468.94,c),
(495.39,502.33,o),
(551.98,520,o),
(617.85,520,cs,{name = at01;}),
(775.96,520,o),
(866.17,419,o),
(866.17,222,c,{name = dv03;}),
(502.42,222,l,{name = sv04;}),
(502.42,134.33,o),
(544.78,90,o),
(630.48,90,cs,{name = sv01;}),
(687.29,90,o),
(734.47,109.35,o),
(764.32,145,c),
(839.98,67,l),
(791.48,10,o),
(714.85,-20,o),
(624.64,-20,cs,{name = at01;}),
(520.32,-20,o),
(443.43,20.12,o),
(399.91,89.95,c),
(359.035,18.251,o),
(286.2,-20,o),
(215.088,-20,cs),
(119.58,-20,o),
(50,49,o),
(50,146,cs),
(50,243,o),
(119.58,312,o),
(219.54,312,cs),
(282.32,312,o),
(331.65,284.47,o),
(357.78,235.85,c,{name = sv03;}),
(357.78,330.8,ls),
(357.78,382.93,o),
(332.24,410,o),
(273.44,410,cs,{name = sv01;})
);
},
{
closed = 1;
nodes = (
(722.61,322,l,{name = dv04;}),
(713.95,376.62,o),
(675.51,410,o),
(615.91,410,cs,{name = sv01;}),
(555.36,410,o),
(511.15,376.62,o),
(502.42,322,c,{name = sv02;})
);
},
{
closed = 1;
nodes = (
(193.08,111,o),
(216.6,90,o),
(258.74,90,cs),
(305.33,90,o),
(347.35,115.54,o),
(357.75,157.24,c),
(340.45,184.69,o),
(304.45,202,o),
(262.66,202,cs),
(217.58,202,o),
(193.08,182,o),
(193.08,146,cs)
);
}
);
width = 904;
}
);
leftKerningGroup = a.ss02;
},
{
glyphname = upsilon;
layers = (
{
anchors = (
{
name = topgr;
position = "{283, 520}";
}
);
layerId = "147DC1DB-E812-4101-979E-17422C2E6004";
shapes = (
{
closed = 1;
nodes = (
(66,500,l),
(66,185,ls),
(66,54,o),
(157,-20,o),
(306,-20,cs),
(477,-20,o),
(559,77,o),
(559,252,cs),
(559,349,o),
(534,434,o),
(492,500,c),
(353,500,l),
(388,431,o),
(414,357,o),
(414,264,cs),
(414,157,o),
(380,90,o),
(304,90,cs),
(245,90,o),
(211,131,o),
(211,222,cs),
(211,500,l)
);
}
);
width = 608;
}
);
leftKerningGroup = i;
rightKerningGroup = b1;
unicode = 965;
},
{
glyphname = delta;
layers = (
{
anchors = (
{
name = topgr;
position = "{308, 721}";
}
);
layerId = "147DC1DB-E812-4101-979E-17422C2E6004";
shapes = (
{
closed = 1;
nodes = (
(422,136,o),
(381,90,o),
(306,90,cs),
(230,90,o),
(194,138,o),
(194,220,cs),
(194,308,o),
(236,357,o),
(307,357,cs),
(378,357,o),
(422,308,o),
(422,220,cs)
);
},
{
closed = 1;
nodes = (
(49,82,o),
(143,-20,o),
(309,-20,cs),
(470,-20,o),
(567,75,o),
(567,226,cs),
(567,376,o),
(471,467,o),
(310,467,cs),
(142,467,o),
(49,369,o),
(49,226,cs)
);
},
{
closed = 1;
nodes = (
(261,587.87,o),
(281,609,o),
(323,609,cs),
(360,609,o),
(400,592.636,o),
(435,564,c),
(513,642,l),
(461,690,o),
(393,719,o),
(312,719,cs),
(190,719,o),
(116,653,o),
(116,573,cs),
(116,483,o),
(210,444,o),
(305,438,c),
(430,446,l),
(344,482.222,o),
(261,512.407,o),
(261,562.716,cs)
);
}
);
width = 616;
}
);
leftKerningGroup = germandbls1;
rightKerningGroup = germandbls;
unicode = 948;
},
{
glyphname = sigmafinal;
layers = (
{
anchors = (
{
name = topgr;
position = "{295, 520}";
}
);
layerId = "147DC1DB-E812-4101-979E-17422C2E6004";
shapes = (
{
closed = 1;
nodes = (
(231,410,o),
(184,356.667,o),
(184,244.969,cs),
(184,142.327,o),
(223,90,o),
(338,90,cs),
(482,90,o),
(548,9.278,o),
(548,-82.405,cs),
(548,-139.21,o),
(523.39,-180.069,o),
(502.567,-200,c),
(371,-200,l),
(396,-166,o),
(413,-143,o),
(413,-101,cs),
(413,-56,o),
(392.451,-20,o),
(294.841,-20,cs),
(128.39,-20,o),
(39,86,o),
(39,248,cs),
(39,423,o),
(140,520,o),
(304,520,cs,{name = at01;}),
(395,520,o),
(473,490,o),
(523,433,c),
(445,355,l),
(418,389.63,o),
(375,410,o),
(320,410,cs,{name = sv01;})
);
}
);
width = 590;
}
);
leftKerningGroup = a;
unicode = 962;
},
{
glyphname = theta;
layers = (
{
anchors = (
{
name = topgr;
position = "{322, 721}";
}
);
layerId = "147DC1DB-E812-4101-979E-17422C2E6004";
shapes = (
{
closed = 1;
nodes = (
(49,110,o),
(146,-20,o),
(324,-20,cs),
(500,-20,o),
(595,109,o),
(595,348,cs),
(595,586,o),
(497,720,o),
(324,720,cs),
(149,720,o),
(49,585,o),
(49,348,cs)
);
},
{
closed = 1;
nodes = (
(235,90,o),
(195,168,o),
(195,346,cs),
(195,532,o),
(233,610,o),
(324,610,cs),
(413,610,o),
(450,532,o),
(450,346,cs),
(450,164,o),
(414,90,o),
(324,90,cs)
);
},
{
closed = 1;
nodes = (
(191,300,l),
(454,300,l),
(454,400,l),
(191,400,l)
);
}
);
width = 644;
}
);
leftKerningGroup = germandbls1;
rightKerningGroup = germandbls;
unicode = 952;
},
{
glyphname = sigma;
layers = (
{
anchors = (
{
name = ogonek;
position = "{417, -3}";
},
{
name = bottom;
position = "{308, -20}";
},
{
name = topgr;
position = "{308, 520}";
}
);
layerId = "147DC1DB-E812-4101-979E-17422C2E6004";
shapes = (
{
closed = 1;
nodes = (
(49,80.148,o),
(147,-20,o),
(308,-20,cs,{name = dv01;}),
(482,-20,o),
(567,80.148,o),
(567,244.815,cs),
(567,399.852,o),
(481,500,o),
(308,500,cs,{name = at01;}),
(146,500,o),
(49,399.852,o),
(49,244.815,cs)
);
},
{
closed = 1;
nodes = (
(419,139.222,o),
(387,85.926,o),
(308,85.926,cs,{name = dv02;}),
(236,85.926,o),
(197,140.191,o),
(197,244.845,cs),
(197,345.623,o),
(233,394.074,o),
(308,394.074,cs,{name = sv01;}),
(384,394.074,o),
(419,343.685,o),
(419,242.907,cs)
);
},
{
closed = 1;
nodes = (
(304,500,l),
(346,390,l),
(621,390,l),
(621,500,l)
);
}
);
width = 648;
}
);
leftKerningGroup = a;
unicode = 963;
},
{
glyphname = chi;
layers = (
{
anchors = (
{
name = topgr;
position = "{323, 520}";
}
);
layerId = "147DC1DB-E812-4101-979E-17422C2E6004";
shapes = (
{
closed = 1;
nodes = (
(607,-109,l),
(486.907,-109,o),
(429.636,-38.113,o),
(376.701,176.053,cs),
(313.627,431.239,o),
(231.639,520,o),
(59,520,c),
(59,410,l),
(158.529,410,o),
(207.213,345.694,o),
(258.051,147.077,cs),
(326.967,-122.166,o),
(419.27,-219,o),
(607,-219,c)
);
},
{
closed = 1;
nodes = (
(36,-200,l,{name = ab01;}),
(195,-200,l),
(609,500,l,{name = at01;}),
(450,500,l)
);
}
);
width = 646;
}
);
unicode = 967;
},
{
glyphname = lambda;
layers = (
{
anchors = (
{
name = topgr;
position = "{300, 721}";
}
);
layerId = "147DC1DB-E812-4101-979E-17422C2E6004";
shapes = (
{
closed = 1;
nodes = (
(162,639,o),
(189.326,603.088,o),
(211,522,cs),
(296,204,ls),
(347.299,12.08,o),
(414,-20,o),
(485,-20,cs),
(520,-20,o),
(546,-12,o),
(584,3,c),
(561,105,l),
(543,96,o),
(532,95,o),
(524,95,cs),
(499,95,o),
(462.286,105.046,o),
(442,180.738,cs),
(341,557.585,ls),
(299.296,713.189,o),
(237,749,o),
(143,749,cs),
(99,749,o),
(62,741.696,o),
(25,728,c),
(46,627,l),
(63,634,o),
(83,639,o),
(104,639,cs)
);
},
{
closed = 1;
nodes = (
(281.038,294.223,l),
(220.21,510.964,l),
(24,0,l),
(169,0,l)
);
}
);
width = 600;
}
);
unicode = 955;
},
{
glyphname = zeta;
layers = (
{
anchors = (
{
name = topgr;
position = "{280, 721}";
}
);
layerId = "147DC1DB-E812-4101-979E-17422C2E6004";
shapes = (
{
closed = 1;
nodes = (
(451,91,o),
(511,10,o),
(511,-82,cs),
(511,-139,o),
(486.39,-180,o),
(465.567,-200,c),
(334,-200,l),
(359,-166,o),
(376,-143,o),
(376,-101,cs),
(376,-56,o),
(357.404,-20,o),
(274.755,-20,cs),
(137.351,-20,o),
(64,80,o),
(64,212,cs),
(64,349,o),
(141,465,o),
(339,590,c),
(49,590,l),
(49,700,l),
(492,700,l),
(492,597,l),
(278,451,o),
(209,347,o),
(209,221,cs),
(209,131,o),
(244,91,o),
(339,91,cs)
);
}
);
width = 560;
}
);
leftKerningGroup = germandbls1;
rightKerningGroup = germandbls;
unicode = 950;
},
{
glyphname = xi;
layers = (
{
layerId = "147DC1DB-E812-4101-979E-17422C2E6004";
shapes = (
{
closed = 1;
nodes = (
(72,590,l),
(435,590,l),
(435,700,l),
(72,700,l)
);
},
{
closed = 1;
nodes = (
(226.565,89,o),
(184.5,115,o),
(184.5,164.484,cs),
(184.5,234.935,o),
(268.669,271,o),
(433,271,c),
(433,371,l),
(297.682,371,o),
(220.5,409.174,o),
(220.5,474.472,cs),
(220.5,537.761,o),
(294.674,578.95,o),
(434,590,c),
(418,633,l),
(204.312,625.827,o),
(75.5,561.269,o),
(75.5,459.82,cs),
(75.5,389.113,o),
(138.317,343,o),
(247,326,c),
(114.32,321,o),
(39.5,258.093,o),
(39.5,150.886,cs),
(39.5,41.907,o),
(118.758,-21,o),
(255.657,-21,cs),
(353.443,-21,o),
(373,-57,o),
(373,-101,cs),
(373,-143,o),
(356,-166,o),
(331,-200,c),
(462.567,-200,l),
(483.39,-180.137,o),
(508,-139.419,o),
(508,-82.811,cs),
(508,8.557,o),
(441.898,89,o),
(308.692,89,cs)
);
}
);
width = 529;
}
);
leftKerningGroup = germandbls1;
rightKerningGroup = germandbls;
unicode = 958;
},
{
glyphname = f_f;
layers = (
{
layerId = "147DC1DB-E812-4101-979E-17422C2E6004";
shapes = (
{
closed = 1;
nodes = (
(109,390,l,{name = dv03;}),
(109,0,l,{name = ab01;}),
(254,0,l),
(254,390,l,{name = sv01;}),
(390,390,l),
(390,500,l,{name = sv02;}),
(254,500,l),
(254,569,ls),
(254,620,o),
(273,637,o),
(310,637,cs,{name = dv01;}),
(326,637,o),
(357,634,o),
(375,627,c),
(396,728,l),
(337,746,o),
(307,751,o),
(276,751,cs,{name = dv02;}),
(164,751,o),
(109,684,o),
(109,588,cs),
(109,500,l,{name = dv04;}),
(22,500,l),
(22,390,l)
);
},
{
closed = 1;
nodes = (
(486,390,l,{name = dv03;}),
(486,0,l,{name = ab01;}),
(631,0,l),
(631,390,l,{name = sv01;}),
(767,390,l),
(767,500,l,{name = sv02;}),
(631,500,l),
(631,569,ls),
(631,620,o),
(650,637,o),
(687,637,cs,{name = dv01;}),
(703,637,o),
(734,634,o),
(752,627,c),
(773,728,l),
(714,746,o),
(684,751,o),
(653,751,cs,{name = dv02;}),
(541,751,o),
(486,684,o),
(486,588,cs),
(486,500,l,{name = dv04;}),
(344.439,500,l),
(344.439,390,l)
);
}
);
width = 800;
}
);
leftKerningGroup = f;
rightKerningGroup = f1;
unicode = 64256;
},
{
glyphname = dieresistonos;
layers = (
{
anchors = (
{
name = topgr;
position = "{166, 688}";
},
{
name = _topgr;
position = "{166, 500}";
}
);
layerId = "147DC1DB-E812-4101-979E-17422C2E6004";
shapes = (
{
closed = 1;
nodes = (
(150,713,l),
(119,546,l),
(183,546,l),
(234,713,l)
);
},
{
closed = 1;
nodes = (
(313.306,560.491,o),
(329.205,583.456,o),
(329.205,608.187,cs),
(329.205,632.918,o),
(313.306,655,o),
(283.275,655,cs),
(251.478,655,o),
(235.579,630.269,o),
(235.579,608.187,cs),
(235.579,586.106,o),
(251.478,560.491,o),
(283.275,560.491,cs)
);
},
{
closed = 1;
nodes = (
(82.522,560.491,o),
(98.421,583.456,o),
(98.421,608.187,cs),
(98.421,632.918,o),
(82.522,655,o),
(52.491,655,cs),
(20.694,655,o),
(4.795,630.269,o),
(4.795,608.187,cs),
(4.795,586.106,o),
(20.694,560.491,o),
(52.491,560.491,cs)
);
}
);
width = 333;
}
);
unicode = 901;
},
{
glyphname = anoteleia;
layers = (
{
layerId = "147DC1DB-E812-4101-979E-17422C2E6004";
shapes = (
{
closed = 1;
nodes = (
(52,397,o),
(85,361,o),
(131,361,cs),
(176,361,o),
(210,397,o),
(210,441,cs),
(210,485,o),
(176,519,o),
(131,519,cs),
(85,519,o),
(52,485,o),
(52,441,cs)
);
}
);
width = 262;
}
);
unicode = 903;
},
{
glyphname = caron.salt;
layers = (
{
anchors = (
{
name = _topright;
position = "{0, 700}";
}
);
layerId = "147DC1DB-E812-4101-979E-17422C2E6004";
shapes = (
{
closed = 1;
nodes = (
(0,540,l),
(70,540,l),
(125,700,l),
(35,700,l)
);
}
);
width = 135;
}
);
},
{
glyphname = dotlessi;
layers = (
{
anchors = (
{
name = top;
position = "{136, 520}";
},
{
name = bottom;
position = "{136, -20}";
},
{
name = ogonek;
position = "{204, -2}";
}
);
layerId = "147DC1DB-E812-4101-979E-17422C2E6004";
shapes = (
{
closed = 1;
nodes = (
(209,0,l),
(209,500,l),
(64,500,l),
(64,0,l)
);
}
);
width = 272;
}
);
leftKerningGroup = i;
unicode = 305;
},
{
glyphname = trademark;
layers = (
{
layerId = "147DC1DB-E812-4101-979E-17422C2E6004";
shapes = (
{
closed = 1;
nodes = (
(25,700,l),
(25,620,l),
(176,620,l),
(176,248,l),
(282,248,l),
(282,620,l),
(433,620,l),
(433,700,l)
);
},
{
closed = 1;
nodes = (
(581,488,l),
(688,248,l),
(759,248,l),
(866,488,l),
(866,248,l),
(971,248,l),
(971,700,l),
(877,700,l),
(724,356,l),
(571,700,l),
(476,700,l),
(476,248,l),
(581,248,l)
);
}
);
width = 1016;
}
);
unicode = 8482;
},
{
glyphname = M.ss01;
layers = (
{
anchors = (
{
name = top;
position = "{435, 719}";
},
{
name = bottom;
position = "{435, -20}";
}
);
layerId = "147DC1DB-E812-4101-979E-17422C2E6004";
shapes = (
{
closed = 1;
nodes = (
(435,343,l,{name = iv01;}),
(212,700,l,{name = at01;}),
(77,700,l),
(77,0,l,{name = ab01;}),
(222,0,l),
(222,450,l,{name = iv02;}),
(411,147,l),
(459,147,l),
(648,450,l,{name = iv03;}),
(648,0,l,{name = ab02;}),
(793,0,l),
(793,700,l,{name = at02;}),
(658,700,l)
);
}
);
width = 870;
}
);
leftKerningGroup = B;
rightKerningGroup = H;
},
{
glyphname = a.ss02;
layers = (
{
anchors = (
{
name = top;
position = "{290, 520}";
},
{
name = bottom;
position = "{280, -20}";
},
{
name = ogonek;
position = "{501, -2}";
}
);
layerId = "147DC1DB-E812-4101-979E-17422C2E6004";
shapes = (
{
closed = 1;
nodes = (
(196,111,o),
(220,90,o),
(263,90,cs),
(321,90,o),
(369,128,o),
(363,187,c),
(376,110,l),
(359,28,o),
(303,-20,o),
(220,-20,cs),
(121,-20,o),
(50,49,o),
(50,146,cs),
(50,243,o),
(121,312,o),
(223,312,cs),
(304,312,o),
(360,268,o),
(377,193,c),
(372,124,l),
(369,170,o),
(325,202,o),
(267,202,cs),
(221,202,o),
(196,182,o),
(196,146,cs)
);
},
{
closed = 1;
nodes = (
(227,410,o),
(179,390.648,o),
(148,355,c),
(70,433,l),
(120,490,o),
(198,520,o),
(294,520,cs,{name = at01;}),
(446,520,o),
(506,444,o),
(506,352,cs),
(506,0,l),
(361,0,l),
(361,330.807,ls),
(361,382.934,o),
(338,410,o),
(278,410,cs,{name = sv01;})
);
}
);
width = 580;
}
);
leftKerningGroup = a.ss02;
rightKerningGroup = a.ss021;
},
{
glyphname = u.ss05;
layers = (
{
anchors = (
{
name = bottom;
position = "{300, -20}";
},
{
name = top;
position = "{300, 520}";
},
{
name = ogonek;
position = "{522, -2}";
}
);
layerId = "147DC1DB-E812-4101-979E-17422C2E6004";
shapes = (
{
closed = 1;
nodes = (
(398,213,l),
(382,283,l),
(382,159.359,o),
(346,90,o),
(281,90,cs),
(233,90,o),
(211,128.093,o),
(211,212.298,cs),
(211,500,l),
(66,500,l),
(66,196,ls),
(66,51,o),
(124,-20,o),
(232,-20,cs),
(322,-20,o),
(373,30,o),
(400,130,c)
);
},
{
closed = 1;
nodes = (
(527,500,l),
(382,500,l),
(382,0,l),
(527,0,l)
);
}
);
width = 600;
}
);
leftKerningGroup = u;
rightKerningGroup = a1;
},
{
glyphname = Q.ss06;
layers = (
{
anchors = (
{
name = top;
position = "{398, 719}";
},
{
name = bottom;
position = "{398, -20}";
},
{
name = ogonek;
position = "{528, -1}";
}
);
layerId = "147DC1DB-E812-4101-979E-17422C2E6004";
shapes = (
{
closed = 1;
nodes = (
(306,110,l),
(324,152,o),
(351,177,o),
(378.592,177,cs),
(415.595,177,o),
(431.332,132.039,o),
(450.971,75.929,cs),
(483.562,-17.184,o),
(526.9,-141,o),
(696,-141,c),
(696,-21,l),
(606.74,-21,o),
(588.055,35.558,o),
(569.216,92.581,cs),
(550.065,150.55,o),
(530.755,209,o),
(436.98,209,cs),
(352,209,o),
(320,161,o),
(299,114,c)
);
},
{
alignment = -1;
ref = O;
}
);
width = 795;
}
);
leftKerningGroup = C1;
rightKerningGroup = C;
},
{
glyphname = J.ss07;
layers = (
{
anchors = (
{
name = top;
position = "{268, 719}";
},
{
name = bottom;
position = "{168, -89}";
}
);
layerId = "147DC1DB-E812-4101-979E-17422C2E6004";
shapes = (
{
closed = 1;
nodes = (
(20,-144,l),
(252,-144,o),
(336,-66,o),
(336,148,cs),
(336,700,l),
(190,700,l),
(190,129,ls),
(190,4,o),
(144,-24,o),
(20,-24,c)
);
}
);
width = 400;
}
);
leftKerningGroup = J;
rightKerningGroup = J1;
},
{
glyphname = R.ss08;
layers = (
{
anchors = (
{
name = top;
position = "{323, 719}";
},
{
name = bottom;
position = "{323, -20}";
}
);
layerId = "147DC1DB-E812-4101-979E-17422C2E6004";
shapes = (
{
closed = 1;
nodes = (
(214,0,l),
(214,244,l),
(321,244,ls),
(471,244,o),
(580,341,o),
(580,474,cs),
(580,611,o),
(483,700,o),
(333,700,cs),
(68,700,l),
(68,0,l)
);
},
{
closed = 1;
nodes = (
(214,364,l),
(214,580,l),
(299,580,ls),
(387,580,o),
(433,542,o),
(433,469,cs),
(433,399,o),
(387,364,o),
(299,364,cs)
);
},
{
closed = 1;
nodes = (
(295,244,l),
(348,242,o),
(399,232,o),
(420,183,cs),
(437,143,o),
(420,60,o),
(435,0,c),
(584,0,l),
(564,56,o),
(584,171,o),
(559,222,cs),
(534,273,o),
(492,279,o),
(396,305,c)
);
}
);
width = 645;
}
);
leftKerningGroup = B;
rightKerningGroup = R;
},
{
glyphname = C.ss09;
layers = (
{
anchors = (
{
name = bottom;
position = "{407, -19}";
},
{
name = top;
position = "{387, 719}";
}
);
layerId = "147DC1DB-E812-4101-979E-17422C2E6004";
shapes = (
{
closed = 1;
nodes = (
(43,146,o),
(174,-20,o),
(393,-20,cs),
(566,-20,o),
(692,84,o),
(730,261,c),
(587,261,l),
(571,163.394,o),
(509,100,o),
(401,100,cs),
(266,100,o),
(188,198.394,o),
(188,347.992,cs),
(188,501.606,o),
(270,600,o),
(406,600,cs),
(490,600,o),
(549,562.675,o),
(577,485,c),
(720,485,l),
(672,637,o),
(563,720,o),
(402,720,cs),
(184,720,o),
(43,569,o),
(43,354,cs)
);
}
);
width = 773;
}
);
leftKerningGroup = C1;
rightKerningGroup = C;
},
{
glyphname = c.ss09;
layers = (
{
anchors = (
{
name = top;
position = "{312, 520}";
},
{
name = bottom;
position = "{332, -20}";
}
);
layerId = "147DC1DB-E812-4101-979E-17422C2E6004";
shapes = (
{
closed = 1;
nodes = (
(450,-20,o),
(548,47,o),
(560,167,c),
(425,167,l),
(421.987,123,o),
(382.817,90,o),
(323.561,90,cs),
(241.204,90,o),
(194,146.352,o),
(194,246.981,cs),
(194,349.623,o),
(242.207,410,o),
(322.552,410,cs),
(381.806,410,o),
(420.974,377.835,o),
(427,333,c),
(562,333,l),
(542,457.667,o),
(449,520,o),
(316,520,cs),
(147,520,o),
(49,417,o),
(49,255,cs),
(49,85,o),
(145,-20,o),
(315,-20,cs)
);
}
);
width = 611;
}
);
leftKerningGroup = a;
rightKerningGroup = b1;
},
{
glyphname = C.ss10;
layers = (
{
anchors = (
{
name = bottom;
position = "{407, -19}";
},
{
name = top;
position = "{387, 719}";
}
);
layerId = "147DC1DB-E812-4101-979E-17422C2E6004";
shapes = (
{
closed = 1;
nodes = (
(522,-20,o),
(622,27,o),
(692,117,c),
(653,255,l),
(574,134.221,o),
(497,100,o),
(409,100,cs),
(270,100,o),
(188,185.341,o),
(188,347.992,cs),
(188,500.602,o),
(259,600,o),
(401,600,cs),
(485,600,o),
(562,565.779,o),
(644,445,c),
(683,583,l),
(613,673,o),
(515,720,o),
(395,720,cs),
(184,720,o),
(43,573,o),
(43,357,cs),
(43,137,o),
(190,-20,o),
(405,-20,cs)
);
}
);
width = 735;
}
);
leftKerningGroup = C1;
rightKerningGroup = C;
},
{
glyphname = c.ss10;
layers = (
{
anchors = (
{
name = top;
position = "{316, 520}";
},
{
name = bottom;
position = "{316, -20}";
}
);
layerId = "147DC1DB-E812-4101-979E-17422C2E6004";
shapes = (
{
closed = 1;
nodes = (
(412,-20,o),
(490,18,o),
(536,83,c),
(502,201,l),
(452,122,o),
(400,90,o),
(324,90,cs),
(239,90,o),
(195,146,o),
(195,255,cs),
(195,355,o),
(241,410,o),
(324,410,cs),
(398,410,o),
(450,378,o),
(502,299,c),
(536,417,l),
(490,482,o),
(412,520,o),
(323,520,cs),
(161,520,o),
(49,412,o),
(49,255,cs),
(49,91,o),
(159,-20,o),
(323,-20,cs)
);
}
);
width = 585;
}
);
leftKerningGroup = a;
rightKerningGroup = b1;
},
{
glyphname = S.ss09;
layers = (
{
anchors = (
{
name = top;
position = "{280, 719}";
},
{
name = bottom;
position = "{295, -20}";
}
);
layerId = "147DC1DB-E812-4101-979E-17422C2E6004";
shapes = (
{
closed = 1;
nodes = (
(33,198,l),
(57,67,o),
(146,-20,o),
(304,-20,cs),
(461,-20,o),
(551,67.141,o),
(551,185.331,cs),
(551,338.137,o),
(435.426,372.624,o),
(334.885,402.626,cs),
(257.488,425.721,o),
(188,446.158,o),
(188,515.864,cs),
(188,565.945,o),
(220,600,o),
(290,600,cs),
(352,600,o),
(385,572,o),
(398,502,c),
(541,502,l),
(517,633,o),
(435,720,o),
(284,720,cs),
(132,720,o),
(43,632.859,o),
(43,511.664,cs),
(43,369.517,o),
(156.905,334.21,o),
(256.927,303.206,cs),
(335.216,278.939,o),
(406,257.308,o),
(406,189.144,cs),
(406,134.055,o),
(373,100,o),
(297,100,cs),
(229,100,o),
(190,128,o),
(176,198,c)
);
}
);
width = 590;
}
);
leftKerningGroup = S1;
rightKerningGroup = S;
},
{
glyphname = s.ss09;
layers = (
{
anchors = (
{
name = bottom;
position = "{260, -20}";
},
{
name = top;
position = "{245, 520}";
}
);
layerId = "147DC1DB-E812-4101-979E-17422C2E6004";
shapes = (
{
closed = 1;
nodes = (
(37,150,l),
(48,40.355,o),
(130,-20,o),
(256,-20,cs),
(385,-20,o),
(462,43,o),
(462,144,cs),
(462,235,o),
(399,297,o),
(261,312,cs),
(207,318,o),
(182,329,o),
(182,361,cs),
(182,390,o),
(202,410,o),
(244,410,cs),
(287,410,o),
(315,388.644,o),
(321,350,c),
(462,350,l),
(448,459.645,o),
(369,520,o),
(243,520,cs),
(112,520,o),
(37,455,o),
(37,355,cs),
(37,264,o),
(99,203,o),
(238,188,cs),
(292,182,o),
(317,171,o),
(317,138,cs),
(317,108,o),
(295,90,o),
(254,90,cs),
(212,90,o),
(182,109.322,o),
(178,150,c)
);
}
);
width = 510;
}
);
leftKerningGroup = s1;
rightKerningGroup = s;
},
{
glyphname = s.ss10;
layers = (
{
anchors = (
{
name = top;
position = "{253, 520}";
},
{
name = bottom;
position = "{265, -20}";
}
);
layerId = "147DC1DB-E812-4101-979E-17422C2E6004";
shapes = (
{
closed = 1;
nodes = (
(71,201,l),
(121,122,o),
(173,90,o),
(262,90,cs),
(292,90,o),
(329,102,o),
(329,131.969,cs),
(329,165.742,o),
(282.014,180.98,o),
(226.264,199.059,cs),
(144.953,225.429,o),
(45,257.844,o),
(45,362.629,cs),
(45,454,o),
(121,520,o),
(245,520,cs),
(358,520,o),
(438,465,o),
(462,421,c),
(431,302,l),
(382,375,o),
(330,410,o),
(262,410,cs),
(216,410,o),
(190,394,o),
(190,363.803,cs),
(190,322.048,o),
(239.711,309.314,o),
(297.537,294.503,cs),
(377.927,273.911,o),
(474,249.303,o),
(474,137.118,cs),
(474,40,o),
(402,-20,o),
(262,-20,cs),
(179,-20,o),
(95,1,o),
(37,83,c)
);
}
);
width = 522;
}
);
leftKerningGroup = s1;
rightKerningGroup = s;
},
{
glyphname = S.ss10;
layers = (
{
anchors = (
{
name = top;
position = "{275, 719}";
},
{
name = bottom;
position = "{290, -20}";
}
);
layerId = "147DC1DB-E812-4101-979E-17422C2E6004";
shapes = (
{
closed = 1;
nodes = (
(348,600,o),
(413,565.779,o),
(492,445,c),
(531,583,l),
(462,673,o),
(368,720,o),
(266,720,cs),
(131,720,o),
(43,637.868,o),
(43,507.658,cs),
(43,365.333,o),
(155.826,324.02,o),
(253.906,296.799,cs),
(329.311,275.872,o),
(396,257.363,o),
(396,188.142,cs),
(396,130.048,o),
(359,100,o),
(287,100,cs),
(210,100,o),
(142,134.221,o),
(72,255,c),
(33,117,l),
(96,27,o),
(181,-20,o),
(299,-20,cs),
(447,-20,o),
(541,53.118,o),
(541,194.346,cs),
(541,337.945,o),
(430.287,370.025,o),
(332.866,398.252,cs),
(256.331,420.428,o),
(188,440.227,o),
(188,509.855,cs),
(188,560.937,o),
(212,600,o),
(283,600,cs)
);
}
);
width = 580;
}
);
leftKerningGroup = S1;
rightKerningGroup = S;
},
{
glyphname = G.ss10;
layers = (
{
anchors = (
{
name = bottom;
position = "{394, -19}";
},
{
name = top;
position = "{394, 719}";
}
);
layerId = "147DC1DB-E812-4101-979E-17422C2E6004";
shapes = (
{
closed = 1;
nodes = (
(624,252,l),
(363,252,l),
(363,362,l),
(727,362,l),
(727,0,l),
(687,0,l)
);
},
{
closed = 1;
nodes = (
(511,720,o),
(615,673,o),
(689,583,c),
(650,445,l),
(563,565.779,o),
(488,600,o),
(397,600,cs),
(263.63,600,o),
(190,513.575,o),
(190,357.028,cs),
(190,192.57,o),
(263.472,100,o),
(394,100,cs),
(512,100,o),
(591,186.354,o),
(600,315.885,c),
(600,318.897,o),
(599,339.984,o),
(599,344,c),
(653,315,l),
(648,221,l),
(620,79,o),
(533,-20,o),
(376,-20,cs),
(176.2,-20,o),
(43,130.4,o),
(43,356,cs),
(43,577,o),
(177,720,o),
(388,720,cs)
);
}
);
width = 770;
}
);
leftKerningGroup = C1;
rightKerningGroup = G;
},
{
glyphname = G.ss09;
layers = (
{
anchors = (
{
name = bottom;
position = "{390, -19}";
},
{
name = top;
position = "{390, 719}";
}
);
layerId = "147DC1DB-E812-4101-979E-17422C2E6004";
shapes = (
{
closed = 1;
nodes = (
(637,237,l,{name = dv08;}),
(611,250,l,{name = dv07;}),
(325,250,l,{name = dv05;}),
(325,360,l,{name = dv06;}),
(737,360,l,{name = iv02;}),
(737,0,l,{name = dv14;}),
(696,0,l,{name = dv15;})
);
},
{
closed = 1;
nodes = (
(563,720,o),
(672,637,o),
(720,485,c),
(577,485,l),
(549,562.675,o),
(490,600,o),
(403,600,cs),
(260,600,o),
(188,498.594,o),
(188,343.976,cs,{name = dv12;}),
(188,188.353,o),
(261,100,o),
(394,100,cs,{name = dv02;}),
(522,100,o),
(579,181.363,o),
(597,324,c,{name = iv01;}),
(639,292,l,{name = dv09;}),
(648,236,l,{name = dv10;}),
(620,79,o),
(522,-20,o),
(371,-20,cs,{name = dv01;}),
(174.2,-20,o),
(43,128.4,o),
(43,351,cs,{name = dv11;}),
(43,564,o),
(178,720,o),
(401,720,cs)
);
}
);
width = 780;
}
);
leftKerningGroup = C1;
rightKerningGroup = G;
},
{
glyphname = G.ss13;
layers = (
{
anchors = (
{
name = bottom;
position = "{392, -19}";
},
{
name = top;
position = "{392, 719}";
}
);
layerId = "147DC1DB-E812-4101-979E-17422C2E6004";
shapes = (
{
closed = 1;
nodes = (
(493,600,o),
(546,565.702,o),
(578,485,c,{name = dv08;}),
(721,485,l),
(677,634,o),
(561,720,o),
(396,720,cs,{name = dv04;}),
(188,720,o),
(43,582,o),
(43,355,cs,{name = sv03;}),
(43,134,o),
(180,-20,o),
(396,-20,cs,{name = dv01;}),
(602,-20,o),
(740,120.639,o),
(740,329.105,cs,{name = sv02;}),
(740,370,l),
(390,370,l,{name = dv06;}),
(390,260,l,{name = dv05;}),
(590,260,l,{name = sv01;}),
(579,163.396,o),
(515,100,o),
(401,100,cs,{name = dv02;}),
(268,100,o),
(188,187.349,o),
(188,350,cs,{name = dv07;}),
(188,506.627,o),
(263,600,o),
(406,600,cs,{name = dv03;})
);
}
);
width = 783;
}
);
leftKerningGroup = C1;
rightKerningGroup = C;
},
{
glyphname = G.ss14;
layers = (
{
anchors = (
{
name = bottom;
position = "{388, -19}";
},
{
name = top;
position = "{388, 719}";
}
);
layerId = "147DC1DB-E812-4101-979E-17422C2E6004";
shapes = (
{
closed = 1;
nodes = (
(685,583,l),
(616.787,671,o),
(521.491,720,o),
(402.119,720,cs),
(186.447,720,o),
(43,569,o),
(43,354,cs),
(43,141,o),
(175.448,-20,o),
(384.154,-20,cs),
(586.84,-20,o),
(634,163.531,o),
(634,349.056,cs),
(634,371,l),
(369,371,l),
(369,251,l),
(598,251,l),
(584.904,156.373,o),
(513.381,100,o),
(407.607,100,cs),
(267.582,100,o),
(188,191.365,o),
(188,351.004,cs),
(188,507.631,o),
(269.534,600,o),
(406.431,600,cs),
(499.037,600,o),
(567.486,560.747,o),
(646,445,c)
);
},
{
closed = 1;
nodes = (
(598,0,l),
(719,0,l),
(719,371,l),
(598,371,l)
);
}
);
width = 775;
}
);
leftKerningGroup = C1;
rightKerningGroup = G;
},
{
glyphname = J.ss09;
layers = (
{
anchors = (
{
name = bottom;
position = "{274, -20}";
},
{
name = top;
position = "{453, 719}";
}
);
layerId = "147DC1DB-E812-4101-979E-17422C2E6004";
shapes = (
{
closed = 1;
nodes = (
(30,195,l),
(56.972,45,o),
(127.9,-20,o),
(270.754,-20,cs),
(443.578,-20,o),
(519.5,75,o),
(519.5,252,cs),
(519.5,700,l),
(374.5,700,l),
(374.5,255.259,ls),
(374.5,136.06,o),
(337.408,100,o),
(269.239,100,cs),
(212.097,100,o),
(183.025,126,o),
(173,195,c)
);
}
);
width = 584;
}
);
leftKerningGroup = J;
rightKerningGroup = J1;
},
{
glyphname = J.ss10;
layers = (
{
anchors = (
{
name = top;
position = "{445, 719}";
},
{
name = bottom;
position = "{266, -20}";
}
);
layerId = "147DC1DB-E812-4101-979E-17422C2E6004";
shapes = (
{
closed = 1;
nodes = (
(368.5,700,l),
(368.5,244.24,ls),
(368.5,138.063,o),
(347.465,100,o),
(267.331,100,cs),
(179.183,100,o),
(123.089,147.305,o),
(70,255,c),
(31,117,l),
(87.941,31,o),
(163.862,-20,o),
(278.743,-20,cs),
(428.588,-20,o),
(513.5,68,o),
(513.5,231,cs),
(513.5,700,l)
);
}
);
width = 578;
}
);
leftKerningGroup = J;
rightKerningGroup = J1;
},
{
glyphname = a.ss10;
layers = (
{
anchors = (
{
name = top;
position = "{284, 520}";
},
{
name = bottom;
position = "{284, -20}";
},
{
name = ogonek;
position = "{498, -2}";
}
);
layerId = "147DC1DB-E812-4101-979E-17422C2E6004";
shapes = (
{
closed = 1;
nodes = (
(173.221,520,o),
(85,480,o),
(49,422,c),
(80,306,l),
(137,380,o),
(199.7,410,o),
(271.2,410,cs),
(327.3,410,o),
(357,391,o),
(357,354,cs),
(357,309,o),
(316,284,o),
(230,284,cs),
(110,284,o),
(35,235,o),
(35,138,cs),
(35,42,o),
(107,-20,o),
(196.898,-20,cs),
(304,-20,o),
(361,68,o),
(376,142,c),
(358,206,l),
(358,149,o),
(302,90,o),
(238,90,cs),
(201,90,o),
(180,110,o),
(180,139,cs),
(180,171,o),
(204,192,o),
(252,192,cs),
(298,192,o),
(340,212,o),
(358,243,c),
(358,91,l),
(503,-10,l),
(503,352,ls),
(503,456,o),
(417.93,520,o),
(281.397,520,cs)
);
}
);
width = 568;
}
);
leftKerningGroup = a.ss02;
rightKerningGroup = a.ss021;
},
{
glyphname = a.ss09;
layers = (
{
anchors = (
{
name = top;
position = "{290, 520}";
},
{
name = ogonek;
position = "{491, -2}";
},
{
name = bottom;
position = "{285, -20}";
}
);
layerId = "147DC1DB-E812-4101-979E-17422C2E6004";
shapes = (
{
closed = 1;
nodes = (
(186,111,o),
(210,90,o),
(253,90,cs),
(311,90,o),
(359,128,o),
(353,187,c),
(366,110,l),
(349,28,o),
(293,-20,o),
(210.234,-20,cs),
(111,-20,o),
(40,49,o),
(40,146,cs),
(40,243,o),
(111,312,o),
(213,312,cs),
(294,312,o),
(350,268,o),
(367,193,c),
(362,124,l),
(359,170,o),
(315,202,o),
(257,202,cs),
(211,202,o),
(186,182,o),
(186,146,cs)
);
},
{
closed = 1;
nodes = (
(232,410,o),
(197,387,o),
(191,341,c),
(56,341,l),
(65.083,457,o),
(155,520,o),
(283,520,cs,{name = at01;}),
(424,520,o),
(496,444,o),
(496,352,cs),
(496,0,l),
(351,0,l),
(351,340.831,ls),
(351,382.934,o),
(326,410,o),
(277,410,cs,{name = sv01;})
);
}
);
width = 570;
}
);
leftKerningGroup = a.ss02;
rightKerningGroup = a.ss021;
},
{
glyphname = Schwa.ss09;
layers = (
{
anchors = (
{
name = top;
position = "{390, 719}";
},
{
name = bottom;
position = "{390, -20}";
}
);
layerId = "147DC1DB-E812-4101-979E-17422C2E6004";
shapes = (
{
closed = 1;
nodes = (
(294,600,o),
(230,556.623,o),
(202,485,c),
(59,485,l),
(105,635,o),
(229,720,o),
(390,720,cs),
(608,720,o),
(736,573,o),
(736,350,cs,{name = sh03;}),
(736,121,o),
(599,-20,o),
(390,-20,cs,{name = dv01;}),
(181,-20,o),
(43,130,o),
(43,358,cs,{name = sh01;}),
(43,371,o),
(45,394,o),
(47,409,c,{name = sh04;}),
(600,409,l,{name = dv06;}),
(599,294,l,{name = dv05;}),
(195,294,l,{name = sh02;}),
(204,173.378,o),
(278,100,o),
(392,100,cs,{name = dv02;}),
(517,100,o),
(587,182.378,o),
(587,350.048,cs),
(587,512.699,o),
(523,600,o),
(387,600,cs)
);
}
);
width = 779;
}
);
leftKerningGroup = C1;
rightKerningGroup = C;
},
{
glyphname = schwa.ss09;
layers = (
{
anchors = (
{
name = bottom;
position = "{302, -20}";
},
{
name = top;
position = "{302, 520}";
}
);
layerId = "147DC1DB-E812-4101-979E-17422C2E6004";
shapes = (
{
closed = 1;
nodes = (
(51,289,l),
(50,281,o),
(49,268,o),
(49,251,cs),
(49,81,o),
(142,-20,o),
(297,-20,cs),
(457,-20,o),
(555,89,o),
(555,250,cs),
(555,398,o),
(472,520,o),
(298,520,cs),
(173,520,o),
(84,449.586,o),
(53,350,c),
(199,350,l),
(213,385.593,o),
(244,410,o),
(292,410,cs),
(362,410,o),
(399,371,o),
(407,289,c)
);
},
{
closed = 1;
nodes = (
(405,199,l),
(394,126,o),
(360,90,o),
(302,90,cs),
(237,90,o),
(204,132,o),
(200,199,c)
);
}
);
width = 604;
}
);
leftKerningGroup = a;
rightKerningGroup = b1;
},
{
glyphname = Schwa.ss10;
layers = (
{
anchors = (
{
name = top;
position = "{390, 719}";
},
{
name = bottom;
position = "{390, -20}";
}
);
layerId = "147DC1DB-E812-4101-979E-17422C2E6004";
shapes = (
{
closed = 1;
nodes = (
(282,600,o),
(210.508,571.058,o),
(128.508,450.278,c),
(91,583,l),
(161,673,o),
(259,720,o),
(382,720,cs),
(595,720,o),
(736,581,o),
(736,358,cs,{name = sh03;}),
(736,129,o),
(599,-20,o),
(390,-20,cs,{name = dv01;}),
(181,-20,o),
(43,130,o),
(43,358,cs,{name = sh01;}),
(43,371,o),
(45,394,o),
(47,409,c,{name = sh04;}),
(605,409,l,{name = dv06;}),
(604,294,l,{name = dv05;}),
(195,294,l,{name = sh02;}),
(204,173.378,o),
(278,100,o),
(394,100,cs,{name = dv02;}),
(520,100,o),
(590,194.378,o),
(590,362.048,cs),
(590,524.699,o),
(509,600,o),
(381,600,cs)
);
}
);
width = 779;
}
);
leftKerningGroup = C1;
rightKerningGroup = C;
},
{
glyphname = schwa.ss10;
layers = (
{
anchors = (
{
name = bottom;
position = "{300, -20}";
},
{
name = top;
position = "{300, 520}";
}
);
layerId = "147DC1DB-E812-4101-979E-17422C2E6004";
shapes = (
{
closed = 1;
nodes = (
(196,199,l),
(204,121,o),
(242,90,o),
(296,90,cs),
(359,90,o),
(395,132,o),
(402,199,c)
);
},
{
closed = 1;
nodes = (
(449,520,o),
(551,422,o),
(551,247,cs),
(551,82,o),
(460,-20,o),
(305,-20,cs),
(147,-20,o),
(50,86,o),
(50,246,cs),
(50,269,o),
(52,280,o),
(53,289,c),
(403,289,l),
(396,365,o),
(359,410,o),
(277,410,cs),
(212,410,o),
(156,381,o),
(105,302,c),
(71,420,l),
(117,485,o),
(200,520,o),
(293,520,cs)
);
}
);
width = 600;
}
);
leftKerningGroup = a;
rightKerningGroup = b1;
},
{
glyphname = e.ss10;
layers = (
{
anchors = (
{
name = top;
position = "{297, 520}";
},
{
name = bottom;
position = "{297, -20}";
},
{
name = ogonek;
position = "{403, -3}";
}
);
layerId = "147DC1DB-E812-4101-979E-17422C2E6004";
shapes = (
{
closed = 1;
nodes = (
(184,311,l),
(184,359,o),
(222,410,o),
(295,410,cs),
(370,410,o),
(400,355,o),
(400,311,c)
);
},
{
closed = 1;
nodes = (
(406.252,-20,o),
(484.093,18,o),
(530,83,c),
(496,201,l),
(446,122,o),
(394,90,o),
(318,90,cs),
(239,90,o),
(183,132,o),
(183,218,c),
(548,218,l),
(548,410,o),
(455.182,520,o),
(297.491,520,cs),
(138.802,520,o),
(38,410,o),
(38,255,cs),
(38,90,o),
(129.813,-20,o),
(303.92,-20,cs)
);
}
);
width = 585;
}
);
leftKerningGroup = a;
rightKerningGroup = b1;
},
{
glyphname = e.ss09;
layers = (
{
anchors = (
{
name = top;
position = "{298, 520}";
},
{
name = bottom;
position = "{298, -20}";
},
{
name = ogonek;
position = "{417, -2}";
}
);
layerId = "147DC1DB-E812-4101-979E-17422C2E6004";
shapes = (
{
closed = 1;
nodes = (
(416,308,l),
(416,367,o),
(369,410,o),
(305,410,cs),
(238,410,o),
(185,365,o),
(185,308,c)
);
},
{
closed = 1;
nodes = (
(363,90,o),
(415,114,o),
(419,167,c),
(553,167,l),
(533,50,o),
(446,-20,o),
(308,-20,cs),
(143,-20,o),
(38,95,o),
(38,255,cs),
(38,401,o),
(134,520,o),
(305,520,cs),
(476,520,o),
(558,397,o),
(558,221,c),
(185,221,l),
(185,131.315,o),
(242,90,o),
(308,90,cs)
);
}
);
width = 595;
}
);
leftKerningGroup = a;
rightKerningGroup = b1;
},
{
glyphname = b.ss11;
layers = (
{
anchors = (
{
name = bottom;
position = "{345, -20}";
},
{
name = top;
position = "{330, 750}";
}
);
layerId = "147DC1DB-E812-4101-979E-17422C2E6004";
shapes = (
{
closed = 1;
nodes = (
(208,86,l),
(208,700,l),
(63,700,l),
(63,-10,l)
);
},
{
closed = 1;
nodes = (
(433.5,148.182,o),
(398.422,90,o),
(332.276,90,cs),
(260.116,90,o),
(208,158.213,o),
(208,256.52,cs),
(208,331.755,o),
(251.096,410,o),
(331.273,410,cs),
(398.422,410,o),
(433.5,357.837,o),
(433.5,255.517,cs)
);
},
{
closed = 1;
nodes = (
(176,85,o),
(241.918,-20,o),
(366.999,-20,cs),
(495.603,-20,o),
(578.5,91,o),
(578.5,255,cs),
(578.5,416,o),
(498.599,520,o),
(366.504,520,cs),
(240.919,520,o),
(176,426,o),
(176,255,cs)
);
}
);
width = 629;
}
);
leftKerningGroup = b;
rightKerningGroup = b1;
},
{
glyphname = d.ss11;
layers = (
{
anchors = (
{
name = bottom;
position = "{305, -20}";
},
{
name = top;
position = "{318, 750}";
},
{
name = topright;
position = "{593, 700}";
}
);
layerId = "147DC1DB-E812-4101-979E-17422C2E6004";
shapes = (
{
closed = 1;
nodes = (
(417,83,l),
(562,-10,l),
(562,700,l),
(417,700,l)
);
},
{
closed = 1;
nodes = (
(196,352.821,o),
(233,410,o),
(295,410,cs),
(368,410,o),
(417,352.821,o),
(417,256.52,cs),
(417,160.219,o),
(365,90,o),
(295,90,cs),
(234,90,o),
(196,154.201,o),
(196,255.517,cs)
);
},
{
closed = 1;
nodes = (
(449,431,o),
(385,520,o),
(266,520,cs),
(132,520,o),
(50,419,o),
(50,255,cs),
(50,88,o),
(135,-20,o),
(266,-20,cs),
(384,-20,o),
(449,79,o),
(449,255,cs)
);
}
);
width = 635;
}
);
leftKerningGroup = a;
},
{
glyphname = f.ss11;
layers = (
{
anchors = (
{
name = top;
position = "{250, 750}";
},
{
name = bottom;
position = "{183, -20}";
}
);
layerId = "147DC1DB-E812-4101-979E-17422C2E6004";
shapes = (
{
closed = 1;
nodes = (
(109,390,l),
(109,0,l),
(254,0,l),
(254,390,l),
(380,390,l),
(380,500,l),
(254,500,l),
(254,549.45,ls),
(254,588.807,o),
(278,610,o),
(319,610,cs),
(334,610,o),
(355,605.636,o),
(396,598,c),
(396,707,l),
(349,716,o),
(325,720,o),
(277,720,cs),
(169,720,o),
(109,669,o),
(109,577,cs),
(109,500,l),
(22,500,l),
(22,390,l)
);
}
);
width = 423;
}
);
leftKerningGroup = f;
rightKerningGroup = f1;
},
{
glyphname = h.ss11;
layers = (
{
anchors = (
{
name = top;
position = "{148, 750}";
},
{
name = bottom;
position = "{318, -20}";
}
);
layerId = "147DC1DB-E812-4101-979E-17422C2E6004";
shapes = (
{
closed = 1;
nodes = (
(74,0,l),
(219,0,l),
(219,700,l),
(74,700,l)
);
},
{
closed = 1;
nodes = (
(212,282,l),
(219,217,l,{name = iv01;}),
(219,333.604,o),
(261,410,o),
(336,410,cs,{name = sv01;}),
(386,410,o),
(416,383.936,o),
(416,278.68,cs),
(416,0,l,{name = ab01;}),
(561,0,l),
(561,314,ls),
(561,462,o),
(492,520,o),
(389,520,cs,{name = at01;}),
(301,520,o),
(230,456,o),
(211,361,c)
);
}
);
width = 635;
}
);
leftKerningGroup = b;
rightKerningGroup = h;
},
{
glyphname = l.ss11;
layers = (
{
anchors = (
{
name = bottom;
position = "{136, -20}";
},
{
name = top;
position = "{136, 750}";
},
{
name = topright;
position = "{242, 700}";
}
);
layerId = "147DC1DB-E812-4101-979E-17422C2E6004";
shapes = (
{
closed = 1;
nodes = (
(209,700,l),
(64,700,l),
(64,0,l),
(209,0,l)
);
}
);
width = 272;
}
);
leftKerningGroup = b;
},
{
glyphname = t.ss11;
layers = (
{
anchors = (
{
name = top;
position = "{158, 630}";
},
{
name = bottom;
position = "{161, -20}";
},
{
name = topright;
position = "{262, 700}";
}
);
layerId = "147DC1DB-E812-4101-979E-17422C2E6004";
shapes = (
{
closed = 1;
nodes = (
(229,0,l),
(229,390,l),
(334,390,l),
(334,500,l),
(229,500,l),
(229,620,l),
(84,620,l),
(84,500,l),
(19,500,l),
(19,390,l),
(84,390,l),
(84,0,l)
);
}
);
width = 353;
}
);
leftKerningGroup = f;
},
{
glyphname = k.ss11;
layers = (
{
anchors = (
{
name = top;
position = "{142, 750}";
},
{
name = bottom;
position = "{296, -20}";
}
);
layerId = "147DC1DB-E812-4101-979E-17422C2E6004";
shapes = (
{
closed = 1;
nodes = (
(214,0,l),
(214,700,l),
(69,700,l),
(69,0,l)
);
},
{
closed = 1;
nodes = (
(337,358,l,{name = iv02;}),
(110,358,l),
(111,253,l),
(318,253,l,{name = iv01;}),
(410,0,l,{name = ab02;}),
(572,0,l),
(434,283,l),
(559,500,l,{name = av02;}),
(419,500,l)
);
}
);
width = 592;
}
);
leftKerningGroup = b;
rightKerningGroup = k;
},
{
glyphname = AE;
layers = (
{
anchors = (
{
name = top;
position = "{480, 719}";
},
{
name = bottom;
position = "{480, -20}";
}
);
layerId = "147DC1DB-E812-4101-979E-17422C2E6004";
shapes = (
{
closed = 1;
nodes = (
(835,0,l,{name = ab01;}),
(835,120,l,{name = sv01;}),
(544,120,l),
(544,305,l,{name = dv01;}),
(795,305,l),
(795,425,l),
(544,425,l,{name = dv02;}),
(544,580,l,{name = sv02;}),
(820,580,l),
(820,700,l,{name = at01;}),
(398,700,l),
(398,0,l)
);
},
{
closed = 1;
nodes = (
(246,580,l),
(532,580,l),
(533,700,l),
(290,700,l)
);
},
{
closed = 1;
nodes = (
(183,119,l,{name = dv01;}),
(469,119,l),
(435,239,l,{name = dv03;}),
(217,239,l,{name = dv02;})
);
},
{
closed = 1;
nodes = (
(244,700,l),
(17,0,l),
(170,0,l),
(371,700,l)
);
}
);
width = 880;
}
);
leftKerningGroup = A1;
rightKerningGroup = E;
unicode = 198;
},
{
glyphname = ae;
layers = (
{
anchors = (
{
name = top;
position = "{506, 520}";
},
{
name = bottom;
position = "{508, -20}";
}
);
layerId = "147DC1DB-E812-4101-979E-17422C2E6004";
shapes = (
{
closed = 1;
nodes = (
(427,0,l,{name = ab01;}),
(572,0,l),
(572,500,l,{name = av01;}),
(427,500,l)
);
},
{
closed = 1;
nodes = (
(459,423,o),
(389,520,o),
(261,520,cs,{name = at01;}),
(126,520,o),
(50,411,o),
(50,259,cs),
(50,99,o),
(135,-20,o),
(270,-20,cs,{name = dv01;}),
(394,-20,o),
(459,79,o),
(459,248,cs)
);
},
{
closed = 1;
nodes = (
(196,353,o),
(238,409,o),
(308,409,cs,{name = sv01;}),
(382,409,o),
(427,348,o),
(427,250,cs),
(427,153,o),
(383,90,o),
(311,90,cs,{name = dv02;}),
(240,90,o),
(196,152,o),
(196,254,cs)
);
},
{
closed = 1;
nodes = (
(575,323,l,{name = sv02;}),
(584,377,o),
(631,410,o),
(696,410,cs,{name = sv01;}),
(761,410,o),
(802,377,o),
(811,323,c,{name = dv04;})
);
},
{
closed = 1;
nodes = (
(620,91,o),
(575,135,o),
(575,222,c,{name = sv04;}),
(959,222,l,{name = dv03;}),
(959,419,o),
(872,520,o),
(718,520,cs,{name = at01;}),
(567,520,o),
(466,422,o),
(466,251,cs,{name = sv03;}),
(466,85,o),
(560,-20,o),
(723,-20,cs,{name = at01;}),
(811,-20,o),
(885,10,o),
(932,67,c),
(854,145,l),
(822,110,o),
(772,91,o),
(711,91,cs,{name = sv01;})
);
}
);
width = 996;
}
);
leftKerningGroup = a;
rightKerningGroup = b1;
unicode = 230;
},
{
glyphname = hbar;
layers = (
{
layerId = "147DC1DB-E812-4101-979E-17422C2E6004";
shapes = (
{
closed = 1;
nodes = (
(80,0,l,{name = ab03;}),
(225,0,l),
(225,750,l,{name = ab01;}),
(80,750,l)
);
},
{
closed = 1;
nodes = (
(218,262,l),
(225,197,l,{name = iv01;}),
(225,313.604,o),
(267,390,o),
(342,390,cs,{name = sv01;}),
(392,390,o),
(422,363.936,o),
(422,258.68,cs),
(422,0,l,{name = ab01;}),
(567,0,l),
(567,294,ls),
(567,442,o),
(498,500,o),
(395,500,cs,{name = at01;}),
(307,500,o),
(236,436,o),
(217,341,c)
);
},
{
closed = 1;
nodes = (
(16.8,631,l),
(408.464,631,l),
(408.464,665,l),
(16.8,665,l)
);
}
);
width = 641;
}
);
leftKerningGroup = f;
rightKerningGroup = h;
unicode = 295;
},
{
glyphname = kgreenlandic;
layers = (
{
layerId = "147DC1DB-E812-4101-979E-17422C2E6004";
shapes = (
{
closed = 1;
nodes = (
(69,0,l),
(69,500,l),
(214,500,l),
(214,0,l)
);
},
{
closed = 1;
nodes = (
(336,316,l,{name = iv02;}),
(418,500,l),
(558,500,l,{name = av02;}),
(433,265,l),
(574,0,l),
(409,0,l,{name = ab02;}),
(317,207,l,{name = iv01;}),
(110,207,l),
(109,316,l)
);
}
);
width = 594;
}
);
leftKerningGroup = i;
rightKerningGroup = k;
unicode = 312;
},
{
glyphname = Lslash;
layers = (
{
layerId = "147DC1DB-E812-4101-979E-17422C2E6004";
shapes = (
{
closed = 1;
nodes = (
(0,280,l),
(0,231,l),
(388,494,l),
(388,543,l)
);
},
{
alignment = -1;
ref = L;
}
);
width = 554;
}
);
leftKerningGroup = Eth;
rightKerningGroup = L;
unicode = 321;
},
{
glyphname = lslash;
layers = (
{
layerId = "147DC1DB-E812-4101-979E-17422C2E6004";
shapes = (
{
closed = 1;
nodes = (
(6,291,l),
(6,250,l),
(323,465,l),
(323,506,l)
);
},
{
alignment = -1;
ref = l;
}
);
width = 350;
}
);
leftKerningGroup = f;
rightKerningGroup = l;
unicode = 322;
},
{
glyphname = OE;
layers = (
{
anchors = (
{
name = top;
position = "{484, 719}";
},
{
name = bottom;
position = "{484, -20}";
}
);
layerId = "147DC1DB-E812-4101-979E-17422C2E6004";
shapes = (
{
closed = 1;
nodes = (
(414.339,120,ls),
(283.726,120,o),
(191,209,o),
(191,349,cs),
(191,484,o),
(277.743,580,o),
(414.339,580,cs),
(484.334,580,l,{name = sv02;}),
(484.334,120,l,{name = sv01;})
);
},
{
closed = 1;
nodes = (
(624.334,700,l),
(400,700,ls,{name = at01;}),
(188,700,o),
(43,558,o),
(43,350,cs),
(43,141,o),
(187,0,o),
(400,0,cs),
(624.334,0,l,{name = ab01;})
);
},
{
closed = 1;
nodes = (
(922.334,0,l,{name = ab01;}),
(922.334,120,l,{name = sv01;}),
(631.334,120,l),
(631.334,305,l,{name = dv01;}),
(882.334,305,l),
(882.334,425,l),
(631.334,425,l,{name = dv02;}),
(631.334,580,l,{name = sv02;}),
(907.334,580,l),
(907.334,700,l,{name = at01;}),
(490.334,700,l),
(490.334,0,l)
);
}
);
width = 968;
}
);
leftKerningGroup = C1;
rightKerningGroup = E;
unicode = 338;
},
{
glyphname = oe;
layers = (
{
anchors = (
{
name = top;
position = "{479, 520}";
},
{
name = bottom;
position = "{479, -20}";
}
);
layerId = "147DC1DB-E812-4101-979E-17422C2E6004";
shapes = (
{
closed = 1;
nodes = (
(49.53,84,o),
(144.59,-20,o),
(300.76,-20,cs,{name = dv01;}),
(469.54,-20,o),
(551.99,84,o),
(551.99,255,cs),
(551.99,416,o),
(468.57,520,o),
(300.76,520,cs,{name = at01;}),
(143.62,520,o),
(49.53,416,o),
(49.53,255,cs)
);
},
{
closed = 1;
nodes = (
(408.43,145.346,o),
(377.39,90,o),
(300.76,90,cs,{name = dv02;}),
(230.92,90,o),
(193.09,146.352,o),
(193.09,255.031,cs),
(193.09,359.686,o),
(228.01,410,o),
(300.76,410,cs,{name = sv01;}),
(374.48,410,o),
(408.43,357.673,o),
(408.43,253.019,cs)
);
},
{
closed = 1;
nodes = (
(555.42,322,l,{name = sv02;}),
(564.15,376.621,o),
(608.364,410,o),
(668.919,410,cs,{name = sv01;}),
(728.512,410,o),
(766.959,376.621,o),
(775.61,322,c,{name = dv04;})
);
},
{
closed = 1;
nodes = (
(597.786,90,o),
(555.42,134.336,o),
(555.42,222,c,{name = sv04;}),
(919.17,222,l,{name = dv03;}),
(919.17,419,o),
(828.96,520,o),
(670.85,520,cs,{name = at01;}),
(515.65,520,o),
(411.86,422,o),
(411.86,251,cs,{name = sv03;}),
(411.86,85,o),
(508.86,-20,o),
(677.64,-20,cs,{name = at01;}),
(767.85,-20,o),
(844.48,10,o),
(892.98,67,c),
(817.32,145,l),
(787.471,109.352,o),
(740.291,90,o),
(683.481,90,cs,{name = sv01;})
);
}
);
width = 957;
}
);
leftKerningGroup = a;
rightKerningGroup = b1;
unicode = 339;
},
{
glyphname = dotlessj;
layers = (
{
anchors = (
{
name = top;
position = "{160, 520}";
},
{
name = bottom;
position = "{100, -217}";
}
);
layerId = "147DC1DB-E812-4101-979E-17422C2E6004";
shapes = (
{
closed = 1;
nodes = (
(231,500,l),
(86,500,l,{name = av01;}),
(86,-22,ls),
(86,-87,o),
(78,-108,o),
(41,-108,cs,{name = dv02;}),
(26,-108,o),
(-2,-105,o),
(-21,-96,c),
(-46,-198,l),
(1,-212,o),
(15,-221,o),
(83,-221,cs,{name = dv01;}),
(178,-221,o),
(231,-174,o),
(231,-68,cs)
);
}
);
width = 300;
}
);
leftKerningGroup = j1;
rightKerningGroup = j;
unicode = 567;
},
{
glyphname = Thorn;
layers = (
{
layerId = "147DC1DB-E812-4101-979E-17422C2E6004";
shapes = (
{
closed = 1;
nodes = (
(128,448,l),
(277,448,ls),
(392,448,o),
(432,425,o),
(432,364,cs),
(432,299,o),
(387,273,o),
(277,273,cs),
(140,273,l),
(140,153,l),
(307,153,ls),
(475,153,o),
(578,213,o),
(578,363,cs),
(578,511,o),
(477,568,o),
(307,568,cs),
(128,568,l)
);
},
{
closed = 1;
nodes = (
(214,0,l),
(214,700,l),
(68,700,l),
(68,0,l)
);
}
);
width = 617;
}
);
leftKerningGroup = B;
rightKerningGroup = P;
unicode = 222;
},
{
glyphname = thorn;
layers = (
{
layerId = "147DC1DB-E812-4101-979E-17422C2E6004";
shapes = (
{
closed = 1;
nodes = (
(217.94,750,l),
(73.28,750,l),
(73,-200,l,{name = av01;}),
(218,-200,l),
(218,89.69,l),
(248.76,22.2,o),
(300.23,-20,o),
(366,-20,cs,{name = dv01;}),
(502,-20,o),
(585,99,o),
(585,255,cs),
(585,411,o),
(511,520,o),
(372,520,cs,{name = at01;}),
(304.35,520,o),
(250.08,480.24,o),
(218,413.42,c)
);
},
{
closed = 1;
nodes = (
(440,158.21,o),
(393.79,90,o),
(329.5,90,cs,{name = dv02;}),
(260.19,90,o),
(218,153.19,o),
(218,256.52,cs),
(218,348.8,o),
(261.19,410,o),
(328.49,410,cs,{name = sv01;}),
(395.8,410,o),
(440,348.8,o),
(440,255.51,cs)
);
}
);
width = 635;
}
);
leftKerningGroup = b;
rightKerningGroup = b1;
unicode = 254;
},
{
glyphname = Eng;
layers = (
{
anchors = (
{
name = top;
position = "{376, 719}";
},
{
name = bottom;
position = "{390, -218}";
}
);
layerId = "147DC1DB-E812-4101-979E-17422C2E6004";
shapes = (
{
closed = 1;
nodes = (
(223,0,l,{name = ab01;}),
(223,468,l,{name = iv01;}),
(539,0,l,{name = ab02;}),
(675,60.785,l),
(675,700,l,{name = at01;}),
(529,700,l),
(529,232,l,{name = iv02;}),
(213,700,l,{name = at02;}),
(77,700,l),
(77,0,l)
);
},
{
closed = 1;
nodes = (
(185,-79,l),
(252,-176,o),
(330,-221,o),
(439,-221,cs,{name = dv01;}),
(589,-221,o),
(675,-137,o),
(675,21,cs),
(675,499,l,{name = at01;}),
(529,499,l),
(529,38,ls),
(529,-50,o),
(501,-101,o),
(431,-101,cs,{name = dv02;}),
(375,-101,o),
(323,-69,o),
(270,6,c)
);
}
);
width = 752;
}
);
leftKerningGroup = B;
rightKerningGroup = H;
unicode = 330;
},
{
glyphname = eng;
layers = (
{
layerId = "147DC1DB-E812-4101-979E-17422C2E6004";
shapes = (
{
closed = 1;
nodes = (
(212,282,l),
(219,217,l,{name = iv01;}),
(219,333,o),
(261,409,o),
(336,409,cs,{name = sv01;}),
(386,409,o),
(416,383,o),
(416,278,cs),
(416,0,l,{name = ab01;}),
(561,0,l),
(561,314,ls),
(561,462,o),
(492,520,o),
(389,520,cs,{name = at01;}),
(301,520,o),
(230,456,o),
(211,361,c)
);
},
{
closed = 1;
nodes = (
(74,0,l,{name = ab02;}),
(219,0,l),
(219,500,l,{name = av01;}),
(74,500,l)
);
},
{
closed = 1;
nodes = (
(561,253,l),
(416,253,l,{name = av01;}),
(416,-22,ls),
(416,-87,o),
(408,-108,o),
(371,-108,cs,{name = dv02;}),
(356,-108,o),
(328,-105,o),
(309,-96,c),
(284,-198,l),
(331,-212,o),
(345,-221,o),
(413,-221,cs,{name = dv01;}),
(508,-221,o),
(561,-174,o),
(561,-68,cs)
);
}
);
width = 635;
}
);
leftKerningGroup = i;
rightKerningGroup = j;
unicode = 331;
},
{
glyphname = Icyr;
layers = (
{
anchors = (
{
name = top;
position = "{376, 719}";
},
{
name = bottom;
position = "{376, -20}";
}
);
layerId = "147DC1DB-E812-4101-979E-17422C2E6004";
shapes = (
{
closed = 1;
nodes = (
(675,0,l),
(675,700,l,{name = at01;}),
(539,700,l),
(223,232,l,{name = iv02;}),
(223,700,l,{name = at02;}),
(77,700,l),
(77,0,l),
(213,0,l,{name = ab01;}),
(529,468,l,{name = iv01;}),
(529,0,l,{name = ab02;})
);
}
);
width = 752;
}
);
leftKerningGroup = B;
rightKerningGroup = H;
unicode = 1048;
},
{
glyphname = Yacyr;
layers = (
{
anchors = (
{
name = top;
position = "{324, 719}";
},
{
name = bottom;
position = "{324, -20}";
}
);
layerId = "147DC1DB-E812-4101-979E-17422C2E6004";
shapes = (
{
closed = 1;
nodes = (
(589.5,0,l),
(589.5,700,l),
(302.254,700,ls,{name = at01;}),
(135.036,700,o),
(34.5,615,o),
(34.5,476,cs),
(34.5,334,o),
(139.406,244,o),
(302.935,244,cs),
(558,244,l,{name = ab01;}),
(558,364,l,{name = sv01;}),
(351.545,364,ls),
(229.55,364,o),
(179.5,396,o),
(179.5,472,cs),
(179.5,548,o),
(230.584,580,o),
(355.102,580,cs),
(444.5,580,l,{name = dv02;}),
(444.5,0,l,{name = dv01;})
);
},
{
closed = 1;
nodes = (
(221,333,l),
(31,0,l,{name = ab02;}),
(189,0,l),
(352,281,l)
);
}
);
width = 648;
}
);
leftKerningGroup = Yacyr;
rightKerningGroup = H;
unicode = 1071;
},
{
glyphname = Zhecyr;
layers = (
{
anchors = (
{
name = top;
position = "{463, 720}";
}
);
layerId = "147DC1DB-E812-4101-979E-17422C2E6004";
shapes = (
{
closed = 1;
nodes = (
(390,700,l),
(390,0,l),
(535,0,l),
(535,700,l)
);
},
{
closed = 1;
nodes = (
(444,315,l),
(674,315,ls),
(768,315,o),
(831,351,o),
(844,467,c),
(865,700,l),
(723,700,l),
(709,554,l),
(701,468,o),
(676,435,o),
(620,435,cs),
(444,435,l)
);
},
{
closed = 1;
nodes = (
(634,329,l),
(754,0,l),
(908,0,l),
(779,355,l)
);
},
{
closed = 1;
nodes = (
(480,315,l),
(480,435,l),
(304,435,ls),
(238,435,o),
(222,482,o),
(215,554,c),
(201,700,l),
(59,700,l),
(80,467,l),
(93,351,o),
(156,315,o),
(250,315,cs)
);
},
{
closed = 1;
nodes = (
(290,329,l),
(145,355,l),
(16,0,l),
(170,0,l)
);
}
);
width = 925;
}
);
leftKerningGroup = X;
rightKerningGroup = K;
unicode = 1046;
},
{
glyphname = Softcyr;
layers = (
{
layerId = "147DC1DB-E812-4101-979E-17422C2E6004";
shapes = (
{
closed = 1;
nodes = (
(77,700,l),
(77,0,l),
(343,0,ls),
(496,0,o),
(594,86,o),
(594,220,cs),
(594,353,o),
(496,434,o),
(343,434,cs),
(223,434,l),
(223,700,l)
);
},
{
closed = 1;
nodes = (
(223,120,l),
(223,313,l),
(340,313,ls),
(417,313,o),
(448,280,o),
(448,219,cs),
(448,158,o),
(417,120,o),
(340,120,cs)
);
}
);
width = 633;
}
);
leftKerningGroup = B;
rightKerningGroup = Ljecyr;
unicode = 1068;
},
{
glyphname = zhecyr;
layers = (
{
anchors = (
{
name = bottom;
position = "{398, -20}";
},
{
name = top;
position = "{400, 520}";
}
);
layerId = "147DC1DB-E812-4101-979E-17422C2E6004";
shapes = (
{
closed = 1;
nodes = (
(327,500,l),
(327,0,l),
(472,0,l,{name = ab01;}),
(472,500,l,{name = av01;})
);
},
{
closed = 1;
nodes = (
(382,321,l,{name = dv02;}),
(278,321,ls),
(223,321,o),
(209,346,o),
(203,396,c),
(192,500,l),
(54,500,l,{name = av02;}),
(71,337,l),
(82,253,o),
(126,211,o),
(206,211,cs),
(382,211,l,{name = dv01;})
);
},
{
closed = 1;
nodes = (
(124,247,l),
(16,0,l),
(161,0,l,{name = ab02;}),
(263,235,l,{name = iv01;})
);
},
{
closed = 1;
nodes = (
(418,211,l,{name = dv01;}),
(594,211,ls),
(674,211,o),
(718,253,o),
(729,337,c),
(746,500,l,{name = av02;}),
(608,500,l),
(597,395,l),
(591,345,o),
(577,321,o),
(523,321,cs),
(418,321,l,{name = dv02;})
);
},
{
closed = 1;
nodes = (
(536,235,l,{name = iv01;}),
(638,0,l,{name = ab02;}),
(784,0,l),
(676,247,l)
);
}
);
width = 800;
}
);
leftKerningGroup = x;
rightKerningGroup = k;
unicode = 1078;
},
{
glyphname = efcyr;
layers = (
{
layerId = "147DC1DB-E812-4101-979E-17422C2E6004";
shapes = (
{
closed = 1;
nodes = (
(494,750,l),
(349,750,l),
(349,-200,l),
(494,-200,l)
);
},
{
closed = 1;
nodes = (
(219,91,o),
(195,164,o),
(195,255,cs),
(195,359,o),
(232,409,o),
(307,409,cs,{name = sv01;}),
(362,409,o),
(414,390,o),
(445,355,c),
(488,465,l),
(440,501,o),
(377,520,o),
(303,520,cs,{name = at01;}),
(141,520,o),
(49,416,o),
(49,255,cs),
(49,84,o),
(141,-20,o),
(302,-20,cs,{name = dv01;}),
(378,-20,o),
(439,-4,o),
(486,27,c),
(453,145,l),
(424,112,o),
(380,91,o),
(324,91,cs,{name = dv02;})
);
},
{
closed = 1;
nodes = (
(464,91,o),
(420,112,o),
(391,145,c),
(355,30,l),
(402,-3,o),
(465,-20,o),
(542,-20,cs,{name = dv01;}),
(703,-20,o),
(795,84,o),
(795,255,cs),
(795,416,o),
(703,520,o),
(541,520,cs,{name = at01;}),
(467,520,o),
(403,501,o),
(355,465,c),
(399,355,l),
(430,390,o),
(482,409,o),
(537,409,cs,{name = sv01;}),
(612,409,o),
(649,359,o),
(649,255,cs),
(649,164,o),
(625,91,o),
(520,91,cs,{name = dv02;})
);
}
);
width = 844;
}
);
leftKerningGroup = a;
rightKerningGroup = b1;
unicode = 1092;
},
{
glyphname = ljecyr;
layers = (
{
layerId = "147DC1DB-E812-4101-979E-17422C2E6004";
shapes = (
{
closed = 1;
nodes = (
(443,315,l),
(443,205,l),
(567,205,ls),
(605,205,o),
(625,190.471,o),
(625,160.294,cs),
(625,127.882,o),
(603,110,o),
(565,110,cs),
(508,110,l),
(499,151,l),
(432,84,l),
(441,0,l),
(587,0,ls),
(707,0,o),
(770,56.803,o),
(770,164.213,cs),
(770,266.459,o),
(712,315,o),
(586,315,cs)
);
},
{
closed = 1;
nodes = (
(117,500,l),
(117,184,o),
(108,89,o),
(61,89,cs),
(56,89,o),
(49,90,o),
(40,94,c),
(17,-14,l),
(37,-18,o),
(57,-20,o),
(76,-20,cs),
(215,-20,o),
(261,83,o),
(261,390,c),
(365,390,l),
(365,0,l),
(510,0,l),
(510,500,l)
);
}
);
width = 820;
}
);
rightKerningGroup = hardcyr;
unicode = 1113;
},
{
glyphname = njecyr;
layers = (
{
layerId = "147DC1DB-E812-4101-979E-17422C2E6004";
shapes = (
{
closed = 1;
nodes = (
(215,0,l),
(215,205,l),
(375,205,l),
(375,0,l),
(520,0,l),
(520,500,l),
(375,500,l),
(375,315,l),
(215,315,l),
(215,500,l),
(70,500,l),
(70,0,l)
);
},
{
closed = 1;
nodes = (
(453,315,l),
(453,205,l),
(577,205,ls),
(615,205,o),
(635,190.471,o),
(635,160.294,cs),
(635,127.882,o),
(613,110,o),
(575,110,cs),
(518,110,l),
(518,500,l),
(387,500,l),
(387,0,l),
(597,0,ls),
(717,0,o),
(780,56.803,o),
(780,164.213,cs),
(780,266.459,o),
(722,315,o),
(596,315,cs)
);
}
);
width = 830;
}
);
leftKerningGroup = i;
rightKerningGroup = hardcyr;
unicode = 1114;
},
{
glyphname = Ucyr;
layers = (
{
anchors = (
{
name = top;
position = "{306, 719}";
},
{
name = bottom;
position = "{317, -20}";
}
);
layerId = "147DC1DB-E812-4101-979E-17422C2E6004";
shapes = (
{
closed = 1;
nodes = (
(594,700,l),
(437,700,l),
(235,118,ls),
(210.936,48.668,o),
(151,41,o),
(81,40,c),
(81,-80,l),
(224,-80,o),
(305,-54,o),
(339,36,cs)
);
},
{
closed = 1;
nodes = (
(355,142,l),
(173,700,l),
(18,700,l),
(223,138,l),
(304,138,l),
(287,65,l)
);
}
);
width = 612;
}
);
unicode = 1059;
},
{
glyphname = Zecyr.ss09;
layers = (
{
anchors = (
{
name = bottom;
position = "{299, -20}";
},
{
name = top;
position = "{299, 719}";
}
);
layerId = "147DC1DB-E812-4101-979E-17422C2E6004";
shapes = (
{
closed = 1;
nodes = (
(462.597,-20,o),
(567.5,67,o),
(567.5,179,cs),
(567.5,294,o),
(505.66,355,o),
(376,371,c),
(493,399,o),
(535,451,o),
(535,542,cs),
(535,649,o),
(445,720,o),
(302,720,cs),
(145,720,o),
(62,633,o),
(40,502,c),
(183,502,l),
(192,557,o),
(230,600,o),
(302,600,cs),
(358,600,o),
(390,573.851,o),
(390,524.571,cs),
(390,474.286,o),
(353,424,o),
(261,424,c),
(261,304,l),
(376.359,304,o),
(422.5,259,o),
(422.5,199,cs),
(422.5,140,o),
(383.423,100,o),
(313.281,100,cs),
(229.111,100,o),
(192.036,127,o),
(174,198,c),
(31,198,l),
(56.976,67,o),
(143.895,-20,o),
(310.739,-20,cs)
);
}
);
width = 598;
}
);
rightKerningGroup = B1;
},
{
glyphname = Ereversedcyr.ss09;
layers = (
{
anchors = (
{
name = top;
position = "{387, 719}";
}
);
layerId = "147DC1DB-E812-4101-979E-17422C2E6004";
shapes = (
{
closed = 1;
nodes = (
(611,300,l),
(276,300,l),
(276,420,l),
(611,420,l)
);
},
{
closed = 1;
nodes = (
(730,146,o),
(599,-20,o),
(380,-20,cs),
(207,-20,o),
(81,84,o),
(43,261,c),
(186,261,l),
(202,163.394,o),
(264,100,o),
(372,100,cs),
(507,100,o),
(585,198.394,o),
(585,347.992,cs),
(585,501.606,o),
(503,600,o),
(367,600,cs),
(283,600,o),
(224,562.675,o),
(196,485,c),
(53,485,l),
(101,637,o),
(210,720,o),
(371,720,cs),
(589,720,o),
(730,569,o),
(730,354,cs)
);
}
);
width = 773;
}
);
leftKerningGroup = C1;
rightKerningGroup = C;
},
{
glyphname = zecyr.ss09;
layers = (
{
anchors = (
{
name = top;
position = "{262, 520}";
},
{
name = bottom;
position = "{282, -20}";
}
);
layerId = "147DC1DB-E812-4101-979E-17422C2E6004";
shapes = (
{
closed = 1;
nodes = (
(463.5,469,o),
(389.586,520,o),
(276.717,520,cs),
(148.866,520,o),
(51.979,454.698,o),
(34,333,c),
(177,333,l),
(183.021,380.759,o),
(217.142,410,o),
(264.309,410,cs),
(296.422,410,o),
(321.5,395.877,o),
(321.5,365.614,cs),
(321.5,333.333,o),
(293.407,295,o),
(184,295,c),
(184,199,l),
(294,199,o),
(338.5,171.75,o),
(338.5,133.398,cs),
(338.5,106.148,o),
(314.428,90,o),
(271.294,90,cs),
(213.112,90,o),
(182.016,120,o),
(177,167,c),
(34,167,l),
(44,53,o),
(124,-20,o),
(264,-20,cs),
(401,-20,o),
(483,32,o),
(483,134,cs),
(483,221,o),
(419,263,o),
(303,261,c),
(414.652,271,o),
(463.5,314,o),
(463.5,384,cs)
);
}
);
width = 525;
}
);
leftKerningGroup = s1;
rightKerningGroup = s;
},
{
glyphname = ereversedcyr.ss09;
layers = (
{
anchors = (
{
name = top;
position = "{305, 520}";
},
{
name = bottom;
position = "{305, -20}";
}
);
layerId = "147DC1DB-E812-4101-979E-17422C2E6004";
shapes = (
{
closed = 1;
nodes = (
(517,209,l),
(243,209,l),
(243,295,l),
(517,295,l)
);
},
{
closed = 1;
nodes = (
(161,-20,o),
(63,47,o),
(51,167,c),
(186,167,l),
(189.013,123,o),
(228.183,90,o),
(287.439,90,cs),
(369.796,90,o),
(417,146.352,o),
(417,246.981,cs),
(417,349.623,o),
(368.793,410,o),
(288.448,410,cs),
(229.194,410,o),
(190.026,377.835,o),
(184,333,c),
(49,333,l),
(69,457.667,o),
(162,520,o),
(295,520,cs),
(464,520,o),
(562,417,o),
(562,255,cs),
(562,85,o),
(466,-20,o),
(296,-20,cs)
);
}
);
width = 611;
}
);
leftKerningGroup = a;
rightKerningGroup = b1;
},
{
glyphname = Zecyr.ss10;
layers = (
{
anchors = (
{
name = bottom;
position = "{299, -20}";
},
{
name = top;
position = "{299, 719}";
}
);
layerId = "147DC1DB-E812-4101-979E-17422C2E6004";
shapes = (
{
closed = 1;
nodes = (
(241.228,100,o),
(171.123,134.221,o),
(89,255,c),
(50,117,l),
(119.932,27,o),
(217.838,-20,o),
(320.738,-20,cs),
(460.603,-20,o),
(567.5,67,o),
(567.5,196,cs),
(567.5,294,o),
(505.661,355,o),
(376,371,c),
(493,399,o),
(535,451,o),
(535,542,cs),
(535,652,o),
(445,720,o),
(299,720,cs),
(210,720,o),
(120,673,o),
(50,583,c),
(89,445,l),
(171,565.779,o),
(241,600,o),
(310,600,cs),
(363,600,o),
(390,573.851,o),
(390,524.571,cs),
(390,474.286,o),
(363,424,o),
(271,424,c),
(271,304,l),
(386.381,304,o),
(422.5,258.778,o),
(422.5,199.488,cs),
(422.5,140.197,o),
(388.449,100,o),
(310.332,100,cs)
);
}
);
width = 598;
}
);
rightKerningGroup = B1;
},
{
glyphname = Ereversedcyr.ss10;
layers = (
{
anchors = (
{
name = top;
position = "{357, 719}";
}
);
layerId = "147DC1DB-E812-4101-979E-17422C2E6004";
shapes = (
{
closed = 1;
nodes = (
(545,-20,o),
(692,137,o),
(692,357,cs),
(692,573,o),
(551,720,o),
(340,720,cs),
(220,720,o),
(122,673,o),
(52,583,c),
(91,445,l),
(173,565.779,o),
(250,600,o),
(334,600,cs),
(476,600,o),
(547,500.602,o),
(547,347.992,cs),
(547,185.341,o),
(465,100,o),
(326,100,cs),
(238,100,o),
(161,134.221,o),
(82,255,c),
(43,117,l),
(113,27,o),
(213,-20,o),
(330,-20,cs)
);
},
{
closed = 1;
nodes = (
(226,300,l),
(561,300,l),
(561,420,l),
(226,420,l)
);
}
);
width = 735;
}
);
leftKerningGroup = C1;
rightKerningGroup = C;
},
{
glyphname = zecyr.ss10;
layers = (
{
anchors = (
{
name = bottom;
position = "{262, -20}";
},
{
name = top;
position = "{250, 520}";
}
);
layerId = "147DC1DB-E812-4101-979E-17422C2E6004";
shapes = (
{
closed = 1;
nodes = (
(132,-20,o),
(53,35,o),
(29,79,c),
(60,198,l),
(114,125,o),
(159,90,o),
(229,90,cs),
(288,90,o),
(313,115,o),
(313,151,cs),
(313,196,o),
(265,211,o),
(165,211,c),
(165,305,l),
(245,305,o),
(298,313,o),
(298,360,cs),
(298,389,o),
(273,410,o),
(229,410,cs),
(159,410,o),
(114,375,o),
(60,302,c),
(29,421,l),
(53,465,o),
(132,520,o),
(233,520,cs),
(356,520,o),
(440,476,o),
(440,386,cs),
(440,310,o),
(390,274,o),
(263,260,c),
(386,254,o),
(458,225,o),
(458,141,cs),
(458,40,o),
(373,-20,o),
(233,-20,cs)
);
}
);
width = 500;
}
);
leftKerningGroup = s1;
rightKerningGroup = s;
},
{
glyphname = ereversedcyr.ss10;
layers = (
{
anchors = (
{
name = top;
position = "{293, 520}";
},
{
name = bottom;
position = "{293, -20}";
}
);
layerId = "147DC1DB-E812-4101-979E-17422C2E6004";
shapes = (
{
closed = 1;
nodes = (
(426,-20,o),
(536,91,o),
(536,255,cs),
(536,412,o),
(424,520,o),
(262,520,cs),
(173,520,o),
(95,482,o),
(49,417,c),
(83,299,l),
(135,378,o),
(187,410,o),
(261,410,cs),
(344,410,o),
(390,355,o),
(390,255,cs),
(390,146,o),
(346,90,o),
(261,90,cs),
(185,90,o),
(133,122,o),
(83,201,c),
(49,83,l),
(95,18,o),
(173,-20,o),
(262,-20,cs)
);
},
{
closed = 1;
nodes = (
(468,295,l),
(194,295,l),
(194,210,l),
(468,210,l)
);
}
);
width = 585;
}
);
leftKerningGroup = a;
rightKerningGroup = b1;
},
{
glyphname = efcyr.ss11;
layers = (
{
layerId = "147DC1DB-E812-4101-979E-17422C2E6004";
shapes = (
{
closed = 1;
nodes = (
(494,700,l),
(349,700,l),
(349,-200,l),
(494,-200,l)
);
},
{
closed = 1;
nodes = (
(219,91,o),
(195,164,o),
(195,255,cs),
(195,359,o),
(232,409,o),
(307,409,cs,{name = sv01;}),
(362,409,o),
(414,390,o),
(445,355,c),
(488,465,l),
(440,501,o),
(377,520,o),
(303,520,cs,{name = at01;}),
(141,520,o),
(49,416,o),
(49,255,cs),
(49,84,o),
(141,-20,o),
(302,-20,cs,{name = dv01;}),
(378,-20,o),
(439,-4,o),
(486,27,c),
(453,145,l),
(424,112,o),
(380,91,o),
(324,91,cs,{name = dv02;})
);
},
{
closed = 1;
nodes = (
(464,91,o),
(420,112,o),
(391,145,c),
(355,30,l),
(402,-3,o),
(465,-20,o),
(542,-20,cs,{name = dv01;}),
(703,-20,o),
(795,84,o),
(795,255,cs),
(795,416,o),
(703,520,o),
(541,520,cs,{name = at01;}),
(467,520,o),
(403,501,o),
(355,465,c),
(399,355,l),
(430,390,o),
(482,409,o),
(537,409,cs,{name = sv01;}),
(612,409,o),
(649,359,o),
(649,255,cs),
(649,164,o),
(625,91,o),
(520,91,cs,{name = dv02;})
);
}
);
width = 844;
}
);
leftKerningGroup = a;
rightKerningGroup = b1;
},
{
glyphname = djecyr.ss11;
layers = (
{
layerId = "147DC1DB-E812-4101-979E-17422C2E6004";
shapes = (
{
closed = 1;
nodes = (
(86,0,l),
(231,0,l),
(231,700,l),
(86,700,l)
);
},
{
closed = 1;
nodes = (
(224,262,l),
(231,197,l,{name = iv01;}),
(231,313.604,o),
(273,390,o),
(348,390,cs,{name = sv01;}),
(398,390,o),
(428,363.933,o),
(428,258.663,cs),
(428,0,l,{name = ab01;}),
(573,0,l),
(573,294,ls),
(573,442,o),
(504,500,o),
(401,500,cs,{name = at01;}),
(313,500,o),
(242,436,o),
(223,341,c)
);
},
{
closed = 1;
nodes = (
(16,580,l),
(397,580,l),
(397,616,l),
(16,616,l)
);
},
{
closed = 1;
nodes = (
(573,241,l),
(428,241,l,{name = av01;}),
(428,-22,ls),
(428,-87,o),
(420,-108,o),
(383,-108,cs,{name = dv02;}),
(368,-108,o),
(340,-105,o),
(321,-96,c),
(296,-198,l),
(343,-212,o),
(357,-221,o),
(425,-221,cs,{name = dv01;}),
(520,-221,o),
(573,-174,o),
(573,-68,cs)
);
}
);
width = 647;
}
);
leftKerningGroup = f;
rightKerningGroup = h;
},
{
glyphname = tshecyr.ss11;
layers = (
{
layerId = "147DC1DB-E812-4101-979E-17422C2E6004";
shapes = (
{
closed = 1;
nodes = (
(104,0,l,{name = ab03;}),
(249,0,l),
(249,700,l,{name = ab01;}),
(104,700,l)
);
},
{
closed = 1;
nodes = (
(242,262,l),
(249,197,l,{name = iv01;}),
(249,313,o),
(291,389,o),
(366,389,cs,{name = sv01;}),
(416,389,o),
(446,363,o),
(446,258,cs),
(446,0,l,{name = ab01;}),
(591,0,l),
(591,294,ls),
(591,442,o),
(522,500,o),
(419,500,cs,{name = at01;}),
(331,500,o),
(260,436,o),
(241,341,c)
);
},
{
closed = 1;
nodes = (
(16,580,l),
(405,580,l),
(405,616,l),
(16,616,l)
);
}
);
width = 665;
}
);
leftKerningGroup = f;
},
{
glyphname = thorn.ss11;
layers = (
{
layerId = "147DC1DB-E812-4101-979E-17422C2E6004";
shapes = (
{
closed = 1;
nodes = (
(73,-200,l,{name = av01;}),
(218,-200,l),
(218.28,89.09,l),
(249.07,21.95,o),
(300.42,-20,o),
(366,-20,cs,{name = dv01;}),
(502,-20,o),
(585,99,o),
(585,255,cs),
(585,411,o),
(511,520,o),
(372,520,cs,{name = at01;}),
(304.54,520,o),
(250.39,480.46,o),
(218.28,413.99,c),
(218.28,700,l),
(73.45,700,l)
);
},
{
closed = 1;
nodes = (
(440,158.21,o),
(393.79,90,o),
(329.5,90,cs,{name = dv02;}),
(263.45,90,o),
(218.28,152.33,o),
(218.28,247.2,cs),
(218.28,318.519,o),
(236.934,410,o),
(328.49,410,cs,{name = sv01;}),
(395.8,410,o),
(440,348.8,o),
(440,255.51,cs)
);
}
);
width = 635;
}
);
leftKerningGroup = b;
rightKerningGroup = b1;
},
{
glyphname = hbar.ss11;
layers = (
{
layerId = "147DC1DB-E812-4101-979E-17422C2E6004";
shapes = (
{
closed = 1;
nodes = (
(74,0,l),
(219,0,l),
(219,700,l),
(74,700,l)
);
},
{
closed = 1;
nodes = (
(212,262,l),
(219,197,l,{name = iv01;}),
(219,313.604,o),
(261,390,o),
(336,390,cs,{name = sv01;}),
(386,390,o),
(416,363.936,o),
(416,258.68,cs),
(416,0,l,{name = ab01;}),
(561,0,l),
(561,294,ls),
(561,442,o),
(492,500,o),
(389,500,cs,{name = at01;}),
(301,500,o),
(230,436,o),
(211,341,c)
);
},
{
closed = 1;
nodes = (
(0.03,601,l),
(371.528,601,l),
(371.528,635,l),
(0.03,635,l)
);
}
);
width = 635;
}
);
leftKerningGroup = f;
rightKerningGroup = h;
},
{
glyphname = lslash.ss11;
layers = (
{
layerId = "147DC1DB-E812-4101-979E-17422C2E6004";
shapes = (
{
closed = 1;
nodes = (
(13,333,l),
(13,237,l),
(259,409,l),
(259,505,l)
);
},
{
alignment = -1;
pos = (-1,0);
ref = l.ss11;
}
);
width = 272;
}
);
leftKerningGroup = f;
},
{
glyphname = Yacyr.ss08;
layers = (
{
anchors = (
{
name = top;
position = "{322, 719}";
},
{
name = bottom;
position = "{322, -20}";
}
);
layerId = "147DC1DB-E812-4101-979E-17422C2E6004";
shapes = (
{
closed = 1;
nodes = (
(577,0,l),
(577,700,l),
(302.166,700,ls),
(146.6,700,o),
(46,611,o),
(46,474,cs),
(46,341,o),
(160.658,244,o),
(318.445,244,cs),
(431,244,l),
(431,0,l)
);
},
{
closed = 1;
nodes = (
(337.849,364,ls),
(241.411,364,o),
(191,399,o),
(191,469,cs),
(191,542,o),
(241.411,580,o),
(337.849,580,cs),
(431,580,l),
(431,364,l)
);
},
{
closed = 1;
nodes = (
(249,305,l),
(153,279,o),
(111,273,o),
(86,222,cs),
(61,171,o),
(81,56,o),
(61,0,c),
(210,0,l),
(225,60,o),
(208,143,o),
(225,183,cs),
(246,232,o),
(297,242,o),
(350,244,c)
);
}
);
width = 645;
}
);
leftKerningGroup = Yacyr;
rightKerningGroup = H;
},
{
glyphname = Ljecyr.ss08;
layers = (
{
layerId = "147DC1DB-E812-4101-979E-17422C2E6004";
shapes = (
{
closed = 1;
nodes = (
(494,0,l),
(631,0,ls),
(797,0,o),
(881,68,o),
(881,203,cs),
(881,339,o),
(795,410,o),
(631,410,cs),
(414,410,l),
(429,290,l),
(582,290,ls),
(701,290,o),
(736,271,o),
(736,207,cs),
(736,141,o),
(699,120,o),
(582,120,cs),
(536,120,l),
(493,4,l)
);
},
{
alignment = -1;
ref = Elcyr.ss08;
}
);
width = 920;
}
);
leftKerningGroup = A1;
rightKerningGroup = Ljecyr;
},
{
glyphname = Decyr.ss08;
layers = (
{
layerId = "147DC1DB-E812-4101-979E-17422C2E6004";
shapes = (
{
closed = 1;
nodes = (
(333,700,l),
(129,93,l),
(286,93,l),
(473,700,l)
);
},
{
closed = 1;
nodes = (
(392,700,l),
(577,93,l),
(734,93,l),
(530,700,l)
);
},
{
closed = 1;
nodes = (
(158,120,ls),
(62,120,o),
(19,103,o),
(19,-140,c),
(139,-140,l),
(139,-37,o),
(136,0,o),
(195,0,cs),
(660,0,ls),
(731,0,o),
(723,-32,o),
(723,-140,c),
(843,-140,l),
(843,103,o),
(808,120,o),
(711,120,cs)
);
}
);
width = 863;
}
);
leftKerningGroup = A1;
rightKerningGroup = A;
},
{
glyphname = decyr.ss08;
layers = (
{
layerId = "147DC1DB-E812-4101-979E-17422C2E6004";
shapes = (
{
closed = 1;
nodes = (
(471,500,l),
(311,500,l),
(142,86,l),
(297,86,l),
(391,359,l),
(485,86,l),
(640,86,l)
);
},
{
closed = 1;
nodes = (
(147,-140,l),
(148,-107,o),
(133,0,o),
(193,0,cs),
(583,0,ls),
(650,0,o),
(635,-102,o),
(635,-140,c),
(741,-140,l),
(741,50,o),
(720,111,o),
(622,111,cs),
(159,111,ls),
(61,111,o),
(40,50,o),
(40,-140,c)
);
}
);
width = 781;
}
);
leftKerningGroup = decyr.ss08;
rightKerningGroup = decyr.ss081;
},
{
glyphname = elcyr.ss08;
layers = (
{
layerId = "147DC1DB-E812-4101-979E-17422C2E6004";
shapes = (
{
closed = 1;
nodes = (
(275,321,l),
(381,0,l),
(535,0,l),
(343,500,l),
(207,500,l),
(15,0,l),
(169,0,l)
);
}
);
width = 550;
}
);
leftKerningGroup = decyr.ss08;
rightKerningGroup = decyr.ss081;
},
{
glyphname = ljecyr.ss08;
layers = (
{
layerId = "147DC1DB-E812-4101-979E-17422C2E6004";
shapes = (
{
closed = 1;
nodes = (
(362,305,l),
(362,195,l),
(527,195,ls),
(571,195,o),
(595,180,o),
(595,153,cs),
(595,126,o),
(571,111,o),
(527,111,cs),
(441,111,l),
(396,0,l),
(557,0,ls),
(691,0,o),
(740,64,o),
(740,154,cs),
(740,244,o),
(690,305,o),
(556,305,cs)
);
},
{
alignment = -1;
ref = elcyr.ss08;
}
);
width = 790;
}
);
leftKerningGroup = decyr.ss08;
rightKerningGroup = hardcyr;
},
{
glyphname = oe.ss09;
layers = (
{
layerId = "147DC1DB-E812-4101-979E-17422C2E6004";
shapes = (
{
closed = 1;
nodes = (
(44.02,84,o),
(140.06,-20,o),
(297.84,-20,cs,{name = dv01;}),
(468.36,-20,o),
(551.66,84,o),
(551.66,255,cs),
(551.66,416,o),
(467.38,520,o),
(297.84,520,cs,{name = at01;}),
(139.08,520,o),
(44.02,416,o),
(44.02,255,cs)
);
},
{
closed = 1;
nodes = (
(406.62,145.346,o),
(375.26,90,o),
(297.84,90,cs,{name = dv02;}),
(227.28,90,o),
(189.06,146.352,o),
(189.06,255.031,cs),
(189.06,359.686,o),
(224.34,410,o),
(297.84,410,cs,{name = sv01;}),
(372.32,410,o),
(406.62,357.673,o),
(406.62,253.019,cs)
);
},
{
closed = 1;
nodes = (
(549.45,308,l),
(549.45,365,o),
(600.86,410,o),
(665.85,410,cs),
(727.93,410,o),
(773.52,367,o),
(773.52,308,c)
);
},
{
closed = 1;
nodes = (
(604.74,90,o),
(549.45,131.315,o),
(549.45,221,c),
(911.26,221,l),
(911.26,397,o),
(831.72,520,o),
(665.85,520,cs),
(499.98,520,o),
(406.86,401,o),
(406.86,255,cs),
(406.86,95,o),
(508.71,-20,o),
(668.76,-20,cs),
(802.62,-20,o),
(887.01,50,o),
(906.41,167,c),
(776.43,167,l),
(772.55,114,o),
(722.11,90,o),
(668.76,90,cs)
);
}
);
width = 954;
}
);
leftKerningGroup = a;
rightKerningGroup = b1;
},
{
glyphname = oe.ss10;
layers = (
{
layerId = "147DC1DB-E812-4101-979E-17422C2E6004";
shapes = (
{
closed = 1;
nodes = (
(44.53,84,o),
(139.59,-20,o),
(295.76,-20,cs,{name = dv01;}),
(464.54,-20,o),
(546.99,84,o),
(546.99,255,cs),
(546.99,416,o),
(463.57,520,o),
(295.76,520,cs,{name = at01;}),
(138.62,520,o),
(44.53,416,o),
(44.53,255,cs)
);
},
{
closed = 1;
nodes = (
(403.43,145.346,o),
(372.39,90,o),
(295.76,90,cs,{name = dv02;}),
(225.92,90,o),
(188.09,146.352,o),
(188.09,255.031,cs),
(188.09,359.686,o),
(223.01,410,o),
(295.76,410,cs,{name = sv01;}),
(369.48,410,o),
(403.43,357.673,o),
(403.43,253.019,cs)
);
},
{
closed = 1;
nodes = (
(548.48,311,l),
(548.48,359,o),
(585.34,410,o),
(656.15,410,cs),
(728.9,410,o),
(758,355,o),
(758,311,c)
);
},
{
closed = 1;
nodes = (
(764.064,-20,o),
(839.57,18,o),
(884.1,83,c),
(851.12,201,l),
(802.62,122,o),
(752.18,90,o),
(678.46,90,cs),
(601.83,90,o),
(547.51,132,o),
(547.51,218,c),
(901.56,218,l),
(911.56,410,o),
(811.527,520,o),
(658.566,520,cs),
(504.638,520,o),
(406.86,410,o),
(406.86,255,cs),
(406.86,90,o),
(495.919,-20,o),
(664.802,-20,cs)
);
}
);
width = 944;
}
);
leftKerningGroup = a;
rightKerningGroup = b1;
},
{
glyphname = ae.ss13;
layers = (
{
layerId = "147DC1DB-E812-4101-979E-17422C2E6004";
shapes = (
{
closed = 1;
nodes = (
(225.547,410,o),
(191.01,387,o),
(185.09,341,c),
(51.44,341,l),
(60.43,457,o),
(149.44,520,o),
(276.17,520,cs,{name = at01;}),
(348.9,520,o),
(403.07,499.36,o),
(438.29,466.59,c),
(480.39,500.09,o),
(536.03,520,o),
(603.85,520,cs),
(769.72,520,o),
(849.26,397,o),
(849.26,221,c),
(487.97,221,l),
(487.97,131.31,o),
(543.133,90,o),
(607.007,90,cs),
(660.234,90,o),
(710.559,114,o),
(714.43,167,c),
(844.41,167,l),
(825.01,50,o),
(740.62,-20,o),
(606.76,-20,cs),
(515.2,-20,o),
(442.69,17.64,o),
(397.4,79.81,c),
(352.822,10.563,o),
(286.375,-20,o),
(214.207,-20,cs),
(105.771,-20,o),
(35.6,49,o),
(35.6,146,cs),
(35.6,243,o),
(105.771,312,o),
(206.581,312,cs),
(269.624,312,o),
(317.333,284.7,o),
(342.97,236.49,c),
(342.97,340.83,ls),
(342.97,382.93,o),
(318.301,410,o),
(269.951,410,cs,{name = sv01;})
);
},
{
closed = 1;
nodes = (
(711.52,308,l),
(711.52,367,o),
(673.249,410,o),
(599.55,410,cs),
(525.842,410,o),
(487.97,365,o),
(487.97,308,c)
);
},
{
closed = 1;
nodes = (
(180.14,111,o),
(203.824,90,o),
(246.259,90,cs),
(292.82,90,o),
(332.852,115.15,o),
(342.97,156.3,c),
(342.97,158.04,l),
(326.233,185.03,o),
(291.883,202,o),
(250.206,202,cs),
(204.811,202,o),
(180.14,182,o),
(180.14,146,cs)
);
}
);
width = 887;
}
);
leftKerningGroup = a.ss02;
},
{
glyphname = ae.ss14;
layers = (
{
layerId = "147DC1DB-E812-4101-979E-17422C2E6004";
shapes = (
{
closed = 1;
nodes = (
(160.892,520,o),
(78.708,480,o),
(45.54,422,c),
(75,306,l),
(128.97,380,o),
(188.661,410,o),
(256.72,410,cs),
(310.12,410,o),
(338.39,391,o),
(338.39,354,cs),
(338.39,309,o),
(299.263,284,o),
(217.198,284,cs),
(102.697,284,o),
(31.115,235,o),
(31.115,138,cs),
(31.115,42,o),
(99.957,-20,o),
(205.376,-20,cs),
(286.624,-20,o),
(350.258,16.828,o),
(387.83,78.43,c),
(429.87,16.29,o),
(499.6,-20,o),
(595.33,-20,cs),
(693.31,-20,o),
(767.84,18,o),
(811.79,83,c),
(779.15,201,l),
(731.15,122,o),
(681.23,90,o),
(608.27,90,cs),
(532.42,90,o),
(478.67,132,o),
(478.67,218,c),
(829.07,218,l),
(847.342,411,o),
(740.2,520,o),
(589.2,520,cs),
(520.81,520,o),
(462.78,501.1,o),
(421.77,467.94,c),
(384.858,501.38,o),
(330.234,520,o),
(261.665,520,cs)
);
},
{
closed = 1;
nodes = (
(340.09,206,ls),
(340.09,136.4,o),
(295.062,90,o),
(227.521,90,cs),
(192.818,90,o),
(173.115,110,o),
(173.115,139,cs),
(173.115,171,o),
(195.362,192,o),
(239.857,192,cs),
(282.483,192,o),
(322.803,212,o),
(340.09,243,c)
);
},
{
closed = 1;
nodes = (
(480.39,311,l),
(480.39,359,o),
(516.74,410,o),
(586.55,410,cs),
(658.3,410,o),
(687,355,o),
(687,311,c)
);
}
);
width = 867;
}
);
leftKerningGroup = a.ss02;
},
{
glyphname = germandbls;
layers = (
{
layerId = "147DC1DB-E812-4101-979E-17422C2E6004";
shapes = (
{
closed = 1;
nodes = (
(677,48,o),
(593.205,-20,o),
(471.501,-20,cs),
(388.297,-20,o),
(313.112,11,o),
(268,74,c),
(350,156,l),
(383.636,110.308,o),
(422.219,90,o),
(461.791,90,cs),
(503.342,90,o),
(535,111.038,o),
(535,142.095,cs),
(535,223.243,o),
(326.5,256.303,o),
(326.5,373.516,cs),
(326.5,455.666,o),
(430.5,493.735,o),
(430.5,569.874,cs),
(430.5,617.962,o),
(389.403,639,o),
(339.284,639,cs),
(261.1,639,o),
(219,587,o),
(219,495,cs),
(219,0,l),
(74,0,l),
(74,545,ls),
(74,680,o),
(184.889,749,o),
(334.738,749,cs),
(477.595,749,o),
(572.5,687,o),
(572.5,579,cs),
(572.5,468,o),
(471.5,445,o),
(471.5,384,cs),
(471.5,297,o),
(677,303,o),
(677,147,cs)
);
}
);
width = 725;
}
);
leftKerningGroup = b;
rightKerningGroup = germandbls;
unicode = 223;
},
{
glyphname = germandbls.ss09;
layers = (
{
layerId = "147DC1DB-E812-4101-979E-17422C2E6004";
shapes = (
{
closed = 1;
nodes = (
(457,267,o),
(662,299,o),
(662,141,cs),
(662,29,o),
(573,-20,o),
(449,-20,cs),
(337,-20,o),
(267,20,o),
(257,127,c),
(401,127,l),
(409,101,o),
(427,90,o),
(458,90,cs),
(502,90,o),
(517,114,o),
(517,140,cs),
(517,213,o),
(312,195,o),
(312,357,cs),
(312,465,o),
(404,475,o),
(404,560,cs),
(404,611,o),
(371,641,o),
(319,641,cs),
(250,641,o),
(219,587,o),
(219,482,cs),
(219,0,l),
(74,0,l),
(74,535,ls),
(74,685,o),
(177,751,o),
(316,751,cs),
(447,751,o),
(548,692,o),
(548,573,cs),
(548,461,o),
(457,446,o),
(457,374,cs)
);
}
);
width = 710;
}
);
leftKerningGroup = b;
rightKerningGroup = germandbls;
},
{
glyphname = germandbls.ss10;
layers = (
{
layerId = "147DC1DB-E812-4101-979E-17422C2E6004";
shapes = (
{
closed = 1;
nodes = (
(619,-20,o),
(682,49,o),
(682,141,cs),
(682,295,o),
(454,298,o),
(454,378,cs),
(454,430,o),
(551,438,o),
(551,562,cs),
(551,684,o),
(458,751,o),
(317,751,cs),
(179,751,o),
(74,686,o),
(74,535,cs),
(74,0,l),
(219,0,l),
(219,523,ls),
(219,606,o),
(258,640,o),
(320,640,cs),
(368,640,o),
(406,613,o),
(406,557,cs),
(406,469,o),
(310,453,o),
(310,361,cs),
(310,220,o),
(537,219,o),
(537,131,cs),
(537,106,o),
(519,90,o),
(477,90,cs),
(408,90,o),
(344,132,o),
(293,215,c),
(260,97,l),
(307,20,o),
(382,-20,o),
(484,-20,cs)
);
}
);
width = 730;
}
);
leftKerningGroup = b;
rightKerningGroup = germandbls;
},
{
glyphname = eth;
layers = (
{
layerId = "147DC1DB-E812-4101-979E-17422C2E6004";
shapes = (
{
closed = 1;
nodes = (
(142,629,l),
(183,612,o),
(219,595,o),
(253,576,c),
(149,538,l),
(167,493,l),
(308,550,l),
(356,517,o),
(397,480,o),
(432,439,c),
(417,451,o),
(378,471,o),
(308,471,cs),
(153,471,o),
(49,374,o),
(49,231,cs),
(49,85,o),
(157,-20,o),
(317,-20,cs),
(476,-20,o),
(587,83,o),
(587,248,cs),
(587,371,o),
(525,496,o),
(404,590,c),
(506,632,l),
(488,677,l),
(369,627,l),
(317,660,o),
(248,693,o),
(184,720,c)
);
},
{
closed = 1;
nodes = (
(391,361,o),
(442,314,o),
(442,231,cs),
(442,150,o),
(394,91,o),
(315,91,cs),
(243,91,o),
(194,139,o),
(194,225,cs),
(194,309,o),
(240,361,o),
(317,361,cs)
);
}
);
width = 636;
}
);
leftKerningGroup = a;
rightKerningGroup = b1;
unicode = 240;
},
{
glyphname = Germandbls;
layers = (
{
layerId = "147DC1DB-E812-4101-979E-17422C2E6004";
shapes = (
{
closed = 1;
nodes = (
(677,645,l),
(613,696,o),
(510.046,720,o),
(391.803,720,cs),
(188.954,720,o),
(86,633,o),
(86,479,cs),
(86,0,l),
(232,0,l),
(232,463.887,ls),
(232,550.307,o),
(275.043,596,o),
(372.87,596,cs),
(421.783,596,o),
(457,590,o),
(482,582,c),
(417.376,524.643,ls),
(368.928,481.643,o),
(346,443.778,o),
(346,392.958,cs),
(346,245.518,o),
(580,245.447,o),
(580,155.802,cs),
(580,122.918,o),
(553.609,100,o),
(510.253,100,cs),
(465.011,100,o),
(416,124,o),
(392,164,c),
(303,75,l),
(342,18,o),
(404.376,-20,o),
(501.838,-20,cs),
(638.284,-20,o),
(726,54,o),
(726,160,cs),
(726,340,o),
(493,316,o),
(493,426,cs),
(493,453,o),
(511,479,o),
(537,505,cs)
);
}
);
width = 765;
}
);
unicode = 7838;
},
{
glyphname = Germandbls.ss10;
layers = (
{
layerId = "147DC1DB-E812-4101-979E-17422C2E6004";
shapes = (
{
closed = 1;
nodes = (
(383,-20,o),
(312,18,o),
(267,88,c),
(304,221,l),
(345,131,o),
(402,100,o),
(462,100,cs),
(513,100,o),
(538,126,o),
(538,164,cs),
(538,272,o),
(292,251,o),
(292,401,cs),
(292,436,o),
(307,480,o),
(355,515,cs),
(450,583,l),
(417,595,o),
(386,601,o),
(345,601,cs),
(254,601,o),
(220,541,o),
(220,450,cs),
(220,0,l),
(74,0,l),
(74,499,ls),
(74,631,o),
(158,720,o),
(368,720,cs),
(468,720,o),
(570,688,o),
(638,635,c),
(476,494,ls),
(447,469,o),
(434,449,o),
(434,422,cs),
(434,321,o),
(684,346,o),
(684,168,cs),
(684,80,o),
(626,-20,o),
(469,-20,cs)
);
}
);
width = 723;
}
);
},
{
glyphname = Germandbls.ss09;
layers = (
{
layerId = "147DC1DB-E812-4101-979E-17422C2E6004";
shapes = (
{
closed = 1;
nodes = (
(354,527,ls),
(315,488,o),
(286,453,o),
(286,397,cs),
(286,230,o),
(538,281,o),
(538,160,cs),
(538,121,o),
(511,101,o),
(465,101,cs),
(421,101,o),
(394,120,o),
(392,157,c),
(251,157,l),
(269,38,o),
(339,-20,o),
(466,-20,cs),
(606,-20,o),
(684,50,o),
(684,164,cs),
(684,354,o),
(430,320,o),
(430,424,cs),
(430,466,o),
(471,495,o),
(491,515,cs),
(620,639,l),
(556,691,o),
(466,720,o),
(358,720,cs),
(173,720,o),
(74,634,o),
(74,489,cs),
(74,0,l),
(220,0,l),
(220,451,ls),
(220,546,o),
(269,599,o),
(362,599,cs),
(393,599,o),
(407,593,o),
(416,588,c)
);
}
);
width = 723;
}
);
},
{
glyphname = rho;
layers = (
{
anchors = (
{
name = topgr;
position = "{322, 520}";
}
);
layerId = "147DC1DB-E812-4101-979E-17422C2E6004";
shapes = (
{
closed = 1;
nodes = (
(218,-200,l),
(218,274,l),
(73,251,l),
(73,-200,l)
);
},
{
closed = 1;
nodes = (
(89,250,l),
(115,229,o),
(147,199,o),
(171,192,c),
(161,70,o),
(228,-20,o),
(350,-20,cs),
(484,-20,o),
(580,90,o),
(580,256,cs),
(580,421,o),
(485,520,o),
(325,520,cs),
(156,520,o),
(73,409,o),
(73,247,c)
);
},
{
closed = 1;
nodes = (
(435,150,o),
(395,90,o),
(328,90,cs),
(260,90,o),
(218,150,o),
(218,258,cs),
(218,360,o),
(255,410,o),
(322,410,cs),
(396,410,o),
(435,350,o),
(435,251,cs)
);
}
);
width = 630;
}
);
rightKerningGroup = b1;
unicode = 961;
},
{
glyphname = tonos.case;
layers = (
{
anchors = (
{
name = _topgr;
position = "{62, 500}";
},
{
name = topgr;
position = "{46, 699}";
}
);
layerId = "147DC1DB-E812-4101-979E-17422C2E6004";
shapes = (
{
closed = 1;
nodes = (
(53,700.508,l),
(13,549.508,l),
(96,549.508,l),
(156,700.508,l)
);
}
);
width = 167;
}
);
},
{
glyphname = eta;
layers = (
{
anchors = (
{
name = topgr;
position = "{300, 520}";
}
);
layerId = "147DC1DB-E812-4101-979E-17422C2E6004";
shapes = (
{
closed = 1;
nodes = (
(23,410,l),
(60,410,o),
(89,396,o),
(89,337,cs),
(89,0,l),
(234,0,l),
(234,384,ls),
(234,482,o),
(178,520,o),
(23,520,c)
);
},
{
closed = 1;
nodes = (
(213,287,l),
(234,217,l),
(234,309.479,o),
(255,410,o),
(334,410,cs),
(377,410,o),
(411,380.952,o),
(411,285.796,cs),
(411,-200,l),
(556,-200,l),
(556,304,ls),
(556,448,o),
(506,520,o),
(398,520,cs),
(290,520,o),
(230,448,o),
(211,370,c)
);
}
);
width = 630;
}
);
leftKerningGroup = i;
rightKerningGroup = j;
unicode = 951;
},
{
glyphname = epsilon;
layers = (
{
anchors = (
{
name = topgr;
position = "{253, 520}";
}
);
layerId = "147DC1DB-E812-4101-979E-17422C2E6004";
shapes = (
{
closed = 1;
nodes = (
(58,313.113,o),
(95,266,o),
(224,254,c),
(91,238,o),
(39,198.909,o),
(39,127.568,cs),
(39,34.727,o),
(127,-20,o),
(247,-20,cs),
(341,-20,o),
(411,15,o),
(463,80,c),
(376,167,l),
(339,116.342,o),
(304,90,o),
(253,90,cs),
(209,90,o),
(184,110.171,o),
(184,139.419,cs),
(184,180.769,o),
(237,208,o),
(363,208,c),
(363,298,l),
(237.214,298,o),
(203,322.216,o),
(203,360.559,cs),
(203,391.838,o),
(226.14,410,o),
(263.366,410,cs),
(304.616,410,o),
(335.805,387.651,o),
(368,346,c),
(455,433,l),
(403,492,o),
(328,520,o),
(246,520,cs),
(129,520,o),
(58,460.597,o),
(58,379.685,cs)
);
}
);
width = 505;
}
);
leftKerningGroup = s1;
rightKerningGroup = s;
unicode = 949;
},
{
glyphname = lownumeralsign;
layers = (
{
layerId = "147DC1DB-E812-4101-979E-17422C2E6004";
shapes = (
{
closed = 1;
nodes = (
(217,68,l),
(140,68,l),
(19,-149,l),
(138,-149,l)
);
}
);
width = 241;
}
);
unicode = 885;
},
{
glyphname = alpha;
layers = (
{
anchors = (
{
name = topgr;
position = "{310, 520}";
}
);
layerId = "147DC1DB-E812-4101-979E-17422C2E6004";
shapes = (
{
closed = 1;
nodes = (
(140,-20,o),
(50,80,o),
(50,250,cs),
(50,420,o),
(139,520,o),
(268,520,cs),
(388.193,520,o),
(486.89,432.1,o),
(544.592,296.014,cs),
(580.026,212.448,o),
(600,110.711,o),
(600,0,c),
(455,0,l),
(455,79.702,o),
(455.87,192.464,o),
(432.466,279.565,cs),
(412.41,354.204,o),
(374.529,410,o),
(303,410,cs),
(234,410,o),
(196,357,o),
(196,249,cs),
(196,144,o),
(232,90,o),
(304,90,cs),
(387.238,90,o),
(424.287,163.651,o),
(440.777,259,cs),
(453.805,334.33,o),
(454,423.204,o),
(454,500,c),
(600,500,l),
(600,416.121,o),
(583.676,328.191,o),
(553.991,249,cs),
(497.676,98.774,o),
(393.273,-20,o),
(261,-20,cs)
);
}
);
width = 673;
}
);
leftKerningGroup = a;
rightKerningGroup = a1;
unicode = 945;
},
{
glyphname = beta;
layers = (
{
anchors = (
{
name = topgr;
position = "{315, 721}";
}
);
layerId = "147DC1DB-E812-4101-979E-17422C2E6004";
shapes = (
{
closed = 1;
nodes = (
(74,-200,l),
(219,-200,l),
(219,463,ls),
(219,568,o),
(254.913,609,o),
(325.74,609,cs),
(387.59,609,o),
(424.5,585,o),
(424.5,516,cs),
(424.5,456,o),
(396.584,408,o),
(344.74,408,cs),
(258,408,l),
(258,308,l),
(344.219,308,ls),
(416.403,308,o),
(454.5,270.345,o),
(454.5,199,cs),
(454.5,127.655,o),
(404.394,90,o),
(335.247,90,cs),
(266.1,90,o),
(219,134.174,o),
(219,197,c),
(187,99,l),
(217.962,20,o),
(291.873,-20,o),
(380.765,-20,cs),
(512.605,-20,o),
(599.5,64,o),
(599.5,189,cs),
(599.5,286,o),
(541.5,345,o),
(424.5,366,c),
(520.16,385,o),
(569.5,441,o),
(569.5,531,cs),
(569.5,648,o),
(485.415,719,o),
(327.256,719,cs),
(169.096,719,o),
(74,648,o),
(74,516,cs)
);
}
);
width = 630;
}
);
leftKerningGroup = b;
rightKerningGroup = germandbls;
unicode = 946;
},
{
glyphname = omega;
layers = (
{
anchors = (
{
name = topgr;
position = "{416, 520}";
}
);
layerId = "147DC1DB-E812-4101-979E-17422C2E6004";
shapes = (
{
closed = 1;
nodes = (
(117,500,l),
(72,422,o),
(49,342,o),
(49,253,cs),
(49,84,o),
(131,-20,o),
(264,-20,cs),
(335,-20,o),
(383,10,o),
(416,71,c),
(449,10,o),
(497,-20,o),
(568,-20,cs),
(701,-20,o),
(783,84,o),
(783,251,cs),
(783,342,o),
(758,429,o),
(714,500,c),
(564,500,l),
(607,429,o),
(638,351,o),
(638,249,cs),
(638,152,o),
(612,92,o),
(556,92,cs),
(512,92,o),
(488,128,o),
(488,192,cs),
(488,361,l),
(343,361,l),
(343,192,ls),
(343,128,o),
(319,92,o),
(276,92,cs),
(216,92,o),
(194,162,o),
(194,252,cs),
(194,341,o),
(217,410,o),
(268,500,c)
);
}
);
width = 832;
}
);
leftKerningGroup = a;
rightKerningGroup = b1;
unicode = 969;
},
{
glyphname = nu;
layers = (
{
layerId = "147DC1DB-E812-4101-979E-17422C2E6004";
shapes = (
{
closed = 1;
nodes = (
(301,93,l),
(366,104,o),
(401,154,o),
(401,270,cs),
(401,359,o),
(380,439,o),
(345,500,c),
(485,500,l),
(520,448,o),
(546,362,o),
(546,266,cs),
(546,89,o),
(458,-19,o),
(294,-19,cs),
(204,-19,l),
(15,500,l),
(169,500,l)
);
}
);
width = 595;
}
);
leftKerningGroup = v;
unicode = 957;
},
{
glyphname = phi;
layers = (
{
anchors = (
{
name = topgr;
position = "{375, 520}";
}
);
layerId = "147DC1DB-E812-4101-979E-17422C2E6004";
shapes = (
{
closed = 1;
nodes = (
(165,500,l),
(99.284,460,o),
(49.5,365,o),
(49.5,251,cs),
(49.5,94,o),
(136.173,-20,o),
(300.5,-20,c),
(300.5,-200,l),
(445.5,-200,l),
(445.5,-20,l),
(603.81,-20,o),
(700.5,84,o),
(700.5,250,cs),
(700.5,421,o),
(601.747,520,o),
(448.131,520,cs),
(353.368,520,o),
(300.5,470.886,o),
(300.5,375.664,cs),
(300.5,90,l),
(224.786,91.003,o),
(194.5,155.204,o),
(194.5,253.511,cs),
(194.5,328.746,o),
(216.683,384.922,o),
(255,410,c)
);
},
{
closed = 1;
nodes = (
(445.5,376.905,ls),
(445.5,396.968,o),
(451.555,407,o),
(470.729,407,cs),
(515.133,407,o),
(555.5,349.82,o),
(555.5,251.509,cs),
(555.5,152.196,o),
(512.106,90,o),
(445.5,90,c)
);
}
);
width = 750;
}
);
leftKerningGroup = a;
rightKerningGroup = b1;
unicode = 966;
},
{
glyphname = psi;
layers = (
{
anchors = (
{
name = topgr;
position = "{387, 656}";
}
);
layerId = "147DC1DB-E812-4101-979E-17422C2E6004";
shapes = (
{
closed = 1;
nodes = (
(66,500,l),
(66,206,ls),
(66,70,o),
(197,-20,o),
(387,-20,cs),
(575,-20,o),
(707,70,o),
(707,206,cs),
(707,500,l),
(562,500,l),
(562,232,ls),
(562,149,o),
(486,91,o),
(387,91,cs),
(293,91,o),
(211,142,o),
(211,232,cs),
(211,500,l)
);
},
{
closed = 1;
nodes = (
(314,-200,l),
(459,-200,l),
(459,656,l),
(314,656,l)
);
}
);
width = 774;
}
);
unicode = 968;
},
{
glyphname = questiongreek;
layers = (
{
layerId = "147DC1DB-E812-4101-979E-17422C2E6004";
shapes = (
{
closed = 1;
nodes = (
(173,119,l),
(95,119,l),
(-14,-149,l),
(101,-149,l)
);
},
{
alignment = -1;
pos = (7,381);
ref = period;
}
);
width = 277;
}
);
unicode = 894;
},
{
glyphname = "numeral-greek";
layers = (
{
layerId = "147DC1DB-E812-4101-979E-17422C2E6004";
shapes = (
{
closed = 1;
nodes = (
(218,715,l),
(141,715,l),
(20,498,l),
(139,498,l)
);
}
);
width = 243;
}
);
unicode = 884;
},
{
glyphname = epsilon.ss09;
layers = (
{
anchors = (
{
name = topgr;
position = "{267, 519}";
}
);
layerId = "147DC1DB-E812-4101-979E-17422C2E6004";
shapes = (
{
closed = 1;
nodes = (
(58,314,o),
(107,273,o),
(219,261,c),
(103,263,o),
(39,228,o),
(39,139,cs),
(39,25,o),
(144,-20,o),
(261,-20,cs),
(409,-20,o),
(489,53,o),
(498,167,c),
(355,167,l),
(350,120,o),
(326,90,o),
(263,90,cs),
(230,90,o),
(185,98.074,o),
(185,136.426,cs),
(185,173.769,o),
(228,199,o),
(338,199,c),
(338,295,l),
(229,295,o),
(204,333.333,o),
(204,363.596,cs),
(204,395.877,o),
(232,410,o),
(267,410,cs),
(317,410,o),
(350,380.759,o),
(355,333,c),
(498,333,l),
(482,454.698,o),
(396,520,o),
(258,520,cs),
(151,520,o),
(58,480,o),
(58,384,cs)
);
}
);
width = 540;
}
);
leftKerningGroup = a;
rightKerningGroup = b1;
},
{
glyphname = sigmafinal.ss09;
layers = (
{
layerId = "147DC1DB-E812-4101-979E-17422C2E6004";
shapes = (
{
closed = 1;
nodes = (
(423,-137,o),
(413,-163,o),
(381,-200,c),
(520,-200,l),
(542,-180,o),
(568,-139,o),
(568,-78,cs),
(568,31,o),
(486,91,o),
(358,91,cs),
(225,91,o),
(184,156.204,o),
(184,249.497,cs),
(184,349.811,o),
(231,410,o),
(313,410,cs),
(373,410,o),
(410,377.835,o),
(416,333,c),
(551,333,l),
(531,457.667,o),
(440,520,o),
(309,520,cs),
(141,520,o),
(39,417,o),
(39,248,cs),
(39,87,o),
(131,-20,o),
(318,-20,cs),
(369,-20,o),
(423,-28,o),
(423,-104,cs)
);
}
);
width = 610;
}
);
leftKerningGroup = a;
},
{
glyphname = epsilon.ss10;
layers = (
{
anchors = (
{
name = topgr;
position = "{250, 519}";
}
);
layerId = "147DC1DB-E812-4101-979E-17422C2E6004";
shapes = (
{
closed = 1;
nodes = (
(122,-20,o),
(39,40,o),
(39,136,cs),
(39,225,o),
(111,254,o),
(234,260,c),
(107,274,o),
(57,310,o),
(57,383,cs),
(57,476,o),
(139,520,o),
(242,520,cs),
(357,520,o),
(434,468,o),
(458,424,c),
(427,305,l),
(373,378,o),
(331,410,o),
(270,410,cs),
(223,410,o),
(203,389,o),
(203,357,cs),
(203,313,o),
(242,305,o),
(382,305,c),
(382,211,l),
(222,211,o),
(184,196,o),
(184,145,cs),
(184,105,o),
(208,90,o),
(256,90,cs),
(330,90,o),
(373,122,o),
(427,195,c),
(458,76,l),
(434,32,o),
(357,-20,o),
(242,-20,cs)
);
}
);
width = 500;
}
);
leftKerningGroup = a;
rightKerningGroup = b1;
},
{
glyphname = sigmafinal.ss10;
layers = (
{
anchors = (
{
name = topgr;
position = "{297, 519}";
}
);
layerId = "147DC1DB-E812-4101-979E-17422C2E6004";
shapes = (
{
closed = 1;
nodes = (
(379,410,o),
(436,377,o),
(492,299,c),
(526,417,l),
(480,482,o),
(402,520,o),
(308,520,cs),
(150,520,o),
(39,413,o),
(39,251,cs),
(39,87,o),
(154,-20,o),
(298,-20,cs),
(374,-20,o),
(408,-50,o),
(408,-103,cs),
(408,-142,o),
(390,-174,o),
(362,-200,c),
(503,-200,l),
(534,-169,o),
(553,-126,o),
(553,-79,cs),
(553,21,o),
(465,90,o),
(339,90,cs),
(227,90,o),
(184,145,o),
(184,250,cs),
(184,352,o),
(225,410,o),
(313,410,cs)
);
}
);
width = 595;
}
);
leftKerningGroup = a;
},
